<?xml version="1.0" encoding="utf-8"?>
<!-- Generator: Adobe Illustrator 23.0.2, SVG Export Plug-In . SVG Version: 6.00 Build 0)  -->
<svg version="1.1" id="Layer_1" xmlns="http://www.w3.org/2000/svg" xmlns:xlink="http://www.w3.org/1999/xlink" x="0px" y="0px"
	 viewBox="0 0 95 34" style="enable-background:new 0 0 95 34;" xml:space="preserve">
<style type="text/css">
	.st0{fill:#FFFFFF;stroke:#D8D8D8;stroke-miterlimit:10;}
	.st1{fill:#FF4612;}
	.st2{fill:#131718;}
	.st3{fill:#EA5753;}
	.st4{fill:#F72705;}
	.st5{fill:#F82807;}
	.st6{fill:#F72806;}
	.st7{fill:#F82908;}
	.st8{fill:#F72503;}
	.st9{fill:#F8290A;}
	.st10{fill:#F82D0F;}
	.st11{fill:#F9371F;}
	.st12{fill:#F91600;}
	.st13{fill:#FB7662;}
</style>
<g>
	<rect x="-138.4" class="st0" width="95" height="34"/>
	<g>
		<path class="st1" d="M-128.5,16.8c0,2.7-2.3,3.3-5.5,3.2c0.1,1.3,0.7,2.3,2.3,2.3c0.8,0,1.7-0.3,2.4-0.8l0.7,1.6
			c-1,0.6-2.1,1-3.3,1c-3.2,0-4.4-2.1-4.4-4.7c0-2.9,1.6-5.2,4.6-5.2C-129.7,14.1-128.5,15-128.5,16.8 M-131.7,15.8
			c-1.5,0-2.1,1.4-2.3,2.6c0.3,0,0.5,0,0.8,0c1.6,0,2.7-0.4,2.7-1.5C-130.5,16.1-131,15.8-131.7,15.8"/>
		<path class="st1" d="M-118.9,21.9c0,0.4,0.1,0.5,0.4,0.5l0.5,0v1.4h-2.8l-0.1-1h-0.1c-0.6,0.8-1.6,1.3-2.6,1.3
			c-2.8,0-3.7-2-3.7-4.6c0-3.3,1.6-5.4,4.9-5.4c1.1,0,2.2,0.3,3.3,0.7V21.9z M-121.2,16.1c-0.4-0.2-0.9-0.3-1.4-0.2
			c-1.9,0-2.4,1.7-2.4,3.6c0,1.5,0.4,2.9,1.9,2.9c1,0.1,1.8-0.6,1.9-1.6c0-0.1,0-0.1,0-0.2L-121.2,16.1z"/>
		<path class="st1" d="M-109.3,14.4v1.3l-5,6.6h3.5c0.4,0,0.6-0.5,0.6-0.5l0.9-0.7l-0.4,2.8h-7.3v-1.4l5-6.5h-2.5
			c-0.4,0-0.5,0.1-0.5,0.5v0.9l-1.8-0.1v-2.8H-109.3z"/>
		<path class="st1" d="M-89.9,21.9c0,0.4,0,0.5,0.4,0.6l0.6,0.1v1.4h-2.8l-0.1-1h-0.1c-0.6,0.8-1.6,1.3-2.6,1.3
			c-2.9,0-3.7-2.2-3.7-4.7c0-3.1,1.6-5.3,4.4-5.3c0.6,0,1.1,0.1,1.6,0.3v-1.9c0-0.4-0.1-0.5-0.5-0.5l-0.6-0.1v-1.4h3.2L-89.9,21.9z
			 M-92.1,20.7v-4.5c-0.5-0.2-1-0.3-1.5-0.3c-1.7,0-2.3,1.5-2.3,3.4c0,1.7,0.4,3.2,1.9,3.2C-92.8,22.4-92.1,21.7-92.1,20.7"/>
		<path class="st1" d="M-84.4,22.3l1,0.1v1.4h-4.2v-1.4l0.6-0.1c0.4-0.1,0.4-0.2,0.4-0.6v-5.4c0-0.4-0.1-0.5-0.5-0.6l-0.6,0v-1.4
			h3.3V22.3z M-85.7,10.4c0.7-0.1,1.3,0.5,1.4,1.2c0,0,0,0.1,0,0.1c0,0.7-0.6,1.3-1.3,1.3c0,0-0.1,0-0.1,0c-0.7,0.1-1.4-0.4-1.5-1.1
			c-0.1-0.7,0.4-1.4,1.1-1.5C-85.9,10.4-85.8,10.4-85.7,10.4"/>
		<path class="st1" d="M-81.3,16.4c0-0.4-0.1-0.5-0.5-0.6l-0.6,0v-1.4h3.1v1.3l0,0c0.6-1,1.7-1.6,2.9-1.5c1.9,0,2.9,1,2.9,3.2v5
			l1,0.1v1.4h-4.1v-1.3l0.6-0.1c0.3-0.1,0.4-0.2,0.4-0.5v-4c0-1.1-0.3-1.9-1.5-1.9c-1.1,0-1.9,0.8-2,1.9c0,0,0,0.1,0,0.1v4.4
			l0.9,0.1v1.4h-4.1v-1.4l0.6-0.1c0.4,0,0.4-0.2,0.4-0.5L-81.3,16.4z"/>
		<path class="st1" d="M-63.6,16.8c0,2.7-2.3,3.3-5.5,3.2c0.1,1.3,0.7,2.3,2.3,2.3c0.8,0,1.7-0.3,2.4-0.8l0.7,1.6
			c-1,0.6-2.1,1-3.3,1c-3.2,0-4.3-2.1-4.3-4.7c0-2.9,1.6-5.2,4.6-5.2C-64.8,14.1-63.6,15-63.6,16.8 M-66.8,15.8
			c-1.5,0-2.2,1.4-2.3,2.6c0.3,0,0.5,0,0.8,0c1.6,0,2.7-0.4,2.7-1.5C-65.6,16.1-66.1,15.8-66.8,15.8"/>
		<path class="st1" d="M-59.1,17.9v4.4l1.5,0.1v1.4h-4.7v-1.4l0.6-0.1c0.4-0.1,0.5-0.2,0.5-0.6v-5.4c0-0.4-0.1-0.5-0.4-0.5l-0.6,0
			v-1.4h3.1v1.4l0,0c0.4-1.1,1.5-1.7,2.7-1.7c0.6,0,1.2,0.1,1.7,0.4v3.1l-1.9,0.1v-1.2c0-0.3,0-0.4-0.2-0.5
			c-0.2-0.1-0.3-0.1-0.5-0.1C-58.5,16-59.2,16.8-59.1,17.9"/>
		<path class="st1" d="M-102.5,14.4v1.4l0.8,0.1l-1.8,5.4h-0.1l-1.6-5c-0.1-0.3,0-0.5,0.3-0.5l0.5,0v-1.4h-4v1.4l0.8,0.1l3,8.2
			l-0.3,0.8c-0.4,0.9-0.9,1.1-1.7,1.2c-0.6,0-1.2-0.1-1.7-0.4c-1.2-0.6-1.5-2.6-0.2-3.1c0.4-0.2,0.9,0.5,1.4-0.2
			c0.3-0.4,0.1-1-0.3-1.2c0,0,0,0-0.1,0c-1.4-1-3.4,0.2-3.6,1.8c-0.3,1.7,0.3,3.5,1.7,4.3c0.8,0.5,1.8,0.8,2.8,0.7
			c1.8-0.1,3-1.5,3.9-4l2.8-7.6c0.2-0.4,0.2-0.5,0.6-0.5l0.4,0v-1.4H-102.5z"/>
		<path class="st2" d="M-49.8,6.4c-0.1-0.2-0.2-0.3-0.4-0.3l0,0c-0.2,0-0.3,0.1-0.4,0.3c-0.2,0.4-0.3,0.9-0.2,1.4
			c0.1,0.1,0.2,0.3,0.3,0.3c0,0,0.2,0,0.2,0.2l-0.1,1.9h0.4l-0.1-1.9c0-0.1,0.2-0.2,0.2-0.2c0.2,0,0.3-0.2,0.3-0.3
			C-49.5,7.3-49.5,6.8-49.8,6.4"/>
		<path class="st1" d="M-46.8,7.9c0.1-0.2,0-0.4-0.1-0.5l0,0c-0.1-0.1-0.3-0.1-0.5-0.1c-0.5,0.1-0.9,0.4-1.1,0.9
			c-0.1,0.1-0.1,0.3,0,0.4c0.1,0.1,0.1,0.2,0,0.2l-1.4,1.2l0.1,0.1l0,0l0.1,0.1l1.2-1.4c0.1-0.1,0.2-0.1,0.2,0
			c0.1,0.1,0.3,0.1,0.4,0C-47.3,8.8-46.9,8.4-46.8,7.9"/>
		<path class="st2" d="M-45.8,11.1c0.2-0.1,0.3-0.2,0.3-0.4l0,0c0-0.2-0.1-0.3-0.3-0.4c-0.4-0.2-0.9-0.3-1.4-0.2
			c-0.1,0.1-0.3,0.2-0.3,0.3c0,0,0,0.2-0.2,0.2l-1.9-0.1v0.2l0,0v0.2l1.9-0.1c0.1,0,0.2,0.2,0.2,0.2c0,0.2,0.2,0.3,0.3,0.3
			C-46.7,11.4-46.2,11.4-45.8,11.1"/>
		<path class="st2" d="M-47.4,14.1c0.2,0.1,0.4,0,0.5-0.1l0,0c0.1-0.1,0.1-0.3,0.1-0.5c-0.1-0.5-0.4-0.9-0.9-1.1
			c-0.1-0.1-0.3-0.1-0.4,0c-0.1,0.1-0.2,0.1-0.2,0l-1.2-1.4l-0.1,0.1l0,0l-0.2,0.2l1.4,1.2c0.1,0.1,0.1,0.2,0,0.2
			c-0.1,0.1-0.1,0.3,0,0.4C-48.2,13.7-47.9,14-47.4,14.1"/>
		<path class="st2" d="M-50.6,15.1c0.1,0.2,0.2,0.3,0.4,0.3l0,0c0.2,0,0.3-0.1,0.4-0.3c0.2-0.4,0.3-0.9,0.2-1.4
			c-0.1-0.1-0.2-0.3-0.3-0.3c0,0-0.2,0-0.2-0.2l0.1-1.9h-0.4l0.1,1.9c0,0.1-0.2,0.2-0.2,0.2c-0.2,0-0.3,0.2-0.3,0.3
			C-50.9,14.2-50.8,14.7-50.6,15.1"/>
		<path class="st2" d="M-53.5,13.5c-0.1,0.2,0,0.4,0.1,0.5l0,0c0.1,0.1,0.3,0.1,0.5,0.1c0.5-0.1,0.9-0.4,1.1-0.9
			c0.1-0.1,0.1-0.3,0-0.4c-0.1-0.1-0.1-0.2,0-0.2l1.4-1.2l-0.1-0.1l0,0l-0.2-0.2l-1.2,1.4c-0.1,0.1-0.2,0.1-0.2,0
			c-0.1-0.1-0.3-0.1-0.4,0C-53.1,12.7-53.4,13.1-53.5,13.5"/>
		<path class="st2" d="M-54.5,10.3c-0.2,0.1-0.3,0.2-0.3,0.4l0,0c0,0.2,0.1,0.3,0.3,0.4c0.4,0.2,0.9,0.3,1.4,0.2
			c0.1-0.1,0.3-0.2,0.3-0.3c0,0,0-0.2,0.2-0.2l1.9,0.1v-0.2l0,0v-0.2l-1.9,0.1c-0.1,0-0.2-0.2-0.2-0.2c0-0.2-0.2-0.3-0.3-0.3
			C-53.6,10-54.1,10.1-54.5,10.3"/>
		<path class="st2" d="M-53,7.4c-0.2-0.1-0.4,0-0.5,0.1l0,0c-0.1,0.1-0.1,0.3-0.1,0.5c0.1,0.5,0.4,0.9,0.9,1.1
			c0.1,0.1,0.3,0.1,0.4,0c0.1-0.1,0.2-0.1,0.2,0l1.3,1.4l0.1-0.1l0,0l0.1-0.1l-1.4-1.2c-0.1-0.1-0.1-0.2,0-0.2
			c0.1-0.1,0.1-0.3,0-0.4C-52.1,7.8-52.5,7.5-53,7.4"/>
	</g>
</g>
<g>
	<g>
		<rect x="7.7" y="64.3" class="st0" width="95" height="34"/>
	</g>
	<g id="Page-1_1_">
		<g id="nearbuy_red_1_">
			<path id="Shape_1_" class="st3" d="M51.1,76.1c0,0.3,0.1,8.4,0,11.1c0,0.1,0,0.1,0,0.2c-0.1,0-0.1,0-0.2,0c-0.9,0-1.9,0-2.8,0
				c0,0-0.1,0-0.1,0c0-0.1,0-0.1,0-0.2c0-0.3,0-0.5,0-0.8v-0.3c0,0-0.1,0-0.1,0.1c-0.3,0.3-0.7,0.5-1.1,0.7c-0.5,0.2-1,0.4-1.5,0.5
				c-0.5,0.1-0.9,0-1.4,0c-0.6-0.1-1.2-0.2-1.7-0.4c-0.6-0.2-1.2-0.6-1.7-1c-0.4-0.4-0.8-0.8-1.1-1.3c-0.7-1.1-1.1-2.3-1.1-3.6
				c0-1.5,0.4-2.9,1.4-4.1c0.8-1,1.8-1.7,3-2.1c0.4-0.1,0.7-0.2,1.1-0.2c0.2,0,0.5,0,0.7-0.1c0.1,0,0.2,0,0.2,0c0.1,0,0.1,0,0.2,0
				c0.5,0,1,0.1,1.5,0.3c0.6,0.2,1.1,0.5,1.6,1c0.4,0.3,0.9,0.6,1.4,0.6c0.1,0,0.3,0,0.5,0c0.4-0.1,0.9-0.1,1.2-0.4
				C51,76.1,51.1,76.1,51.1,76.1L51.1,76.1z M41.4,81.1c0,0.2,0,0.3,0,0.5c0.1,0.4,0.2,0.7,0.4,1.1c0.2,0.3,0.4,0.6,0.6,0.8
				c0.3,0.3,0.7,0.5,1,0.7c0.4,0.2,0.8,0.2,1.2,0.2c0.2,0,0.4,0,0.6,0c0.6-0.1,1.2-0.3,1.7-0.8c0.4-0.3,0.7-0.8,0.9-1.2
				c0.1-0.3,0.2-0.7,0.2-1c0-0.2,0-0.5,0-0.7c-0.1-0.6-0.4-1.2-0.8-1.6c-0.3-0.3-0.6-0.6-1-0.7c-0.5-0.2-1-0.4-1.5-0.4
				c-0.3,0-0.5,0-0.8,0.1c-0.8,0.2-1.5,0.7-1.9,1.3C41.6,79.8,41.4,80.4,41.4,81.1z"/>
			<path class="st3" d="M36.5,81.8c0,0-0.1,0-0.1,0c-0.1,0-0.2,0-0.3,0h-9c-0.1,0-0.2,0-0.3,0c0,0.1,0,0.3,0.1,0.4
				c0.5,1.2,1.4,1.9,2.6,2.3c0.3,0.1,0.5,0.1,0.8,0.1c0.1,0,0.2,0,0.3,0c0.4,0,0.8-0.1,1.2-0.2c0.2-0.1,0.4-0.1,0.6-0.2
				c0.3-0.1,0.6-0.1,1,0c0.4,0.1,0.7,0.3,1,0.5c0.1,0.1,0.2,0.2,0.2,0.3c0.1,0.2,0.3,0.4,0.4,0.5c0,0,0,0.1,0,0.1
				c-0.1,0.1-0.3,0.3-0.5,0.4c-0.7,0.5-1.5,0.8-2.3,1c-0.3,0.1-0.6,0.1-0.9,0.2c-0.4,0-0.8,0.1-1.2,0c0,0-0.1,0-0.1,0
				c-0.4,0-0.7-0.1-1.1-0.1c-0.4-0.1-0.9-0.2-1.3-0.4c-0.7-0.3-1.4-0.7-2-1.2c-0.7-0.6-1.2-1.3-1.6-2c-0.2-0.5-0.4-1-0.5-1.6
				c-0.2-1.2-0.1-2.5,0.4-3.6c0.2-0.5,0.5-0.9,0.8-1.3c0.3-0.4,0.6-0.7,0.9-1c0.4-0.3,0.8-0.6,1.3-0.8c0.5-0.2,1-0.4,1.6-0.5
				c0.2-0.1,0.5-0.1,0.7-0.1c0.5-0.1,0.9-0.1,1.4,0c1.2,0.1,2.4,0.5,3.4,1.2c0.7,0.5,1.2,1.2,1.6,1.9c0.3,0.6,0.5,1.2,0.6,1.8
				c0,0.2,0,0.4,0.1,0.6c0.1,0.5,0,1,0,1.5C36.6,81.7,36.6,81.8,36.5,81.8L36.5,81.8z M27.1,79.2c0.1,0,0.1,0,0.2,0
				c1.7,0,5.7,0,5.9,0c0-0.1,0-0.1-0.1-0.2c-0.2-0.4-0.5-0.8-0.8-1.1c-0.2-0.2-0.5-0.3-0.8-0.5c-0.4-0.2-0.8-0.2-1.2-0.3
				c-0.1,0-0.2,0-0.2,0c-0.1,0-0.1,0-0.2,0c-0.5,0-0.9,0.2-1.3,0.4c-0.5,0.3-1,0.7-1.3,1.3C27.2,79,27.1,79.1,27.1,79.2z"/>
			<path id="Path_1_" class="st3" d="M10.2,87.3c0-0.1,0-0.2,0-0.3v-7c0-0.1,0-0.3,0-0.4c0,0,0-0.1,0-0.1c0-0.9,0.5-2,1-2.7
				c0.6-0.7,1.3-1.3,2.1-1.7c0.5-0.2,1-0.4,1.5-0.5c0.4-0.1,0.9-0.1,1.3-0.1c0.1,0,0.1,0,0.2,0c0.6,0,1.1,0.1,1.7,0.2
				c0.8,0.2,1.5,0.6,2.1,1.1c1,0.7,1.6,1.8,1.9,3c0.1,0.3,0.1,0.7,0.1,1c0,1.7,0,3.4,0,5.2c0,0.5-0.2,1-0.5,1.4
				c-0.3,0.4-0.7,0.7-1.2,0.8c-0.2,0.1-0.4,0.1-0.6,0.1c-0.2,0-0.4,0-0.6,0c-0.1,0-0.1,0-0.2,0c0-0.1,0-0.1,0-0.2c0-0.1,0-0.2,0-0.2
				c0-2.2,0-4.4,0-6.6c0-0.8-0.3-1.5-0.7-2.1c-0.2-0.3-0.5-0.5-0.8-0.6c-0.3-0.1-0.7-0.2-1-0.2c-0.3,0-0.6,0-0.8,0.1
				c-0.4,0.1-0.8,0.4-1.1,0.7c-0.4,0.4-0.6,0.9-0.7,1.4c-0.1,0.4-0.1,0.8-0.1,1.2c0,1.5,0,2.9,0,4.4c0,0.5-0.2,0.9-0.4,1.2
				c-0.3,0.4-0.7,0.7-1.2,0.8c-0.2,0.1-0.4,0.1-0.6,0.1c-0.2,0-0.5,0-0.7,0C10.4,87.3,10.3,87.3,10.2,87.3z"/>
			<path class="st3" d="M52.9,87.3V87c0-2.2,0-4.3,0-6.5c0-0.1,0-0.3,0-0.4c0-0.1,0-0.1,0-0.2c0.1-0.3,0.1-0.7,0.1-1.1
				c0.2-0.7,0.5-1.4,0.9-2c0.4-0.5,0.8-0.9,1.3-1.2c0.6-0.4,1.3-0.7,2-0.8c0.3-0.1,0.5-0.1,0.8-0.1h0h0.8c0,0,0,0.1,0,0.2
				c0,0.9,0,1.7,0,2.6c0,0.1,0,0.1,0,0.2c-0.1,0-0.1,0-0.2,0c-0.5,0-1,0.1-1.4,0.4c-0.5,0.3-0.8,0.8-1,1.4c-0.1,0.2-0.1,0.4-0.1,0.6
				c0,0.2,0,0.5,0,0.7c0,1.4,0,2.8,0,4.2c0,0.4-0.1,0.8-0.3,1.2c-0.3,0.5-0.8,0.9-1.4,1c-0.2,0.1-0.4,0.1-0.6,0.1
				c-0.2,0-0.5,0-0.7,0C53.1,87.3,53,87.3,52.9,87.3z"/>
			<path class="st3" d="M60.4,69.6c0.1,0,0.2,0,0.2,0c0.4,0,0.8,0,1.2,0c0.3,0,0.7,0.2,0.9,0.4c0.5,0.3,0.8,0.8,0.9,1.4
				c0,0.1,0,0.3,0,0.5c0,1.2,0,2.4,0,3.6v0.3c0,0,0.1,0,0.1,0c0.6-0.5,1.3-0.9,2.1-1.1c0.3-0.1,0.7-0.1,1.1-0.1c0.1,0,0.2,0,0.3,0
				c1.3,0,2.6,0.5,3.6,1.3c0.2,0.2,0.5,0.4,0.7,0.6c0.3,0.3,0.5,0.7,0.7,1c0.4,0.6,0.6,1.3,0.8,1.9c0.1,0.3,0.1,0.6,0.1,0.8
				c0,0.1,0,0.1,0,0.2c0,0.2,0,0.4,0,0.6c0,0.6-0.1,1.2-0.3,1.7c-0.2,0.8-0.6,1.5-1.1,2.1c-0.2,0.3-0.5,0.6-0.8,0.9
				c-0.4,0.3-0.8,0.6-1.3,0.8c-0.6,0.3-1.2,0.5-1.8,0.6c-0.5,0.1-1.1,0.1-1.6,0.1c-0.7,0-1.4-0.2-2-0.5c-0.4-0.2-0.9-0.5-1.3-0.8
				c-0.4-0.3-0.7-0.6-1.1-1c-0.3-0.4-0.6-0.9-0.9-1.3c-0.3-0.5-0.4-1-0.5-1.6c0-0.3-0.1-0.5-0.1-0.8c-0.1-0.5,0-1,0-1.4
				c0-3.3,0-6.6,0-9.9C60.4,69.9,60.4,69.8,60.4,69.6z M66.9,84.4c1,0,1.8-0.4,2.3-0.9c0.6-0.6,1-1.4,1-2.3c0-1.5-1-2.8-2.4-3.2
				c-1.4-0.4-2.9,0.2-3.7,1.5c-0.7,1.3-0.5,2.9,0.5,4C65.2,84,66,84.4,66.9,84.4L66.9,84.4z"/>
			<path class="st3" d="M88.3,74.6h0.3c0.3,0,0.5,0,0.8,0c0.7,0,1.3,0.3,1.7,0.9c0.2,0.3,0.4,0.6,0.4,1c0,0.1,0,0.2,0,0.2
				c0,1.5,0,3,0,4.5c0,0.2,0,0.4,0,0.5c0,0.2,0,0.4,0.1,0.5c0.1,0.5,0.3,1,0.6,1.4c0.3,0.4,0.8,0.7,1.4,0.8c0.5,0.1,1.1,0.1,1.6-0.1
				c0.4-0.1,0.7-0.3,1-0.6c0.3-0.3,0.5-0.7,0.7-1.2c0.1-0.4,0.2-0.7,0.2-1.1c0-2.2,0-4.4,0-6.6c0-0.1,0-0.2,0-0.3c0.1,0,0.1,0,0.2,0
				c0.2,0,0.5,0,0.8,0c0.4,0,0.8,0.1,1.2,0.3c0.5,0.4,0.9,0.9,1,1.6c0,0.2,0,0.3,0,0.5c0,3.2,0,6.4,0,9.6c0,0.9-0.2,1.8-0.5,2.6
				c-0.2,0.6-0.5,1.1-0.9,1.6c-0.6,0.7-1.2,1.2-2,1.6c-0.6,0.3-1.2,0.5-1.9,0.6C94.3,93,93.9,93,93.5,93c-0.1,0-0.1,0-0.2,0
				c0-0.1,0-0.1,0-0.2c0-0.4,0-0.8,0-1.2c0-0.4,0.2-0.8,0.5-1.1c0.2-0.3,0.5-0.4,0.8-0.6c0.3-0.1,0.7-0.3,1-0.5
				c0.7-0.5,1.1-1.2,1.3-2c0.1-0.4,0.1-0.7,0.1-1.1c0,0,0-0.1,0-0.1c0,0-0.1,0-0.1,0c-0.4,0.4-0.8,0.7-1.3,0.8
				c-0.3,0.1-0.6,0.2-0.9,0.2c-0.1,0-0.3,0-0.4,0c-1,0-1.9-0.2-2.8-0.6c-0.6-0.3-1.2-0.7-1.7-1.3c-0.6-0.7-1-1.5-1.2-2.3
				c-0.1-0.3-0.1-0.5-0.1-0.8c-0.1-0.5,0-0.9,0-1.4c0-2,0-3.9,0-5.9C88.2,74.8,88.2,74.7,88.3,74.6L88.3,74.6z"/>
			<path class="st3" d="M83.5,74.6h1c0.6,0,1.1,0.2,1.5,0.6c0.4,0.3,0.6,0.8,0.7,1.3c0,0.1,0,0.1,0,0.2v5.5c0,0.4-0.1,0.7-0.2,1.1
				c-0.2,0.7-0.5,1.3-0.9,1.9c-0.4,0.5-0.8,0.9-1.3,1.2c-0.7,0.4-1.5,0.7-2.3,0.9c-0.6,0.1-1.2,0.1-1.8,0.1
				c-0.9-0.1-1.7-0.3-2.5-0.7c-0.6-0.3-1.1-0.7-1.5-1.2c-0.5-0.5-0.9-1.2-1.1-1.9c-0.1-0.3-0.2-0.6-0.2-0.9c0-0.3-0.1-0.5-0.1-0.8
				c0-2.3,0-4.6,0-6.9v-0.3c0.1,0,0.1,0,0.2,0c0.4,0,0.7,0,1.1,0c0.1,0,0.3,0,0.4,0.1c0.3,0.1,0.6,0.3,0.9,0.5
				c0.3,0.3,0.6,0.7,0.7,1.2c0,0.1,0,0.2,0,0.3c0,1.6,0,3.1,0,4.7c0,0.2,0,0.3,0,0.5c0,0.2,0,0.4,0.1,0.6c0.1,0.5,0.3,0.9,0.6,1.3
				c0.4,0.5,0.9,0.8,1.5,0.9c0.5,0.1,1.1,0.1,1.6-0.1c0.5-0.2,0.9-0.5,1.2-1c0.2-0.4,0.4-0.8,0.4-1.3c0-0.2,0-0.4,0-0.6
				c0-2.2,0-4.4,0-6.5C83.5,74.8,83.5,74.7,83.5,74.6z"/>
			<polygon points="11.3,90.4 10.2,90.4 10.2,89.7 13,89.7 13,90.4 12,90.4 12,93 11.3,93 			"/>
			<polygon points="15.5,89.7 16.2,89.7 16.2,91 17.6,91 17.6,89.7 18.3,89.7 18.3,93 17.6,93 17.6,91.7 16.2,91.7 16.2,93 15.5,93 
							"/>
			<polygon points="21,89.7 23.6,89.7 23.6,90.3 21.8,90.3 21.8,91 23.3,91 23.3,91.7 21.8,91.7 21.8,92.4 23.6,92.4 23.6,93 21,93 
							"/>
			<polygon points="29.5,89.7 30.2,89.7 30.2,92.4 31.9,92.4 31.9,93 29.5,93 			"/>
			<polygon points="34.4,89.7 35.1,89.7 35.1,93 34.4,93 			"/>
			<polygon points="37.9,89.7 40.5,89.7 40.5,90.3 38.6,90.3 38.6,91.1 40.2,91.1 40.2,91.7 38.6,91.7 38.6,93 37.9,93 			"/>
			<polygon points="42.9,89.7 45.5,89.7 45.5,90.3 43.7,90.3 43.7,91 45.3,91 45.3,91.7 43.7,91.7 43.7,92.4 45.5,92.4 45.5,93 
				42.9,93 			"/>
			<path d="M49.3,93.1c-0.3,0-0.5,0-0.8-0.1c-0.2-0.1-0.5-0.2-0.7-0.4l0.4-0.5c0.1,0.1,0.3,0.2,0.5,0.3c0.2,0.1,0.3,0.1,0.5,0.1
				c0.1,0,0.2,0,0.4-0.1c0.1,0,0.1-0.1,0.1-0.2v0c0,0,0-0.1,0-0.1c0,0-0.1-0.1-0.1-0.1c-0.1,0-0.1-0.1-0.2-0.1
				c-0.1,0-0.2-0.1-0.3-0.1c-0.2,0-0.3-0.1-0.5-0.1c-0.1,0-0.2-0.1-0.3-0.2c-0.1-0.1-0.2-0.2-0.2-0.3C48,90.9,48,90.8,48,90.7v0
				c0-0.1,0-0.3,0.1-0.4c0.1-0.1,0.1-0.2,0.2-0.3c0.1-0.1,0.2-0.2,0.4-0.2c0.2,0,0.3-0.1,0.5-0.1c0.2,0,0.5,0,0.7,0.1
				c0.2,0.1,0.4,0.2,0.6,0.3L50,90.6c-0.1-0.1-0.3-0.2-0.4-0.2c-0.1-0.1-0.3-0.1-0.4-0.1c-0.1,0-0.2,0-0.3,0.1
				c-0.1,0-0.1,0.1-0.1,0.2v0c0,0,0,0.1,0,0.1c0,0,0.1,0.1,0.1,0.1c0.1,0,0.1,0.1,0.2,0.1c0.1,0,0.2,0.1,0.4,0.1
				c0.2,0,0.3,0.1,0.5,0.2c0.1,0,0.2,0.1,0.3,0.2c0.1,0.1,0.2,0.2,0.2,0.3c0,0.1,0.1,0.2,0.1,0.4v0c0,0.2,0,0.3-0.1,0.4
				c-0.1,0.1-0.1,0.2-0.3,0.3C50,92.9,49.9,93,49.8,93C49.6,93.1,49.4,93.1,49.3,93.1z"/>
			<polygon points="53.8,90.4 52.8,90.4 52.8,89.7 55.6,89.7 55.6,90.4 54.6,90.4 54.6,93 53.8,93 			"/>
			<polygon points="59,91.7 57.7,89.7 58.6,89.7 59.4,91 60.2,89.7 61,89.7 59.7,91.7 59.7,93 59,93 			"/>
			<polygon points="63.4,89.7 64.1,89.7 64.1,92.4 65.8,92.4 65.8,93 63.4,93 			"/>
			<polygon points="68.3,89.7 70.8,89.7 70.8,90.3 69,90.3 69,91 70.6,91 70.6,91.7 69,91.7 69,92.4 70.8,92.4 70.8,93 68.3,93 			
				"/>
			<path d="M77.9,89.7h0.7L80,93h-0.8l-0.3-0.8h-1.4L77.2,93h-0.8L77.9,89.7z M78.6,91.6l-0.4-1.1l-0.4,1.1H78.6z"/>
			<path d="M82.4,89.7h1.4c0.2,0,0.4,0,0.5,0.1c0.1,0.1,0.3,0.1,0.4,0.2c0.1,0.1,0.2,0.2,0.3,0.4c0.1,0.1,0.1,0.3,0.1,0.5v0
				c0,0.2,0,0.4-0.1,0.5c-0.1,0.1-0.2,0.3-0.3,0.4c-0.1,0.1-0.3,0.2-0.4,0.2C84.1,92,83.9,92,83.7,92h-0.6v1h-0.7V89.7z M83.7,91.4
				c0.2,0,0.3,0,0.4-0.1c0.1-0.1,0.2-0.2,0.2-0.4v0c0-0.1,0-0.3-0.2-0.4c-0.1-0.1-0.3-0.1-0.4-0.1h-0.6v1L83.7,91.4z"/>
			<path d="M87.5,89.7h1.4c0.2,0,0.4,0,0.5,0.1c0.1,0.1,0.3,0.1,0.4,0.2c0.1,0.1,0.2,0.2,0.3,0.4c0.1,0.1,0.1,0.3,0.1,0.5v0
				c0,0.2,0,0.4-0.1,0.5c-0.1,0.1-0.2,0.3-0.3,0.4c-0.1,0.1-0.3,0.2-0.4,0.2C89.2,92,89,92,88.8,92h-0.6v1h-0.7L87.5,89.7z
				 M88.8,91.4c0.2,0,0.3,0,0.4-0.1c0.1-0.1,0.2-0.2,0.2-0.4v0c0-0.1-0.1-0.3-0.2-0.4c-0.1-0.1-0.3-0.1-0.4-0.1h-0.6v1H88.8z"/>
		</g>
	</g>
</g>
<g>
	<g>
		<g>
			<rect class="st0" width="95" height="34"/>
		</g>
	</g>
	<g>
		<path class="st4" d="M16.9,24.4c-0.7,0-1.4,0-2.1,0c-0.8,0.1-1.2-0.1-1.2-1.1c-0.8,0.5-1.4,1-2.3,1.2C9.2,25,7,24.2,6,22.2
			c-1.7-3.1-1.7-6.3,0-9.4c1.4-2.5,4.6-3.2,7-1.6c0.1,0.1,0.2,0.1,0.5,0.3c0-2.1,0-4.1,0-6.1c0.8,0,1.7,0,2.5,0
			c0.7,0,0.9,0.2,0.9,0.9C16.8,12.3,16.9,18.3,16.9,24.4z M13.4,17.6c0-0.6,0-1.3,0-1.9c0-1.1-0.4-1.7-1.4-2
			c-1.1-0.4-2.1-0.1-2.7,0.8c-1,1.3-1,4.9,0,6.2c0.6,0.8,1.7,1.1,2.7,0.8c0.9-0.3,1.4-1,1.4-2C13.4,18.8,13.4,18.2,13.4,17.6z"/>
		<path class="st5" d="M47.4,18.8c-1.3,0-2.6,0-3.9,0c-0.7,0-0.7,0.2-0.5,0.7c0.5,1.3,1.9,2.1,3.4,2.1c1.1-0.1,2.2-0.4,3-1.2
			c0.3-0.4,0.5-0.3,0.8,0c0.2,0.3,0.5,0.5,0.7,0.8c0.9,1,1,1.1-0.1,1.9c-2.5,1.9-5.3,2.1-8.1,0.9c-2.6-1.2-3.8-3.4-3.7-6.2
			c0-3.7,1.8-6.3,4.9-7.1c4.1-1.1,7.5,1.3,8,5.5c0.3,2.7,0.3,2.7-2.3,2.7C48.8,18.8,48.1,18.8,47.4,18.8z M45.5,16.1
			c0.7,0,1.4,0,2.1,0c0.6,0,0.7-0.2,0.6-0.7c-0.3-1.2-1.3-1.9-2.6-1.9c-1.2,0-2.3,1-2.5,2.2c-0.1,0.4,0.2,0.4,0.5,0.4
			C44.2,16.1,44.8,16.1,45.5,16.1z"/>
		<path class="st5" d="M66.1,17.6c0,2.7-0.8,5.1-3.4,6.4c-4.5,2.3-9.3-0.6-9.6-5.6c0-0.7,0-1.4,0.1-2.2c0.5-3.7,3.1-6,6.7-5.8
			c3.7,0.2,6.1,2.6,6.3,6.5C66.1,17.1,66.1,17.3,66.1,17.6z M62.4,17.5c0-0.8-0.1-1.7-0.5-2.6c-0.4-0.9-1.1-1.4-2.2-1.5
			c-1.1,0-1.9,0.4-2.3,1.4c-0.7,1.7-0.7,3.5,0,5.2c0.4,1,1.2,1.4,2.3,1.4c1,0,1.8-0.5,2.2-1.5C62.3,19.3,62.4,18.5,62.4,17.5z"/>
		<path class="st5" d="M76.7,10.7c0.8,0,1.6,0,2.4,0c0.4,0,0.5,0.2,0.5,0.5c0,4.2,0,8.5,0,12.7c0,0.5-0.2,0.6-0.6,0.5
			c-0.4,0-0.9,0-1.4,0c-1.4,0-1.4,0-1.7-1.4c-0.3,0-0.4,0.2-0.5,0.4c-2.7,2.4-6.7,1.3-7.7-2.2c-0.2-0.7-0.3-1.3-0.3-2
			c0-2.6,0-5.2,0-7.8c0-0.6,0.2-0.8,0.8-0.7c0.8,0,1.6,0,2.3,0c0.6,0,0.7,0.2,0.7,0.7c0,2.3,0,4.6,0,6.9c0,0.2,0,0.4,0,0.6
			c0.1,1,0,2.1,1.2,2.5c1.3,0.4,2.5-0.1,3.4-1.2c0.5-0.1,0.3-0.5,0.3-0.8c0-2.4,0-4.7,0-7.1C76.2,11.7,76.2,11.1,76.7,10.7z"/>
		<path class="st6" d="M28.9,24.3c-1,0-2,0-3,0.1c-0.4,0-0.5-0.1-0.5-0.5c0-4.2,0-8.5,0-12.7c0-0.4,0.1-0.6,0.6-0.6
			c0.4,0,0.7,0,1.1,0c0.5,0,1.1-0.1,1.6,0.1c0.5,0.2,0.1,0.9,0.5,1.4c0.9-0.9,2-1.5,3.3-1.7c2.9-0.3,4.9,1.2,5.2,4.1
			c0.3,3.1,0.1,6.3,0.1,9.5c0,0.4-0.2,0.4-0.5,0.4c-1,0-2,0-3,0c0-2.8,0-5.5,0-8.3c0-0.3,0.2-0.8-0.3-0.9c-0.3-0.9-0.8-1.5-1.8-1.6
			c-1.2-0.1-2.3,0.1-3,1.3c-0.5,0.2-0.3,0.5-0.3,0.8C28.9,18.5,28.9,21.4,28.9,24.3z"/>
		<path class="st7" d="M86.3,10.6c1.2,0,2.4,0,3.6,0c0,0.1,0,0.3,0,0.4c0,2.1,0,2.1-2,2.1c-0.4,0-0.7,0-1.1,0c-0.3,0-0.5,0-0.5,0.3
			c0,0,0,0,0,0c-0.3,0.1-0.3,0.3-0.3,0.5c0,1.8,0,3.6,0,5.4c0,0.3,0,0.5,0.3,0.5c0.6,1.3,1,1.6,2.9,1.4c1-0.1,1.2,0.2,1.1,1.1
			c-0.1,2,0,2-2.1,2.1c-0.6,0-1.1,0-1.7,0c-2.5-0.3-3.9-1.9-4-4.4c-0.1-1.9,0-3.8-0.1-5.8c0-0.3,0.1-0.7-0.1-1
			c-0.4-0.7-1.1-0.2-1.7-0.3c0-0.7,0-1.4,0-2.2c0.1-0.1,0.2-0.2,0.2-0.3c0.3,0,0.6,0,0.9,0c0.4,0.3,0.6,0.1,0.7-0.3c0-1.7,0-3.3,0-5
			c0.9,0,1.8,0,2.7,0c0.6,0,0.8,0.2,0.8,0.8c0,1.2,0,2.5,0,3.7C86,10.1,85.8,10.6,86.3,10.6z"/>
		<path class="st8" d="M23,24.3c-1.1,0.1-2.2,0.1-3.2,0c0-4.5,0-9.1,0-13.6c1.1,0.1,2.2-0.1,3.2,0.1C23,15.3,23,19.8,23,24.3z"/>
		<path class="st9" d="M21.4,5c1.3,0,2.2,0.8,2.1,2c0,1.2-0.9,2-2.2,2c-1.2,0-2.1-0.9-2.1-2C19.2,5.8,20.1,5,21.4,5z"/>
		<path class="st10" d="M58.9,26.5c0.6,0.2,1.1,0.2,1.6-0.1c1.1-0.5,2.2-0.9,3.2-1.3c0.4-0.2,0.5-0.1,0.5,0.3c0,1,0,2.1,0,3.1
			c0,0.5-0.2,0.5-0.5,0.3c-0.9-0.4-1.8-0.7-2.6-1.2c-0.9-0.6-1.8-0.8-2.8-0.1C58.4,27.2,59,27,58.9,26.5z"/>
		<path class="st9" d="M58.9,26.5c0.2,0.5-0.5,0.6-0.5,1c-0.9,0.5-1.9,0.9-2.8,1.4c-0.3,0.2-0.5,0.2-0.5-0.3c0-1.1,0-2.2,0-3.2
			c0-0.5,0.2-0.4,0.6-0.3C56.7,25.6,57.8,26.1,58.9,26.5z"/>
		<path class="st11" d="M16.9,24.4c0-6,0-12.1,0-18.1c0-0.7-0.2-0.9-0.9-0.9c-0.8,0.1-1.7,0-2.5,0c0-0.5,0.4-0.3,0.6-0.3
			c0.8,0,1.7,0,2.5,0c0.6,0,0.7,0.2,0.7,0.7c0,6,0,12,0,17.9C17.2,24,17.5,24.4,16.9,24.4z"/>
		<path class="st12" d="M23,24.3c0-4.5,0-9,0-13.5c0.1,0,0.1,0,0.2,0c0.1,0.2,0.1,0.4,0.1,0.6c0,4.2,0,8.5,0,12.7
			c0,0.1-0.1,0.1-0.1,0.2C23.1,24.3,23.1,24.3,23,24.3z"/>
		<path class="st12" d="M19.8,10.8c0,4.5,0,9.1,0,13.6c-0.3,0-0.3-0.3-0.3-0.5c0-4.4,0-8.8,0-13.2C19.6,10.7,19.7,10.7,19.8,10.8z"
			/>
		<path class="st12" d="M28.9,24.3c0-2.9,0-5.8,0-8.7c0-0.3-0.2-0.7,0.3-0.8c0,3.1,0,6.3,0,9.4c0,0-0.1,0.1-0.1,0.1
			C29.1,24.3,29,24.3,28.9,24.3z"/>
		<path class="st12" d="M76.7,10.7c-0.6,0.4-0.5,1-0.5,1.6c0,2.4,0,4.7,0,7.1c0,0.3,0.2,0.7-0.3,0.8c0-3.1,0-6.2,0-9.4
			c0.2,0,0.3,0,0.5-0.2C76.5,10.7,76.6,10.7,76.7,10.7z"/>
		<path class="st11" d="M86.3,10.6c-0.5-0.1-0.4-0.5-0.4-0.8c0-1.2,0-2.5,0-3.7c0-0.6-0.2-0.8-0.8-0.8c-0.9,0-1.8,0-2.7,0
			C82.4,5,82.7,5.1,83,5.1c0.9,0,1.7,0,2.6,0c0.6,0,0.7,0.2,0.7,0.7C86.3,7.4,86.3,9,86.3,10.6z"/>
		<path class="st12" d="M34,15.1c0.5,0.1,0.3,0.6,0.3,0.9c0,2.8,0,5.5,0,8.3c-0.1,0-0.1,0-0.2,0c0,0-0.1-0.1-0.1-0.1
			C34.1,21.2,34,18.2,34,15.1z"/>
		<path class="st11" d="M86.3,20c-0.3-0.1-0.3-0.3-0.3-0.5c0-1.8,0-3.6,0-5.4c0-0.3,0-0.5,0.3-0.5C86.3,15.7,86.3,17.8,86.3,20z"/>
		<path class="st11" d="M86.3,13.5c0.1-0.3,0.3-0.3,0.5-0.3c0.4,0,0.7,0,1.1,0c2,0,2,0,2-2.1c0-0.1,0-0.3,0-0.4c0.2,0,0.4,0,0.4,0.2
			c0,0.7,0,1.5,0,2.2c0,0.4-0.3,0.4-0.6,0.4C88.6,13.5,87.4,13.5,86.3,13.5z"/>
		<path class="st13" d="M19.8,10.8c-0.1,0-0.2,0-0.3,0c1.2-0.2,2.5-0.4,3.7,0.1c-0.1,0-0.1,0-0.2,0C21.9,10.6,20.8,10.8,19.8,10.8z"
			/>
		<path class="st11" d="M80.7,13.2c0.5,0.2,1.2-0.3,1.7,0.3c-0.4,0-0.9,0-1.3,0C80.8,13.5,80.6,13.5,80.7,13.2z"/>
		<path class="st11" d="M82.5,10.4c-0.1,0.4-0.3,0.5-0.7,0.3C82,10.6,82.3,10.7,82.5,10.4z"/>
		<path class="st11" d="M80.9,10.7c0,0.2-0.1,0.3-0.2,0.3C80.6,10.8,80.6,10.6,80.9,10.7z"/>
		<path class="st5" d="M76.4,10.7c-0.1,0.1-0.3,0.2-0.5,0.2C76,10.5,76.2,10.6,76.4,10.7z"/>
		<path class="st13" d="M23.2,24.3c0-0.1,0.1-0.1,0.1-0.2C23.4,24.3,23.3,24.3,23.2,24.3z"/>
		<path class="st6" d="M29.1,24.3c0,0,0.1-0.1,0.1-0.1C29.3,24.3,29.2,24.3,29.1,24.3z"/>
		<path class="st6" d="M34.1,24.2c0,0,0.1,0.1,0.1,0.1C34.1,24.3,34,24.3,34.1,24.2z"/>
	</g>
</g>
</svg>
