<?xml version="1.0" encoding="utf-8"?>
<!-- Generator: Adobe Illustrator 23.0.2, SVG Export Plug-In . SVG Version: 6.00 Build 0)  -->
<svg version="1.1" id="Layer_1" xmlns="http://www.w3.org/2000/svg" xmlns:xlink="http://www.w3.org/1999/xlink" x="0px" y="0px"
	 viewBox="0 0 95 34" style="enable-background:new 0 0 95 34;" xml:space="preserve">
<style type="text/css">
	.st0{fill:#FFFFFF;stroke:#D8D8D8;stroke-miterlimit:10;}
	.st1{fill:#FF4612;}
	.st2{fill:#131718;}
	.st3{fill:#EA5753;}
</style>
<g>
	<rect x="138.4" class="st0" width="95" height="34"/>
</g>
<g>
	<rect class="st0" width="95" height="34"/>
	<g>
		<path class="st1" d="M9.9,16.8c0,2.7-2.3,3.3-5.5,3.2c0.1,1.3,0.7,2.3,2.3,2.3c0.8,0,1.7-0.3,2.4-0.8l0.7,1.6c-1,0.6-2.1,1-3.3,1
			c-3.2,0-4.4-2.1-4.4-4.7c0-2.9,1.6-5.2,4.6-5.2C8.7,14.1,9.9,15,9.9,16.8 M6.7,15.8c-1.5,0-2.1,1.4-2.3,2.6c0.3,0,0.5,0,0.8,0
			c1.6,0,2.7-0.4,2.7-1.5C7.8,16.1,7.4,15.8,6.7,15.8"/>
		<path class="st1" d="M19.4,21.9c0,0.4,0.1,0.5,0.4,0.5l0.5,0v1.4h-2.8l-0.1-1h-0.1c-0.6,0.8-1.6,1.3-2.6,1.3c-2.8,0-3.7-2-3.7-4.6
			c0-3.3,1.6-5.4,4.9-5.4c1.1,0,2.2,0.3,3.3,0.7V21.9z M17.2,16.1c-0.4-0.2-0.9-0.3-1.4-0.2c-1.9,0-2.4,1.7-2.4,3.6
			c0,1.5,0.4,2.9,1.9,2.9c1,0.1,1.8-0.6,1.9-1.6c0-0.1,0-0.1,0-0.2L17.2,16.1z"/>
		<path class="st1" d="M29.1,14.4v1.3l-5,6.6h3.5c0.4,0,0.6-0.5,0.6-0.5l0.9-0.7l-0.4,2.8h-7.3v-1.4l5-6.5H24
			c-0.4,0-0.5,0.1-0.5,0.5v0.9l-1.8-0.1v-2.8H29.1z"/>
		<path class="st1" d="M48.5,21.9c0,0.4,0,0.5,0.4,0.6l0.6,0.1v1.4h-2.8l-0.1-1h-0.1C46,23.7,45,24.1,44,24.1
			c-2.9,0-3.7-2.2-3.7-4.7c0-3.1,1.6-5.3,4.4-5.3c0.6,0,1.1,0.1,1.6,0.3v-1.9c0-0.4-0.1-0.5-0.5-0.5l-0.6-0.1v-1.4h3.2L48.5,21.9z
			 M46.3,20.7v-4.5c-0.5-0.2-1-0.3-1.5-0.3c-1.7,0-2.3,1.5-2.3,3.4c0,1.7,0.4,3.2,1.9,3.2C45.6,22.4,46.3,21.7,46.3,20.7"/>
		<path class="st1" d="M53.9,22.3l1,0.1v1.4h-4.2v-1.4l0.6-0.1c0.4-0.1,0.4-0.2,0.4-0.6v-5.4c0-0.4-0.1-0.5-0.5-0.6l-0.6,0v-1.4h3.3
			V22.3z M52.7,10.4c0.7-0.1,1.3,0.5,1.4,1.2c0,0,0,0.1,0,0.1c0,0.7-0.6,1.3-1.3,1.3c0,0-0.1,0-0.1,0c-0.7,0.1-1.4-0.4-1.5-1.1
			c-0.1-0.7,0.4-1.4,1.1-1.5C52.5,10.4,52.6,10.4,52.7,10.4"/>
		<path class="st1" d="M57.1,16.4c0-0.4-0.1-0.5-0.5-0.6l-0.6,0v-1.4h3.1v1.3l0,0c0.6-1,1.7-1.6,2.9-1.5c1.9,0,2.9,1,2.9,3.2v5
			l1,0.1v1.4h-4.1v-1.3l0.6-0.1c0.3-0.1,0.4-0.2,0.4-0.5v-4c0-1.1-0.3-1.9-1.5-1.9c-1.1,0-1.9,0.8-2,1.9c0,0,0,0.1,0,0.1v4.4
			l0.9,0.1v1.4H56v-1.4l0.6-0.1c0.4,0,0.4-0.2,0.4-0.5L57.1,16.4z"/>
		<path class="st1" d="M74.8,16.8c0,2.7-2.3,3.3-5.5,3.2c0.1,1.3,0.7,2.3,2.3,2.3c0.8,0,1.7-0.3,2.4-0.8l0.7,1.6c-1,0.6-2.1,1-3.3,1
			c-3.2,0-4.3-2.1-4.3-4.7c0-2.9,1.6-5.2,4.6-5.2C73.6,14.1,74.8,15,74.8,16.8 M71.6,15.8c-1.5,0-2.2,1.4-2.3,2.6c0.3,0,0.5,0,0.8,0
			c1.6,0,2.7-0.4,2.7-1.5C72.8,16.1,72.3,15.8,71.6,15.8"/>
		<path class="st1" d="M79.2,17.9v4.4l1.5,0.1v1.4H76v-1.4l0.6-0.1c0.4-0.1,0.5-0.2,0.5-0.6v-5.4c0-0.4-0.1-0.5-0.4-0.5l-0.6,0v-1.4
			H79v1.4l0,0c0.4-1.1,1.5-1.7,2.7-1.7c0.6,0,1.2,0.1,1.7,0.4v3.1l-1.9,0.1v-1.2c0-0.3,0-0.4-0.2-0.5C81.2,16,81,16,80.9,16
			C79.8,16,79.2,16.8,79.2,17.9"/>
		<path class="st1" d="M35.9,14.4v1.4l0.8,0.1l-1.8,5.4h-0.1l-1.6-5c-0.1-0.3,0-0.5,0.3-0.5l0.5,0v-1.4h-4v1.4l0.8,0.1l3,8.2
			l-0.3,0.8c-0.4,0.9-0.9,1.1-1.7,1.2c-0.6,0-1.2-0.1-1.7-0.4C29,25,28.7,23,30,22.6c0.4-0.2,0.9,0.5,1.4-0.2c0.3-0.4,0.1-1-0.3-1.2
			c0,0,0,0-0.1,0c-1.4-1-3.4,0.2-3.6,1.8c-0.3,1.7,0.3,3.5,1.7,4.3c0.8,0.5,1.8,0.8,2.8,0.7c1.8-0.1,3-1.5,3.9-4l2.8-7.6
			c0.2-0.4,0.2-0.5,0.6-0.5l0.4,0v-1.4H35.9z"/>
		<path class="st2" d="M88.6,6.4c-0.1-0.2-0.2-0.3-0.4-0.3l0,0c-0.2,0-0.3,0.1-0.4,0.3c-0.2,0.4-0.3,0.9-0.2,1.4
			c0.1,0.1,0.2,0.3,0.3,0.3c0,0,0.2,0,0.2,0.2L88,10.1h0.4l-0.1-1.9c0-0.1,0.2-0.2,0.2-0.2c0.2,0,0.3-0.2,0.3-0.3
			C88.9,7.3,88.9,6.8,88.6,6.4"/>
		<path class="st1" d="M91.6,7.9c0.1-0.2,0-0.4-0.1-0.5l0,0c-0.1-0.1-0.3-0.1-0.5-0.1c-0.5,0.1-0.9,0.4-1.1,0.9
			c-0.1,0.1-0.1,0.3,0,0.4c0.1,0.1,0.1,0.2,0,0.2l-1.4,1.2l0.1,0.1l0,0l0.1,0.1L90,9C90.1,9,90.2,9,90.3,9c0.1,0.1,0.3,0.1,0.4,0
			C91.1,8.8,91.4,8.4,91.6,7.9"/>
		<path class="st2" d="M92.6,11.1c0.2-0.1,0.3-0.2,0.3-0.4l0,0c0-0.2-0.1-0.3-0.3-0.4c-0.4-0.2-0.9-0.3-1.4-0.2
			c-0.1,0.1-0.3,0.2-0.3,0.3c0,0,0,0.2-0.2,0.2l-1.9-0.1v0.2l0,0v0.2l1.9-0.1c0.1,0,0.2,0.2,0.2,0.2c0,0.2,0.2,0.3,0.3,0.3
			C91.6,11.4,92.1,11.4,92.6,11.1"/>
		<path class="st2" d="M91,14.1c0.2,0.1,0.4,0,0.5-0.1l0,0c0.1-0.1,0.1-0.3,0.1-0.5c-0.1-0.5-0.4-0.9-0.9-1.1
			c-0.1-0.1-0.3-0.1-0.4,0c-0.1,0.1-0.2,0.1-0.2,0L88.8,11l-0.1,0.1l0,0l-0.2,0.2l1.4,1.2c0.1,0.1,0.1,0.2,0,0.2
			c-0.1,0.1-0.1,0.3,0,0.4C90.1,13.7,90.5,14,91,14.1"/>
		<path class="st2" d="M87.8,15.1c0.1,0.2,0.2,0.3,0.4,0.3l0,0c0.2,0,0.3-0.1,0.4-0.3c0.2-0.4,0.3-0.9,0.2-1.4
			c-0.1-0.1-0.2-0.3-0.3-0.3c0,0-0.2,0-0.2-0.2l0.1-1.9H88l0.1,1.9c0,0.1-0.2,0.2-0.2,0.2c-0.2,0-0.3,0.2-0.3,0.3
			C87.5,14.2,87.5,14.7,87.8,15.1"/>
		<path class="st2" d="M84.8,13.5c-0.1,0.2,0,0.4,0.1,0.5l0,0c0.1,0.1,0.3,0.1,0.5,0.1c0.5-0.1,0.9-0.4,1.1-0.9
			c0.1-0.1,0.1-0.3,0-0.4c-0.1-0.1-0.1-0.2,0-0.2l1.4-1.2l-0.1-0.1l0,0L87.6,11l-1.2,1.4c-0.1,0.1-0.2,0.1-0.2,0
			c-0.1-0.1-0.3-0.1-0.4,0C85.3,12.7,85,13.1,84.8,13.5"/>
		<path class="st2" d="M83.9,10.3c-0.2,0.1-0.3,0.2-0.3,0.4l0,0c0,0.2,0.1,0.3,0.3,0.4c0.4,0.2,0.9,0.3,1.4,0.2
			c0.1-0.1,0.3-0.2,0.3-0.3c0,0,0-0.2,0.2-0.2l1.9,0.1v-0.2l0,0v-0.2l-1.9,0.1c-0.1,0-0.2-0.2-0.2-0.2c0-0.2-0.2-0.3-0.3-0.3
			C84.8,10,84.3,10.1,83.9,10.3"/>
		<path class="st2" d="M85.4,7.4c-0.2-0.1-0.4,0-0.5,0.1l0,0c-0.1,0.1-0.1,0.3-0.1,0.5c0.1,0.5,0.4,0.9,0.9,1.1
			c0.1,0.1,0.3,0.1,0.4,0c0.1-0.1,0.2-0.1,0.2,0l1.3,1.4l0.1-0.1l0,0l0.1-0.1l-1.4-1.2c-0.1-0.1-0.1-0.2,0-0.2
			c0.1-0.1,0.1-0.3,0-0.4C86.3,7.8,85.9,7.5,85.4,7.4"/>
	</g>
</g>
<g>
	<g>
		<rect x="146" y="64.3" class="st0" width="95" height="34"/>
	</g>
	<g id="Page-1_1_">
		<g id="nearbuy_red_1_">
			<path id="Shape_1_" class="st3" d="M189.5,76.1c0,0.3,0.1,8.4,0,11.1c0,0.1,0,0.1,0,0.2c-0.1,0-0.1,0-0.2,0c-0.9,0-1.9,0-2.8,0
				c0,0-0.1,0-0.1,0c0-0.1,0-0.1,0-0.2c0-0.3,0-0.5,0-0.8v-0.3c0,0-0.1,0-0.1,0.1c-0.3,0.3-0.7,0.5-1.1,0.7c-0.5,0.2-1,0.4-1.5,0.5
				c-0.5,0.1-0.9,0-1.4,0c-0.6-0.1-1.2-0.2-1.7-0.4c-0.6-0.2-1.2-0.6-1.7-1c-0.4-0.4-0.8-0.8-1.1-1.3c-0.7-1.1-1.1-2.3-1.1-3.6
				c0-1.5,0.4-2.9,1.4-4.1c0.8-1,1.8-1.7,3-2.1c0.4-0.1,0.7-0.2,1.1-0.2c0.2,0,0.5,0,0.7-0.1c0.1,0,0.2,0,0.2,0c0.1,0,0.1,0,0.2,0
				c0.5,0,1,0.1,1.5,0.3c0.6,0.2,1.1,0.5,1.6,1c0.4,0.3,0.9,0.6,1.4,0.6c0.1,0,0.3,0,0.5,0c0.4-0.1,0.9-0.1,1.2-0.4
				C189.4,76.1,189.4,76.1,189.5,76.1L189.5,76.1z M179.8,81.1c0,0.2,0,0.3,0,0.5c0.1,0.4,0.2,0.7,0.4,1.1c0.2,0.3,0.4,0.6,0.6,0.8
				c0.3,0.3,0.7,0.5,1,0.7c0.4,0.2,0.8,0.2,1.2,0.2c0.2,0,0.4,0,0.6,0c0.6-0.1,1.2-0.3,1.7-0.8c0.4-0.3,0.7-0.8,0.9-1.2
				c0.1-0.3,0.2-0.7,0.2-1c0-0.2,0-0.5,0-0.7c-0.1-0.6-0.4-1.2-0.8-1.6c-0.3-0.3-0.6-0.6-1-0.7c-0.5-0.2-1-0.4-1.5-0.4
				c-0.3,0-0.5,0-0.8,0.1c-0.8,0.2-1.5,0.7-1.9,1.3C180,79.8,179.8,80.4,179.8,81.1z"/>
			<path class="st3" d="M174.9,81.8c0,0-0.1,0-0.1,0c-0.1,0-0.2,0-0.3,0h-9c-0.1,0-0.2,0-0.3,0c0,0.1,0,0.3,0.1,0.4
				c0.5,1.2,1.4,1.9,2.6,2.3c0.3,0.1,0.5,0.1,0.8,0.1c0.1,0,0.2,0,0.3,0c0.4,0,0.8-0.1,1.2-0.2c0.2-0.1,0.4-0.1,0.6-0.2
				c0.3-0.1,0.6-0.1,1,0c0.4,0.1,0.7,0.3,1,0.5c0.1,0.1,0.2,0.2,0.2,0.3c0.1,0.2,0.3,0.4,0.4,0.5c0,0,0,0.1,0,0.1
				c-0.1,0.1-0.3,0.3-0.5,0.4c-0.7,0.5-1.5,0.8-2.3,1c-0.3,0.1-0.6,0.1-0.9,0.2c-0.4,0-0.8,0.1-1.2,0c0,0-0.1,0-0.1,0
				c-0.4,0-0.7-0.1-1.1-0.1c-0.4-0.1-0.9-0.2-1.3-0.4c-0.7-0.3-1.4-0.7-2-1.2c-0.7-0.6-1.2-1.3-1.6-2c-0.2-0.5-0.4-1-0.5-1.6
				c-0.2-1.2-0.1-2.5,0.4-3.6c0.2-0.5,0.5-0.9,0.8-1.3c0.3-0.4,0.6-0.7,0.9-1c0.4-0.3,0.8-0.6,1.3-0.8c0.5-0.2,1-0.4,1.6-0.5
				c0.2-0.1,0.5-0.1,0.7-0.1c0.5-0.1,0.9-0.1,1.4,0c1.2,0.1,2.4,0.5,3.4,1.2c0.7,0.5,1.2,1.2,1.6,1.9c0.3,0.6,0.5,1.2,0.6,1.8
				c0,0.2,0,0.4,0.1,0.6c0.1,0.5,0,1,0,1.5C174.9,81.7,174.9,81.8,174.9,81.8L174.9,81.8z M165.5,79.2c0.1,0,0.1,0,0.2,0
				c1.7,0,5.7,0,5.9,0c0-0.1,0-0.1-0.1-0.2c-0.2-0.4-0.5-0.8-0.8-1.1c-0.2-0.2-0.5-0.3-0.8-0.5c-0.4-0.2-0.8-0.2-1.2-0.3
				c-0.1,0-0.2,0-0.2,0c-0.1,0-0.1,0-0.2,0c-0.5,0-0.9,0.2-1.3,0.4c-0.5,0.3-1,0.7-1.3,1.3C165.5,79,165.5,79.1,165.5,79.2z"/>
			<path id="Path_1_" class="st3" d="M148.6,87.3c0-0.1,0-0.2,0-0.3v-7c0-0.1,0-0.3,0-0.4c0,0,0-0.1,0-0.1c0-0.9,0.5-2,1-2.7
				c0.6-0.7,1.3-1.3,2.1-1.7c0.5-0.2,1-0.4,1.5-0.5c0.4-0.1,0.9-0.1,1.3-0.1c0.1,0,0.1,0,0.2,0c0.6,0,1.1,0.1,1.7,0.2
				c0.8,0.2,1.5,0.6,2.1,1.1c1,0.7,1.6,1.8,1.9,3c0.1,0.3,0.1,0.7,0.1,1c0,1.7,0,3.4,0,5.2c0,0.5-0.2,1-0.5,1.4
				c-0.3,0.4-0.7,0.7-1.2,0.8c-0.2,0.1-0.4,0.1-0.6,0.1c-0.2,0-0.4,0-0.6,0c-0.1,0-0.1,0-0.2,0c0-0.1,0-0.1,0-0.2c0-0.1,0-0.2,0-0.2
				c0-2.2,0-4.4,0-6.6c0-0.8-0.3-1.5-0.7-2.1c-0.2-0.3-0.5-0.5-0.8-0.6c-0.3-0.1-0.7-0.2-1-0.2c-0.3,0-0.6,0-0.8,0.1
				c-0.4,0.1-0.8,0.4-1.1,0.7c-0.4,0.4-0.6,0.9-0.7,1.4c-0.1,0.4-0.1,0.8-0.1,1.2c0,1.5,0,2.9,0,4.4c0,0.5-0.2,0.9-0.4,1.2
				c-0.3,0.4-0.7,0.7-1.2,0.8c-0.2,0.1-0.4,0.1-0.6,0.1c-0.2,0-0.5,0-0.7,0C148.8,87.3,148.7,87.3,148.6,87.3z"/>
			<path class="st3" d="M191.3,87.3V87c0-2.2,0-4.3,0-6.5c0-0.1,0-0.3,0-0.4c0-0.1,0-0.1,0-0.2c0.1-0.3,0.1-0.7,0.1-1.1
				c0.2-0.7,0.5-1.4,0.9-2c0.4-0.5,0.8-0.9,1.3-1.2c0.6-0.4,1.3-0.7,2-0.8c0.3-0.1,0.5-0.1,0.8-0.1h0h0.8c0,0,0,0.1,0,0.2
				c0,0.9,0,1.7,0,2.6c0,0.1,0,0.1,0,0.2c-0.1,0-0.1,0-0.2,0c-0.5,0-1,0.1-1.4,0.4c-0.5,0.3-0.8,0.8-1,1.4c-0.1,0.2-0.1,0.4-0.1,0.6
				c0,0.2,0,0.5,0,0.7c0,1.4,0,2.8,0,4.2c0,0.4-0.1,0.8-0.3,1.2c-0.3,0.5-0.8,0.9-1.4,1c-0.2,0.1-0.4,0.1-0.6,0.1
				c-0.2,0-0.5,0-0.7,0C191.5,87.3,191.4,87.3,191.3,87.3z"/>
			<path class="st3" d="M198.8,69.6c0.1,0,0.2,0,0.2,0c0.4,0,0.8,0,1.2,0c0.3,0,0.7,0.2,0.9,0.4c0.5,0.3,0.8,0.8,0.9,1.4
				c0,0.1,0,0.3,0,0.5c0,1.2,0,2.4,0,3.6v0.3c0,0,0.1,0,0.1,0c0.6-0.5,1.3-0.9,2.1-1.1c0.3-0.1,0.7-0.1,1.1-0.1c0.1,0,0.2,0,0.3,0
				c1.3,0,2.6,0.5,3.6,1.3c0.2,0.2,0.5,0.4,0.7,0.6c0.3,0.3,0.5,0.7,0.7,1c0.4,0.6,0.6,1.3,0.8,1.9c0.1,0.3,0.1,0.6,0.1,0.8
				c0,0.1,0,0.1,0,0.2c0,0.2,0,0.4,0,0.6c0,0.6-0.1,1.2-0.3,1.7c-0.2,0.8-0.6,1.5-1.1,2.1c-0.2,0.3-0.5,0.6-0.8,0.9
				c-0.4,0.3-0.8,0.6-1.3,0.8c-0.6,0.3-1.2,0.5-1.8,0.6c-0.5,0.1-1.1,0.1-1.6,0.1c-0.7,0-1.4-0.2-2-0.5c-0.4-0.2-0.9-0.5-1.3-0.8
				c-0.4-0.3-0.7-0.6-1.1-1c-0.3-0.4-0.6-0.9-0.9-1.3c-0.3-0.5-0.4-1-0.5-1.6c0-0.3-0.1-0.5-0.1-0.8c-0.1-0.5,0-1,0-1.4
				c0-3.3,0-6.6,0-9.9C198.8,69.9,198.8,69.8,198.8,69.6z M205.3,84.4c1,0,1.8-0.4,2.3-0.9c0.6-0.6,1-1.4,1-2.3c0-1.5-1-2.8-2.4-3.2
				c-1.4-0.4-2.9,0.2-3.7,1.5c-0.7,1.3-0.5,2.9,0.5,4C203.6,84,204.3,84.4,205.3,84.4L205.3,84.4z"/>
			<path class="st3" d="M226.7,74.6h0.3c0.3,0,0.5,0,0.8,0c0.7,0,1.3,0.3,1.7,0.9c0.2,0.3,0.4,0.6,0.4,1c0,0.1,0,0.2,0,0.2
				c0,1.5,0,3,0,4.5c0,0.2,0,0.4,0,0.5c0,0.2,0,0.4,0.1,0.5c0.1,0.5,0.3,1,0.6,1.4c0.3,0.4,0.8,0.7,1.4,0.8c0.5,0.1,1.1,0.1,1.6-0.1
				c0.4-0.1,0.7-0.3,1-0.6c0.3-0.3,0.5-0.7,0.7-1.2c0.1-0.4,0.2-0.7,0.2-1.1c0-2.2,0-4.4,0-6.6c0-0.1,0-0.2,0-0.3c0.1,0,0.1,0,0.2,0
				c0.2,0,0.5,0,0.8,0c0.4,0,0.8,0.1,1.2,0.3c0.5,0.4,0.9,0.9,1,1.6c0,0.2,0,0.3,0,0.5c0,3.2,0,6.4,0,9.6c0,0.9-0.2,1.8-0.5,2.6
				c-0.2,0.6-0.5,1.1-0.9,1.6c-0.6,0.7-1.2,1.2-2,1.6c-0.6,0.3-1.2,0.5-1.9,0.6c-0.4,0.1-0.9,0.1-1.3,0.1c-0.1,0-0.1,0-0.2,0
				c0-0.1,0-0.1,0-0.2c0-0.4,0-0.8,0-1.2c0-0.4,0.2-0.8,0.5-1.1c0.2-0.3,0.5-0.4,0.8-0.6c0.3-0.1,0.7-0.3,1-0.5
				c0.7-0.5,1.1-1.2,1.3-2c0.1-0.4,0.1-0.7,0.1-1.1c0,0,0-0.1,0-0.1c0,0-0.1,0-0.1,0c-0.4,0.4-0.8,0.7-1.3,0.8
				c-0.3,0.1-0.6,0.2-0.9,0.2c-0.1,0-0.3,0-0.4,0c-1,0-1.9-0.2-2.8-0.6c-0.6-0.3-1.2-0.7-1.7-1.3c-0.6-0.7-1-1.5-1.2-2.3
				c-0.1-0.3-0.1-0.5-0.1-0.8c-0.1-0.5,0-0.9,0-1.4c0-2,0-3.9,0-5.9C226.6,74.8,226.6,74.7,226.7,74.6L226.7,74.6z"/>
			<path class="st3" d="M221.9,74.6h1c0.6,0,1.1,0.2,1.5,0.6c0.4,0.3,0.6,0.8,0.7,1.3c0,0.1,0,0.1,0,0.2v5.5c0,0.4-0.1,0.7-0.2,1.1
				c-0.2,0.7-0.5,1.3-0.9,1.9c-0.4,0.5-0.8,0.9-1.3,1.2c-0.7,0.4-1.5,0.7-2.3,0.9c-0.6,0.1-1.2,0.1-1.8,0.1
				c-0.9-0.1-1.7-0.3-2.5-0.7c-0.6-0.3-1.1-0.7-1.5-1.2c-0.5-0.5-0.9-1.2-1.1-1.9c-0.1-0.3-0.2-0.6-0.2-0.9c0-0.3-0.1-0.5-0.1-0.8
				c0-2.3,0-4.6,0-6.9v-0.3c0.1,0,0.1,0,0.2,0c0.4,0,0.7,0,1.1,0c0.1,0,0.3,0,0.4,0.1c0.3,0.1,0.6,0.3,0.9,0.5
				c0.3,0.3,0.6,0.7,0.7,1.2c0,0.1,0,0.2,0,0.3c0,1.6,0,3.1,0,4.7c0,0.2,0,0.3,0,0.5c0,0.2,0,0.4,0.1,0.6c0.1,0.5,0.3,0.9,0.6,1.3
				c0.4,0.5,0.9,0.8,1.5,0.9c0.5,0.1,1.1,0.1,1.6-0.1c0.5-0.2,0.9-0.5,1.2-1c0.2-0.4,0.4-0.8,0.4-1.3c0-0.2,0-0.4,0-0.6
				c0-2.2,0-4.4,0-6.5C221.9,74.8,221.9,74.7,221.9,74.6z"/>
			<polygon points="149.6,90.4 148.6,90.4 148.6,89.7 151.4,89.7 151.4,90.4 150.4,90.4 150.4,93 149.6,93 			"/>
			<polygon points="153.9,89.7 154.6,89.7 154.6,91 156,91 156,89.7 156.7,89.7 156.7,93 156,93 156,91.7 154.6,91.7 154.6,93 
				153.9,93 			"/>
			<polygon points="159.4,89.7 161.9,89.7 161.9,90.3 160.2,90.3 160.2,91 161.7,91 161.7,91.7 160.2,91.7 160.2,92.4 162,92.4 
				162,93 159.4,93 			"/>
			<polygon points="167.9,89.7 168.6,89.7 168.6,92.4 170.3,92.4 170.3,93 167.9,93 			"/>
			<polygon points="172.8,89.7 173.5,89.7 173.5,93 172.8,93 			"/>
			<polygon points="176.3,89.7 178.8,89.7 178.8,90.3 177,90.3 177,91.1 178.6,91.1 178.6,91.7 177,91.7 177,93 176.3,93 			"/>
			<polygon points="181.3,89.7 183.9,89.7 183.9,90.3 182.1,90.3 182.1,91 183.6,91 183.6,91.7 182.1,91.7 182.1,92.4 183.9,92.4 
				183.9,93 181.3,93 			"/>
			<path d="M187.6,93.1c-0.3,0-0.5,0-0.8-0.1c-0.2-0.1-0.5-0.2-0.7-0.4l0.4-0.5c0.1,0.1,0.3,0.2,0.5,0.3c0.2,0.1,0.3,0.1,0.5,0.1
				c0.1,0,0.2,0,0.4-0.1c0.1,0,0.1-0.1,0.1-0.2v0c0,0,0-0.1,0-0.1c0,0-0.1-0.1-0.1-0.1c-0.1,0-0.1-0.1-0.2-0.1
				c-0.1,0-0.2-0.1-0.3-0.1c-0.2,0-0.3-0.1-0.5-0.1c-0.1,0-0.2-0.1-0.3-0.2c-0.1-0.1-0.2-0.2-0.2-0.3c-0.1-0.1-0.1-0.3-0.1-0.4v0
				c0-0.1,0-0.3,0.1-0.4c0.1-0.1,0.1-0.2,0.2-0.3c0.1-0.1,0.2-0.2,0.4-0.2c0.2,0,0.3-0.1,0.5-0.1c0.2,0,0.5,0,0.7,0.1
				c0.2,0.1,0.4,0.2,0.6,0.3l-0.4,0.6c-0.1-0.1-0.3-0.2-0.4-0.2c-0.1-0.1-0.3-0.1-0.4-0.1c-0.1,0-0.2,0-0.3,0.1
				c-0.1,0-0.1,0.1-0.1,0.2v0c0,0,0,0.1,0,0.1c0,0,0.1,0.1,0.1,0.1c0.1,0,0.1,0.1,0.2,0.1c0.1,0,0.2,0.1,0.4,0.1
				c0.2,0,0.3,0.1,0.5,0.2c0.1,0,0.2,0.1,0.3,0.2c0.1,0.1,0.2,0.2,0.2,0.3c0,0.1,0.1,0.2,0.1,0.4v0c0,0.2,0,0.3-0.1,0.4
				c-0.1,0.1-0.1,0.2-0.3,0.3c-0.1,0.1-0.2,0.2-0.4,0.2C188,93.1,187.8,93.1,187.6,93.1z"/>
			<polygon points="192.2,90.4 191.2,90.4 191.2,89.7 194,89.7 194,90.4 192.9,90.4 192.9,93 192.2,93 			"/>
			<polygon points="197.4,91.7 196.1,89.7 197,89.7 197.7,91 198.6,89.7 199.4,89.7 198.1,91.7 198.1,93 197.4,93 			"/>
			<polygon points="201.8,89.7 202.5,89.7 202.5,92.4 204.2,92.4 204.2,93 201.8,93 			"/>
			<polygon points="206.6,89.7 209.2,89.7 209.2,90.3 207.4,90.3 207.4,91 208.9,91 208.9,91.7 207.4,91.7 207.4,92.4 209.2,92.4 
				209.2,93 206.6,93 			"/>
			<path d="M216.3,89.7h0.7l1.4,3.4h-0.8l-0.3-0.8h-1.4l-0.3,0.8h-0.8L216.3,89.7z M217,91.6l-0.4-1.1l-0.4,1.1H217z"/>
			<path d="M220.8,89.7h1.4c0.2,0,0.4,0,0.5,0.1c0.1,0.1,0.3,0.1,0.4,0.2c0.1,0.1,0.2,0.2,0.3,0.4c0.1,0.1,0.1,0.3,0.1,0.5v0
				c0,0.2,0,0.4-0.1,0.5c-0.1,0.1-0.2,0.3-0.3,0.4c-0.1,0.1-0.3,0.2-0.4,0.2c-0.2,0.1-0.3,0.1-0.5,0.1h-0.6v1h-0.7V89.7z
				 M222.1,91.4c0.2,0,0.3,0,0.4-0.1c0.1-0.1,0.2-0.2,0.2-0.4v0c0-0.1,0-0.3-0.2-0.4c-0.1-0.1-0.3-0.1-0.4-0.1h-0.6v1L222.1,91.4z"
				/>
			<path d="M225.9,89.7h1.4c0.2,0,0.4,0,0.5,0.1c0.1,0.1,0.3,0.1,0.4,0.2c0.1,0.1,0.2,0.2,0.3,0.4c0.1,0.1,0.1,0.3,0.1,0.5v0
				c0,0.2,0,0.4-0.1,0.5c-0.1,0.1-0.2,0.3-0.3,0.4c-0.1,0.1-0.3,0.2-0.4,0.2c-0.2,0.1-0.3,0.1-0.5,0.1h-0.6v1h-0.7L225.9,89.7z
				 M227.2,91.4c0.2,0,0.3,0,0.4-0.1c0.1-0.1,0.2-0.2,0.2-0.4v0c0-0.1-0.1-0.3-0.2-0.4c-0.1-0.1-0.3-0.1-0.4-0.1h-0.6v1H227.2z"/>
		</g>
	</g>
</g>
<image style="overflow:visible;" width="168" height="56" xlink:href="E9E28AF6.png"  transform="matrix(0.508 0 0 0.508 143.2077 2.7749)">
</image>
</svg>
