<svg xmlns="http://www.w3.org/2000/svg" width="112" height="92" viewBox="0 0 112 92">
  <g id="Group_87" data-name="Group 87" transform="translate(-635 -688)">
    <g id="Cooking-kitchen-utensil" transform="translate(659 679)">
      <circle id="Ellipse_2" data-name="Ellipse 2" cx="3" cy="3" r="3" transform="translate(29 19)" fill="#fff"/>
      <path id="Path_4" data-name="Path 4" d="M4,53a1,1,0,0,0,1,1H59a1,1,0,0,0,1-1V52H4Z" fill="#fff"/>
      <path id="Path_5" data-name="Path 5" d="M56.98,50A25,25,0,0,0,7.02,50h3.01a21.983,21.983,0,0,1,2.59-9.42l1.76.95A20.044,20.044,0,0,0,12.03,50ZM52,47h2v2H52ZM42,47h8v2H42ZM14.159,38.125c.342-.473.7-.935,1.08-1.375l1.522,1.3q-.515.6-.981,1.249Z" fill="#fff"/>
      <path id="Path_6" data-name="Path 6" d="M13.751,16.661C15.312,14.887,17.08,12.877,17.08,9h-2c0,3.123-1.311,4.613-2.831,6.339C10.688,17.113,8.92,19.123,8.92,23h2C10.92,19.877,12.231,18.387,13.751,16.661Z" fill="#fff"/>
      <path id="Path_7" data-name="Path 7" d="M18.92,23c0-3.123,1.311-4.613,2.831-6.339C23.312,14.887,25.08,12.877,25.08,9h-2c0,3.123-1.311,4.613-2.831,6.339C18.688,17.113,16.92,19.123,16.92,23Z" fill="#fff"/>
      <path id="Path_8" data-name="Path 8" d="M44.751,16.661C46.312,14.887,48.08,12.877,48.08,9h-2c0,3.123-1.311,4.613-2.831,6.339C41.688,17.113,39.92,19.123,39.92,23h2C41.92,19.877,43.231,18.387,44.751,16.661Z" fill="#fff"/>
      <path id="Path_9" data-name="Path 9" d="M49.92,23c0-3.123,1.311-4.613,2.831-6.339C54.312,14.887,56.08,12.877,56.08,9h-2c0,3.123-1.311,4.613-2.831,6.339C49.688,17.113,47.92,19.123,47.92,23Z" fill="#fff"/>
    </g>
    <text id="Order_Food_" data-name="Order Food
" transform="translate(691 769)" fill="#fff" font-size="29" font-family="Mistral" letter-spacing="0.022em"><tspan x="-55.363" y="0">Order Food</tspan><tspan x="0" y="2"></tspan></text>
  </g>
</svg>
