<svg xmlns="http://www.w3.org/2000/svg" width="196" height="80.737" viewBox="0 0 196 80.737">
  <g id="Group_85" data-name="Group 85" transform="translate(-953 -698.263)">
    <g id="delivery" transform="translate(1020 629.396)">
      <g id="Group_78" data-name="Group 78" transform="translate(0 68.867)">
        <g id="Group_77" data-name="Group 77">
          <path id="Path_10" data-name="Path 10" d="M50.654,83.49H46.715L47.9,69.863c0-.025,0-.049,0-.073,0,0,0,0,0-.006h0a.916.916,0,0,0-.553-.84l-.008,0c-.02-.009-.042-.016-.063-.023l-.023-.008-.053-.014-.037-.009-.048-.007-.045-.006h-.007l-.048,0-.032,0H28.231a.917.917,0,1,0,0,1.833H45.989L44.165,91.643v0l-.46,5.284H11.856l.533-5.5h6.064a.917.917,0,1,0,0-1.833H12.566l1.125-11.609h9.651a.917.917,0,1,0,0-1.833H13.869L14.4,70.7H24.564a.917.917,0,1,0,0-1.833h-11a.917.917,0,0,0-.894.723l0,.009c0,.023-.008.046-.011.07,0,.007,0,.015,0,.022v0l-.626,6.463H.917a.917.917,0,1,0,0,1.833H11.85L10.725,89.6H7.455a.917.917,0,1,0,0,1.833h3.093l-.612,6.321v0l-.947,9.774v.007c0,.013,0,.025,0,.038s0,.033,0,.05v0c0,.024,0,.047,0,.07,0,.007,0,.015,0,.022,0,.024.006.047.011.07,0,.007,0,.014,0,.021s.009.035.013.052.006.024.009.036l0,.01a.916.916,0,0,0,.218.359l.005.006.031.028a.91.91,0,0,0,.213.146c.016.008.032.016.049.023l.016.006c.023.009.046.018.07.025l.006,0c.027.008.055.015.082.021l.011,0c.027.005.053.009.081.012h0q.045,0,.089,0h4.082a6.977,6.977,0,0,0,13.833,0h14.7a6.977,6.977,0,0,0,13.833,0h4.083c.031,0,.061,0,.09,0l.016,0c.024,0,.048-.006.071-.011l.03-.007.054-.014.035-.012.045-.017.037-.016.04-.019.036-.02.037-.023.034-.023.036-.027.03-.024.036-.033.025-.024.037-.04.019-.022c.013-.017.026-.034.038-.051l.013-.018c.015-.022.029-.045.042-.069l0,0c.014-.025.027-.051.038-.078l.009-.023c.007-.019.015-.038.021-.058s.007-.026.011-.039.008-.03.012-.046.005-.028.007-.042,0-.024.006-.037c.039-.311.757-6.07,1.077-9.793,0,0,0-.007,0-.011.092-1.073.151-1.977.151-2.53A11.929,11.929,0,0,0,50.654,83.49Zm-4.1,1.833H50.3l-.479,5.5h-3.75ZM20.9,112.771a5.145,5.145,0,1,1,5.145-5.145A5.151,5.151,0,0,1,20.9,112.771Zm28.533,0a5.145,5.145,0,1,1,5.145-5.145A5.151,5.151,0,0,1,49.431,112.771Zm10.188-6.062H56.348a6.977,6.977,0,0,0-13.833,0h-14.7a6.977,6.977,0,0,0-13.833,0H10.909l.77-7.944H44.545a.9.9,0,0,0,.091,0l.017,0c.024,0,.048-.006.071-.011l.03-.007.055-.014.036-.012.046-.017.038-.017.04-.019.037-.021.037-.023.034-.024.036-.027.031-.026.034-.031.028-.027.032-.035.024-.029.029-.039.021-.03.026-.042.018-.033c.008-.014.014-.029.021-.044s.011-.023.016-.036.011-.029.016-.044.009-.026.013-.04.007-.029.011-.043.007-.029.01-.044,0-.029.007-.044,0-.03.006-.045,0,0,0-.006l.459-5.273h4.737c2.808,0,4.075,1.455,5.415,3,1.106,1.271,2.341,2.689,4.441,3.035C60.243,101.5,59.812,105.124,59.619,106.708Zm1.047-9.86c-1.362-.278-2.2-1.235-3.215-2.4-1.27-1.459-2.82-3.238-5.791-3.57l.474-5.444a10.1,10.1,0,0,1,8.6,9.972C60.736,95.749,60.71,96.248,60.667,96.848Z" transform="translate(0 -68.867)" fill="#fff"/>
        </g>
      </g>
      <g id="Group_80" data-name="Group 80" transform="translate(17.537 104.265)">
        <g id="Group_79" data-name="Group 79">
          <path id="Path_11" data-name="Path 11" d="M146.869,358.524a3.361,3.361,0,1,0,3.361,3.361A3.364,3.364,0,0,0,146.869,358.524Zm0,4.888a1.528,1.528,0,1,1,1.528-1.528A1.529,1.529,0,0,1,146.869,363.412Z" transform="translate(-143.508 -358.524)" fill="#fff"/>
        </g>
      </g>
      <g id="Group_82" data-name="Group 82" transform="translate(46.071 104.265)">
        <g id="Group_81" data-name="Group 81">
          <path id="Path_12" data-name="Path 12" d="M380.357,358.524a3.361,3.361,0,1,0,3.361,3.361A3.365,3.365,0,0,0,380.357,358.524Zm0,4.888a1.528,1.528,0,1,1,1.528-1.528A1.529,1.529,0,0,1,380.357,363.412Z" transform="translate(-376.996 -358.524)" fill="#fff"/>
        </g>
      </g>
      <g id="Group_84" data-name="Group 84" transform="translate(3.279 83.49)">
        <g id="Group_83" data-name="Group 83" transform="translate(0 0)">
          <path id="Path_13" data-name="Path 13" d="M32.231,188.527H27.751a.917.917,0,0,0,0,1.833h4.481a.917.917,0,0,0,0-1.833Z" transform="translate(-26.834 -188.527)" fill="#fff"/>
        </g>
      </g>
    </g>
    <text id="Delivery_or_take_out" data-name="Delivery or take out" transform="translate(1051 770)" fill="#fff" font-size="29" font-family="Mistral" letter-spacing="0.022em"><tspan x="-97.904" y="0">Delivery or take out</tspan></text>
  </g>
</svg>
