<?xml version="1.0" encoding="utf-8"?>
<!-- Generator: Adobe Illustrator 23.0.2, SVG Export Plug-In . SVG Version: 6.00 Build 0)  -->
<svg version="1.1" id="Layer_1" xmlns="http://www.w3.org/2000/svg" xmlns:xlink="http://www.w3.org/1999/xlink" x="0px" y="0px"
	 viewBox="0 0 95 34" style="enable-background:new 0 0 95 34;" xml:space="preserve">
<style type="text/css">
	.st0{fill:#FFFFFF;stroke:#D8D8D8;stroke-miterlimit:10;}
	.st1{fill:#FE5D0B;}
	.st2{fill:#FE5D0C;}
	.st3{fill:#FE5E0D;}
	.st4{fill:#FE6214;}
	.st5{fill:#FE5000;}
</style>
<rect class="st0" width="95" height="34"/>
<g>
	<path class="st1" d="M11.87,3.87c0.4,0.17,0.84,0.15,1.25,0.25c3.6,0.84,6.27,3.7,6.83,7.32c0.09,0.6,0.04,0.72-0.54,0.94
		c-0.77,0.29-1.58,0.37-2.39,0.46c-1.01,0.11-2.02,0.12-3.03,0.09c-0.3-0.01-0.6-0.05-0.9-0.09c-0.26-0.03-0.33-0.21-0.33-0.45
		c0.01-0.91,0-1.81,0-2.72c0-0.12,0.01-0.25-0.02-0.36c-0.08-0.25-0.24-0.42-0.53-0.4c-0.28,0.03-0.44,0.21-0.44,0.48
		c-0.01,1.39-0.01,2.78,0,4.17c0,0.33,0.22,0.42,0.52,0.41c1.06-0.01,2.11-0.03,3.17,0c0.78,0.02,1.57,0.01,2.35,0.13
		c1.47,0.22,1.94,0.91,1.62,2.35c-0.54,2.39-1.64,4.54-2.9,6.61c-1.49,2.43-3.23,4.69-5.1,6.85c-0.22,0.26-0.35,0.32-0.59,0
		c-1.68-2.24-3.41-4.45-4.71-6.94c-0.42-0.81-0.34-0.98,0.53-1.15c1.16-0.22,2.33-0.29,3.5-0.1c0.66,0.11,0.79,0.25,0.79,0.9
		c0,0.47,0,0.94-0.01,1.4c0,0.3,0.11,0.5,0.44,0.52c0.34,0.02,0.52-0.18,0.52-0.49c0.01-1.06-0.01-2.11-0.02-3.17
		c0-0.32-0.24-0.41-0.49-0.41c-1.54,0-3.08-0.06-4.62,0.04c-0.53,0.03-1.06,0-1.58-0.07c-0.35-0.05-0.58-0.3-0.77-0.58
		c-0.78-1.13-1.22-2.41-1.62-3.7c-0.27-0.86-0.48-1.73-0.56-2.64c0-0.05-0.05-0.1-0.08-0.14c0-0.45,0-0.91,0-1.36
		c0.15-0.17,0.06-0.38,0.1-0.56C3,7.75,5.17,5.33,8.79,4.22c0.5-0.15,1.03-0.23,1.54-0.35C10.85,3.87,11.36,3.87,11.87,3.87z"/>
	<path class="st2" d="M42.06,16.98c-0.87,1.8-1.71,3.54-2.55,5.29c-0.1,0.2-0.21,0.28-0.44,0.28c-0.23,0-0.31-0.1-0.38-0.29
		c-1.21-3.31-2.42-6.61-3.63-9.92c-0.02-0.07-0.04-0.14-0.06-0.24c0.84,0,1.65,0.01,2.47,0c0.25,0,0.28,0.16,0.34,0.33
		c0.55,1.51,1.09,3.02,1.65,4.54c0.38-0.82,0.76-1.64,1.14-2.46c0.34-0.74,0.7-1.47,1.03-2.2c0.09-0.2,0.19-0.3,0.43-0.3
		c0.25,0,0.33,0.11,0.42,0.3c0.73,1.54,1.46,3.08,2.21,4.65c0.54-1.5,1.08-2.97,1.59-4.46c0.12-0.34,0.27-0.42,0.61-0.41
		c0.67,0.03,1.35,0.01,2.08,0.01c-0.39,1.09-0.76,2.11-1.13,3.14c-0.84,2.32-1.68,4.63-2.51,6.95c-0.07,0.19-0.1,0.35-0.38,0.35
		c-0.26,0-0.37-0.11-0.47-0.32C43.7,20.49,42.89,18.75,42.06,16.98z"/>
	<path class="st2" d="M78.37,16.45c0.68,0,1.36,0.01,2.04-0.01c0.25-0.01,0.34,0.06,0.33,0.33c-0.01,1.34-0.02,2.69,0,4.03
		c0,0.31-0.18,0.43-0.38,0.55c-1.45,0.88-3.02,1.17-4.68,0.94c-1.6-0.22-2.93-0.93-3.8-2.32c-1.71-2.72-0.81-7.23,3.31-8.1
		c1.49-0.31,2.98-0.17,4.29,0.73c0.95,0.65,0.94,0.66,0.15,1.46c-0.29,0.29-0.59,0.57-0.86,0.87c-0.16,0.18-0.27,0.17-0.42-0.01
		c-0.77-0.93-2.33-1.01-3.28-0.48c-0.99,0.55-1.57,1.89-1.35,3.08c0.31,1.69,1.42,2.57,3.14,2.49c0.42-0.02,0.84-0.03,1.24-0.18
		c0.5-0.18,0.2-0.59,0.24-0.89c0.04-0.29-0.23-0.21-0.39-0.21c-0.54-0.01-1.09-0.01-1.63,0c-0.26,0.01-0.38-0.04-0.37-0.34
		c0.02-0.54,0.02-1.09,0-1.63c-0.01-0.27,0.1-0.33,0.34-0.32C76.98,16.46,77.68,16.45,78.37,16.45z"/>
	<path class="st2" d="M65.36,16.45c0.68,0,1.36,0.01,2.04-0.01c0.24-0.01,0.31,0.07,0.3,0.31c-0.01,1.36-0.01,2.72,0,4.08
		c0,0.2-0.06,0.33-0.23,0.45c-2.18,1.49-6.19,1.66-8.23-0.79c-0.74-0.9-1.11-1.93-1.17-3.1c-0.06-1.39,0.24-2.66,1.13-3.75
		c1.28-1.55,2.98-2.04,4.92-1.85c1.07,0.1,2.04,0.45,2.83,1.23c0.26,0.26,0.33,0.43,0,0.71c-0.42,0.35-0.79,0.75-1.16,1.15
		c-0.2,0.21-0.3,0.21-0.52,0c-1.2-1.15-3.09-1.01-4.05,0.28c-0.99,1.33-0.87,4.25,1.66,4.79c0.74,0.16,1.5,0.13,2.22-0.13
		c0.45-0.16,0.14-0.57,0.2-0.87c0.05-0.26-0.19-0.21-0.35-0.21c-0.57,0-1.15-0.01-1.72,0c-0.21,0-0.29-0.05-0.29-0.27
		c0.01-0.57,0.02-1.15,0-1.72c-0.01-0.25,0.09-0.3,0.32-0.3C63.98,16.46,64.67,16.45,65.36,16.45z"/>
	<path class="st2" d="M29.31,22.37c-1.65-0.04-3.01-0.61-3.87-2.12c-0.14-0.25-0.11-0.36,0.14-0.5c0.48-0.25,0.95-0.51,1.4-0.81
		c0.3-0.2,0.45-0.19,0.65,0.14c0.45,0.76,1.14,1.08,2.03,0.92c0.32-0.06,0.62-0.17,0.7-0.54c0.09-0.4-0.1-0.67-0.45-0.84
		c-0.51-0.25-1.04-0.48-1.56-0.71c-1.01-0.46-1.91-1.05-2.25-2.2c-0.59-2,0.63-3.78,2.71-3.95c1.45-0.12,2.67,0.32,3.46,1.64
		c0.14,0.23,0.17,0.36-0.1,0.52c-0.51,0.29-1,0.62-1.48,0.95c-0.2,0.14-0.32,0.13-0.43-0.1c-0.2-0.4-0.49-0.69-0.96-0.72
		c-0.32-0.02-0.63,0.05-0.73,0.4c-0.1,0.33-0.01,0.65,0.31,0.82c0.44,0.23,0.89,0.44,1.34,0.63c0.61,0.27,1.2,0.56,1.7,1
		c1,0.88,1.23,2,0.91,3.24c-0.32,1.23-1.23,1.84-2.4,2.12C30.07,22.35,29.69,22.38,29.31,22.37z"/>
	<path class="st3" d="M82.64,11.86c0.91,0,1.75,0.01,2.59-0.01c0.22,0,0.32,0.1,0.41,0.28c0.71,1.36,1.53,2.65,2.14,4.07
		c0.02,0.04,0.05,0.06,0.1,0.12c0.62-1.41,1.38-2.72,2.06-4.07c0.15-0.3,0.32-0.41,0.65-0.4c0.72,0.03,1.44,0.01,2.22,0.01
		c-0.59,1.1-1.14,2.14-1.7,3.19c-0.61,1.14-1.22,2.28-1.83,3.42c-0.11,0.2-0.16,0.41-0.16,0.65c0.01,0.92,0,1.84,0.01,2.76
		c0,0.28-0.04,0.41-0.37,0.39c-0.63-0.03-1.27-0.02-1.9,0c-0.26,0.01-0.33-0.08-0.33-0.33c0.01-0.85-0.01-1.69,0.01-2.54
		c0.01-0.35-0.08-0.64-0.25-0.94c-1.17-2.1-2.34-4.2-3.5-6.3C82.76,12.09,82.72,12.01,82.64,11.86z"/>
	<path class="st4" d="M54.38,22.24c-0.69,0.01-1.39,0-2.08,0.03c-0.31,0.01-0.34-0.12-0.34-0.37c0.01-1.46,0-2.92,0-4.38
		c0-1.73,0.01-3.46-0.01-5.2c0-0.39,0.11-0.49,0.48-0.47c0.65,0.03,1.29,0.02,1.94,0.03c0,0.08,0.03,0.14,0.12,0.15
		c0.07,0.49,0.02,0.99,0.02,1.49c0,2.77,0,5.54,0,8.31c0,0.09-0.02,0.18-0.03,0.27C54.41,22.1,54.38,22.16,54.38,22.24z"/>
	<path class="st5" d="M54.49,12.02c-0.09-0.01-0.12-0.07-0.12-0.15C54.5,11.86,54.53,11.92,54.49,12.02z"/>
	<path class="st5" d="M54.38,22.24c0-0.08,0.03-0.14,0.12-0.15C54.53,22.2,54.5,22.26,54.38,22.24z"/>
</g>
</svg>
