<svg xmlns="http://www.w3.org/2000/svg" viewBox="0 0 109.72 90"><defs><style>.cls-1,.cls-2{fill:#fff;}.cls-2{isolation:isolate;font-size:25.3px;font-family:Mistral;}</style></defs><g id="Layer_2" data-name="Layer 2"><g id="Layer_1-2" data-name="Layer 1"><g id="Group_87" data-name="Group 87"><g id="Cooking-kitchen-utensil"><ellipse id="Ellipse_2" data-name="Ellipse 2" class="cls-1" cx="61.95" cy="13.16" rx="3" ry="3.04"/><path id="Path_4" data-name="Path 4" class="cls-1" d="M34,44.53a1,1,0,0,0,1,1H89a1,1,0,0,0,1-1v-1H34Z"/><path id="Path_5" data-name="Path 5" class="cls-1" d="M87,41.49a25,25,0,0,0-50,0h3A21.13,21.13,0,0,1,42.55,32l1.8,1a20.42,20.42,0,0,0-2.4,8.5Zm-5-3h2v2H82Zm-10,0h8v2H72Zm-27.8-9a12.53,12.53,0,0,1,1.1-1.42l1.53,1.28c-.3.4-.7.81-1,1.21Z"/><path id="Path_6" data-name="Path 6" class="cls-1" d="M43.78,7.79C45.38,6,47.08,4,47.08,0h-2c0,3.14-1.3,4.65-2.8,6.37a10.88,10.88,0,0,0-3.3,7.8h2C40.85,11,42.15,9.51,43.78,7.79Z"/><path id="Path_7" data-name="Path 7" class="cls-1" d="M48.85,14.17c0-3.14,1.3-4.66,2.8-6.38S55,4,55,0H53c0,3.14-1.3,4.65-2.8,6.37a10.88,10.88,0,0,0-3.3,7.8Z"/><path id="Path_8" data-name="Path 8" class="cls-1" d="M74.78,7.79C76.38,6,78.08,4,78.08,0h-2c0,3.14-1.3,4.65-2.8,6.37a10.88,10.88,0,0,0-3.3,7.8h2C71.85,11,73.15,9.51,74.78,7.79Z"/><path id="Path_9" data-name="Path 9" class="cls-1" d="M79.85,14.17c0-3.14,1.3-4.66,2.8-6.38S86,4,86,0H84c0,3.14-1.3,4.65-2.8,6.37a10.88,10.88,0,0,0-3.3,7.8Z"/></g><text class="cls-2" transform="translate(0 81.97) scale(0.99 1)">Compare offer</text></g></g></g></svg>