<?xml version="1.0" encoding="utf-8"?>
<!-- Generator: Adobe Illustrator 24.1.1, SVG Export Plug-In . SVG Version: 6.00 Build 0)  -->
<svg version="1.1" id="Layer_1" xmlns="http://www.w3.org/2000/svg" xmlns:xlink="http://www.w3.org/1999/xlink" x="0px" y="0px"
	 viewBox="0 0 112 92" style="enable-background:new 0 0 112 92;" xml:space="preserve">
<style type="text/css">
	.st0{fill:#FFFFFF;}
	.st1{font-family:'Mistral';}
	.st2{font-size:29px;}
</style>
<g id="Group_87" transform="translate(-635 -688)">
	<g id="Cooking-kitchen-utensil" transform="translate(659 679)">
		<circle id="Ellipse_2" class="st0" cx="32" cy="22" r="3"/>
		<path id="Path_4" class="st0" d="M4,53c0,0.6,0.4,1,1,1h54c0.6,0,1-0.4,1-1v-1H4V53z"/>
		<path id="Path_5" class="st0" d="M57,50c-0.6-13.8-12.2-24.5-26-24C18,26.5,7.5,37,7,50h3c0.1-3.3,1-6.5,2.6-9.4l1.8,1
			C13,44.1,12.2,47,12,50H57z M52,47h2v2h-2V47z M42,47h8v2h-8V47z M14.2,38.1c0.3-0.5,0.7-0.9,1.1-1.4l1.5,1.3
			c-0.3,0.4-0.7,0.8-1,1.2L14.2,38.1z"/>
		<path id="Path_6" class="st0" d="M13.8,16.7c1.6-1.8,3.3-3.8,3.3-7.7h-2c0,3.1-1.3,4.6-2.8,6.3c-1.6,1.8-3.3,3.8-3.3,7.7h2
			C10.9,19.9,12.2,18.4,13.8,16.7z"/>
		<path id="Path_7" class="st0" d="M18.9,23c0-3.1,1.3-4.6,2.8-6.3c1.6-1.8,3.3-3.8,3.3-7.7h-2c0,3.1-1.3,4.6-2.8,6.3
			c-1.6,1.8-3.3,3.8-3.3,7.7H18.9z"/>
		<path id="Path_8" class="st0" d="M44.8,16.7c1.6-1.8,3.3-3.8,3.3-7.7h-2c0,3.1-1.3,4.6-2.8,6.3c-1.6,1.8-3.3,3.8-3.3,7.7h2
			C41.9,19.9,43.2,18.4,44.8,16.7z"/>
		<path id="Path_9" class="st0" d="M49.9,23c0-3.1,1.3-4.6,2.8-6.3c1.6-1.8,3.3-3.8,3.3-7.7h-2c0,3.1-1.3,4.6-2.8,6.3
			c-1.6,1.8-3.3,3.8-3.3,7.7H49.9z"/>
	</g>
	<text transform="matrix(1 0 0 1 635.637 769)" class="st0 st1 st2">Compare Offer</text>
</g>
</svg>
