<?xml version="1.0" encoding="utf-8"?>
<!-- Generator: Adobe Illustrator 24.1.1, SVG Export Plug-In . SVG Version: 6.00 Build 0)  -->
<svg version="1.1" id="Layer_1" xmlns="http://www.w3.org/2000/svg" xmlns:xlink="http://www.w3.org/1999/xlink" x="0px" y="0px"
	 viewBox="0 0 12.7 14.6" style="enable-background:new 0 0 12.7 14.6;" xml:space="preserve">
<style type="text/css">
	.st0{font-family:'Mistral';}
	.st1{font-size:3.1802px;}
</style>
<g>
	<g id="Group_87" transform="translate(-635 -688)">
		<g id="Cooking-kitchen-utensil" transform="translate(659 679)">
			<ellipse id="Ellipse_2" cx="-20.9" cy="15.1" rx="0.2" ry="0.3"/>
			<path id="Path_4" d="M-22.4,18.5c0,0.1,0,0.1,0.1,0.1h3.1c0,0,0.1,0,0.1-0.1v-0.1h-3.2V18.5z"/>
			<path id="Path_5" d="M-19.4,18.2c0-1.5-0.7-2.7-1.5-2.6c-0.7,0.1-1.3,1.2-1.4,2.6h0.2c0-0.4,0.1-0.7,0.1-1l0.1,0.1
				c-0.1,0.3-0.1,0.6-0.1,0.9H-19.4z M-19.7,17.9h0.1v0.2h-0.1V17.9z M-20.3,17.9h0.5v0.2h-0.5V17.9z M-21.9,16.9
				c0-0.1,0-0.1,0.1-0.2l0.1,0.1c0,0,0,0.1-0.1,0.1L-21.9,16.9z"/>
			<path id="Path_6" d="M-21.9,14.5c0.1-0.2,0.2-0.4,0.2-0.8h-0.1c0,0.3-0.1,0.5-0.2,0.7c-0.1,0.2-0.2,0.4-0.2,0.8h0.1
				C-22.1,14.9-22,14.7-21.9,14.5z"/>
			<path id="Path_7" d="M-21.6,15.2c0-0.3,0.1-0.5,0.2-0.7c0.1-0.2,0.2-0.4,0.2-0.8h-0.1c0,0.3-0.1,0.5-0.2,0.7
				c-0.1,0.2-0.2,0.4-0.2,0.8H-21.6z"/>
			<path id="Path_8" d="M-20.1,14.5c0.1-0.2,0.2-0.4,0.2-0.8h-0.1c0,0.3-0.1,0.5-0.2,0.7c-0.1,0.2-0.2,0.4-0.2,0.8h0.1
				C-20.3,14.9-20.2,14.7-20.1,14.5z"/>
			<path id="Path_9" d="M-19.8,15.2c0-0.3,0.1-0.5,0.2-0.7c0.1-0.2,0.2-0.4,0.2-0.8h-0.1c0,0.3-0.1,0.5-0.2,0.7
				c-0.1,0.2-0.2,0.4-0.2,0.8H-19.8z"/>
		</g>
		<text transform="matrix(0.5175 0 0 1 635.0001 701.5878)" class="st0 st1">Compare Offer</text>
	</g>
</g>
<rect x="39.7" style="fill:none;" width="9.3" height="0.2"/>
</svg>
