<?xml version="1.0" standalone="no"?>
<!DOCTYPE svg PUBLIC "-//W3C//DTD SVG 20010904//EN"
 "http://www.w3.org/TR/2001/REC-SVG-20010904/DTD/svg10.dtd">
<svg version="1.0" xmlns="http://www.w3.org/2000/svg"
 width="1200.000000pt" height="600.000000pt" viewBox="0 0 1200.000000 600.000000"
 preserveAspectRatio="xMidYMid meet">
<metadata>
Created by potrace 1.16, written by Peter Selinger 2001-2019
</metadata>
<g transform="translate(0.000000,600.000000) scale(0.100000,-0.100000)"
fill="#000000" stroke="none">
<path d="M0 3000 l0 -3000 6000 0 6000 0 0 3000 0 3000 -6000 0 -6000 0 0
-3000z m2420 1610 c94 -9 177 -26 194 -38 6 -4 29 -14 51 -21 244 -78 502
-261 648 -461 22 -30 44 -57 48 -60 7 -5 66 -112 102 -185 28 -58 38 -69 49
-53 5 8 6 -3 2 -26 -4 -25 -3 -41 5 -45 6 -4 14 -18 17 -32 2 -13 9 -46 15
-74 6 -27 14 -66 18 -85 4 -19 12 -44 17 -55 6 -11 9 -103 8 -210 -1 -180 -10
-263 -43 -385 -5 -19 -13 -46 -16 -60 -8 -29 -29 -80 -56 -133 -10 -21 -19
-44 -19 -52 0 -8 -3 -15 -7 -15 -5 0 -17 -19 -28 -43 -21 -43 -69 -117 -121
-182 -30 -39 -383 -403 -531 -548 -57 -56 -79 -83 -70 -89 8 -5 7 -8 -6 -8
-16 0 -47 -28 -143 -131 -18 -19 -45 -45 -61 -59 -17 -14 -32 -30 -34 -36 -7
-19 -100 -84 -119 -84 -10 0 -20 -6 -23 -12 -2 -9 -26 -13 -74 -12 -118 0
-137 14 -467 351 -160 163 -347 350 -414 417 -122 119 -248 268 -286 336 -41
74 -106 205 -106 213 0 5 -6 23 -14 40 -8 18 -17 45 -20 60 -7 31 -26 28 -26
-4 0 -11 -4 -17 -10 -14 -5 3 -10 0 -11 -7 0 -10 -2 -10 -6 -1 -2 7 5 29 17
48 19 31 20 39 9 68 -29 77 -47 345 -30 466 7 47 15 104 17 126 3 22 8 43 10
47 3 4 12 34 20 65 8 32 18 67 23 78 5 11 14 36 21 55 74 211 283 477 479 609
20 14 40 30 44 38 4 7 13 13 18 13 6 0 41 17 77 38 88 49 162 78 282 112 25 6
63 18 85 25 22 7 54 14 70 14 17 1 55 5 85 10 56 10 155 7 310 -9z m5424 -313
c11 -8 22 -33 26 -62 7 -45 5 -50 -22 -77 -35 -34 -52 -35 -83 -3 -67 66 6
196 79 142z m308 -61 c37 -46 33 -64 -29 -126 -43 -43 -67 -59 -95 -63 -48 -7
-73 19 -72 74 1 30 -2 39 -14 37 -8 -2 -17 2 -19 8 -2 7 5 10 20 7 19 -4 38 7
80 45 46 41 59 49 83 44 16 -3 36 -15 46 -26z m-547 -24 c42 -39 51 -54 53
-87 4 -48 -12 -71 -54 -79 -24 -6 -38 -1 -69 24 -21 17 -52 48 -68 71 -26 35
-28 44 -18 65 18 41 34 53 71 54 28 0 45 -9 85 -48z m306 -216 c29 -30 43 -86
33 -136 -11 -51 -73 -90 -144 -90 -49 0 -60 4 -82 28 -46 50 -72 122 -48 137
6 3 10 13 10 21 0 21 56 67 98 80 44 13 95 -2 133 -40z m-327 -50 c22 -14 24
-19 15 -48 -12 -44 -34 -58 -89 -58 -40 0 -49 4 -68 30 -24 31 -28 50 -12 50
6 0 10 5 10 11 0 39 93 49 144 15z m588 -5 c22 -28 23 -50 4 -77 -12 -16 -28
-19 -95 -20 -45 -1 -81 2 -81 7 0 5 5 9 10 9 6 0 10 15 10 34 0 46 32 71 90
70 32 0 48 -6 62 -23z m-147 -181 c13 0 42 -16 65 -35 42 -35 76 -39 46 -6
-20 22 -20 31 -2 31 17 0 31 -61 16 -70 -6 -4 -3 -14 10 -25 19 -18 28 -55 12
-55 -4 0 -12 -10 -17 -22 -14 -30 -37 -42 -67 -35 -36 9 -116 86 -129 125 -10
29 -9 37 10 62 11 16 21 35 22 42 0 10 2 10 6 1 2 -7 15 -13 28 -13z m-383
-17 c11 -10 18 -30 18 -55 0 -33 -7 -45 -52 -88 -44 -42 -59 -50 -89 -50 -29
0 -43 6 -59 27 -30 38 -19 68 46 131 61 57 101 67 136 35z m2524 -142 c-5 -60
-3 -80 6 -83 11 -4 11 -14 0 -52 -13 -49 -55 -95 -96 -107 -12 -3 -20 -13 -20
-22 1 -9 -4 -17 -12 -17 -8 0 -14 6 -14 13 0 8 -17 19 -37 26 -43 13 -75 37
-91 68 -12 22 -34 108 -25 99 3 -3 19 16 37 41 24 36 42 50 84 65 47 18 53 18
68 4 8 -9 20 -16 27 -16 6 0 21 -10 34 -22 26 -25 43 -17 25 12 -9 14 -9 20
-1 20 7 0 9 10 7 25 -3 14 -1 25 5 25 6 0 8 -28 3 -79z m-2308 22 c6 -9 12
-35 12 -58 0 -48 -15 -71 -51 -80 -69 -17 -110 99 -52 145 30 24 69 20 91 -7z
m-661 -94 c84 -20 158 -43 163 -50 3 -3 15 -9 26 -13 21 -7 43 -24 116 -92 40
-38 71 -98 99 -189 20 -64 25 -180 9 -190 -5 -3 -10 -16 -10 -28 -1 -12 -10
-38 -20 -57 -10 -19 -25 -46 -32 -60 -22 -42 -129 -140 -177 -161 -63 -28
-177 -58 -231 -61 -53 -2 -189 36 -242 69 -58 36 -78 28 -78 -32 0 -36 48 -54
174 -65 61 -6 179 -17 261 -26 83 -9 173 -17 202 -17 31 0 51 -5 50 -11 -1 -6
9 -12 23 -14 14 -2 29 -8 34 -13 6 -5 16 -9 23 -9 7 0 30 -18 52 -40 21 -22
43 -40 47 -40 5 0 17 -19 27 -41 20 -45 34 -49 17 -5 -5 15 -10 107 -10 204 0
97 -5 218 -10 267 -5 50 -10 195 -10 324 l-1 234 25 26 c22 22 37 26 100 29
70 4 75 3 103 -25 28 -27 30 -35 37 -133 3 -57 11 -107 17 -110 6 -4 7 -21 2
-46 -5 -21 -5 -208 -1 -414 6 -321 5 -378 -8 -397 -8 -13 -21 -23 -29 -23 -9
0 -15 -10 -16 -22 0 -13 -3 -17 -6 -10 -3 7 -24 12 -52 12 l-48 0 4 -85 c4
-74 3 -84 -10 -79 -12 4 -17 -3 -20 -28 -2 -18 -4 -6 -4 27 0 33 1 52 4 43 8
-33 23 -18 23 22 0 22 -4 40 -10 40 -5 0 -9 3 -9 8 1 4 0 12 -1 17 -1 6 -3 16
-4 24 0 7 -12 21 -25 30 -24 16 -24 15 -17 -9 4 -14 10 -68 13 -120 5 -91 4
-98 -25 -163 -34 -75 -95 -140 -171 -183 -25 -15 -64 -37 -86 -49 -23 -13 -59
-27 -80 -30 -22 -4 -46 -12 -53 -18 -19 -15 -319 -14 -334 1 -7 7 -22 12 -34
12 -20 0 -94 29 -172 68 -52 26 -160 119 -168 144 -3 13 -11 26 -16 29 -16 10
-53 162 -40 167 6 2 17 22 23 45 6 23 21 51 33 63 52 52 155 80 196 54 10 -6
11 -10 3 -10 -7 0 -13 -8 -13 -18 0 -11 -9 -27 -21 -38 -23 -21 -42 -62 -52
-113 -15 -72 53 -157 168 -211 46 -22 63 -24 200 -24 l150 1 -120 -6 c-104 -5
-114 -7 -75 -14 92 -17 280 4 350 39 105 52 160 111 160 171 0 17 4 34 8 37
16 10 0 63 -28 96 -26 31 -58 35 -47 6 8 -21 -38 -7 -51 15 -13 21 -3 26 15 8
7 -7 20 -9 29 -5 15 6 16 9 3 20 -22 20 -103 47 -151 50 -24 1 -49 5 -55 9 -6
4 -67 9 -135 12 -68 3 -139 9 -158 15 -19 5 -52 10 -72 10 -21 0 -70 10 -109
22 -59 19 -79 31 -114 71 -40 44 -44 46 -48 25 -2 -13 -5 20 -6 73 -1 70 3
100 14 115 8 10 15 26 15 35 0 9 18 29 40 44 l40 27 -25 30 c-14 16 -25 36
-25 44 0 8 -4 14 -9 14 -19 0 -51 123 -51 197 0 66 25 190 40 203 3 3 16 21
27 40 12 19 42 54 67 78 33 30 41 42 28 42 -10 0 -23 -5 -29 -11 -8 -8 -13 -8
-17 0 -4 6 -1 11 7 11 10 0 13 7 10 20 -3 11 0 20 6 20 6 0 11 9 11 20 0 11 5
20 10 20 7 0 8 -13 4 -35 -4 -22 -2 -35 4 -35 6 0 48 16 93 35 46 19 97 35
114 35 16 0 37 5 45 10 20 13 49 12 107 -1z m-926 -81 c3 -5 26 -12 50 -15
138 -17 274 -143 295 -271 3 -23 9 -40 13 -38 11 7 3 -578 -9 -608 -7 -21 -7
-32 1 -42 6 -7 8 -18 4 -25 -4 -6 -1 -15 6 -20 7 -4 10 -11 7 -15 -10 -9 -38
21 -38 41 0 9 -4 14 -8 11 -18 -11 -123 -23 -128 -15 -3 5 -16 9 -30 9 -13 0
-29 9 -36 20 -14 22 -34 26 -40 8 -2 -6 -14 -13 -26 -15 -20 -2 -18 1 13 28
19 17 35 37 35 45 0 20 -14 17 -37 -8 -38 -43 -85 -78 -103 -78 -30 0 -32 -17
-4 -24 21 -6 24 -9 14 -21 -7 -8 -22 -14 -34 -14 -20 2 -20 2 2 6 51 10 10 33
-61 33 -24 0 -40 -5 -43 -15 -7 -18 -45 -20 -41 -3 1 8 -16 15 -48 18 -57 7
-102 28 -161 76 -59 47 -86 104 -92 190 -7 102 14 157 83 223 29 28 60 51 69
51 19 0 21 16 4 23 -7 2 -9 8 -5 13 4 5 12 2 17 -6 7 -12 18 -11 72 7 88 30
118 35 238 42 105 6 105 6 102 31 -8 85 -56 120 -163 120 -57 0 -86 -6 -126
-25 -29 -13 -53 -30 -54 -37 0 -9 -2 -10 -5 -1 -6 13 -35 6 -46 -11 -4 -6 -2
-14 5 -19 8 -6 8 -7 -3 -4 -8 2 -15 9 -15 16 0 7 -11 23 -26 34 -42 36 -62 76
-61 125 1 50 11 60 87 96 61 29 114 43 184 51 30 3 63 13 75 21 20 14 55 10
67 -8z m2419 -101 c14 -1 30 -7 37 -13 7 -6 32 -17 57 -25 25 -7 62 -27 83
-45 35 -29 38 -36 37 -80 -1 -26 -6 -50 -13 -52 -6 -2 -11 -9 -11 -15 0 -6
-10 -21 -22 -34 -27 -29 -97 -32 -136 -5 -55 37 -161 60 -202 44 -14 -5 -29
-11 -35 -12 -78 -16 -146 -87 -170 -177 -15 -56 -16 -77 -7 -137 6 -39 16 -72
21 -74 6 -2 11 -9 11 -15 1 -37 123 -124 160 -114 11 3 20 0 20 -5 0 -7 25 -9
70 -6 55 4 86 13 141 42 92 47 129 47 163 3 15 -19 26 -38 26 -42 0 -5 7 -16
15 -25 12 -14 13 -23 5 -45 -6 -15 -8 -30 -5 -34 9 -8 25 20 25 44 1 20 1 20
12 0 12 -20 14 -242 3 -253 -3 -3 -5 12 -6 34 -1 66 -5 86 -20 95 -10 6 -10 9
-1 9 6 0 12 5 12 10 0 16 -30 12 -36 -5 -7 -18 -24 -20 -24 -2 0 15 40 42 58
39 6 -2 12 4 12 13 0 21 -43 10 -95 -25 -61 -41 -80 -50 -163 -72 -96 -26
-265 -28 -314 -4 -17 9 -36 16 -42 16 -25 0 -161 79 -177 103 -4 5 -12 6 -19
2 -8 -5 -11 -4 -7 2 4 6 -9 31 -28 56 -19 25 -35 49 -35 52 0 4 -8 23 -17 42
-14 31 -18 33 -24 17 -4 -12 -7 0 -7 31 -1 28 -6 63 -11 78 -35 92 27 330 106
404 13 12 23 26 23 31 0 8 32 34 98 79 29 21 81 40 192 72 29 9 114 8 240 -2z
m-3715 -69 c42 -21 115 -94 115 -115 0 -20 30 -15 30 5 1 18 52 55 143 106 48
26 60 28 162 29 96 0 115 -3 150 -23 107 -61 143 -113 166 -245 11 -66 11
-629 -1 -659 -15 -41 -48 -56 -122 -56 -148 0 -148 0 -148 370 0 303 -2 319
-44 352 -23 19 -111 25 -121 8 -3 -5 -13 -10 -21 -10 -9 0 -34 -18 -56 -40
-23 -22 -38 -40 -33 -40 4 0 -1 -12 -11 -27 -32 -50 -43 -139 -44 -358 0 -257
2 -251 -126 -254 -74 -2 -84 0 -110 23 l-29 24 -5 315 c-5 328 -5 328 -50 364
-25 21 -108 16 -143 -9 -52 -35 -97 -81 -97 -98 0 -9 -4 -20 -9 -25 -22 -25
-31 -117 -31 -308 0 -117 -4 -217 -10 -234 -15 -40 -47 -53 -133 -53 -55 0
-78 5 -97 20 l-25 19 -4 430 c-4 477 -5 462 60 495 36 18 95 21 104 6 3 -5 17
-10 30 -10 28 0 62 -43 67 -85 l3 -30 40 41 c47 49 115 87 170 95 66 11 186
-1 230 -23z m5540 2 c13 -13 18 -31 17 -55 -2 -19 -1 -35 1 -35 2 0 17 12 34
28 17 15 55 39 85 55 48 25 63 27 159 27 91 0 112 -3 155 -24 68 -33 109 -78
135 -144 33 -88 33 -175 0 -600 -10 -126 -15 -131 -119 -132 -83 0 -106 9
-126 48 -15 29 -14 62 4 212 13 110 13 346 0 371 -15 27 -63 49 -109 49 -43 0
-131 -33 -131 -50 0 -5 -6 -10 -12 -10 -15 -1 -58 -65 -58 -85 0 -8 -4 -16 -9
-19 -4 -3 -11 -54 -15 -113 -6 -102 -24 -346 -25 -349 -1 -1 -14 -7 -31 -14
-16 -7 -30 -19 -30 -26 0 -8 -4 -14 -10 -14 -5 0 -10 4 -10 9 0 5 -21 11 -47
15 -64 8 -96 26 -103 56 -4 14 -12 24 -18 22 -7 -1 -12 7 -12 19 0 11 4 18 9
14 6 -3 12 9 15 27 7 46 19 335 20 508 1 101 5 149 14 158 6 7 12 22 12 32 0
10 10 26 23 35 31 23 153 13 182 -15z m-946 9 c55 -17 119 -50 159 -81 38 -31
99 -119 109 -158 3 -14 9 -29 13 -35 14 -19 24 -101 24 -200 1 -83 -3 -111
-24 -165 -44 -116 -103 -185 -199 -231 -25 -12 -54 -26 -63 -31 -10 -4 -58 -8
-108 -8 -93 0 -142 14 -187 54 -13 11 -24 18 -26 15 -2 -2 1 -77 6 -166 11
-182 7 -207 -42 -224 -20 -7 -28 -15 -24 -25 3 -9 0 -13 -8 -10 -51 16 -77 15
-82 -4 -3 -13 -14 -20 -30 -20 -25 0 -55 25 -44 37 4 3 9 -2 13 -11 3 -9 16
-16 28 -16 32 0 29 30 -3 41 -41 14 -51 53 -55 204 -2 76 -8 140 -13 144 -5 3
-10 83 -10 176 -1 94 -6 217 -12 275 -5 58 -10 165 -11 237 l-1 133 33 20 c75
46 188 15 188 -52 l0 -31 22 28 c27 34 121 95 147 95 11 0 23 5 26 10 8 13
130 13 174 -1z m531 3 c0 -4 10 -12 22 -17 13 -6 26 -24 30 -43 5 -18 8 -202
6 -407 l-3 -375 -25 -17 c-57 -41 -170 -33 -206 13 -22 27 -22 32 -23 402 -1
334 1 378 16 403 10 16 29 33 43 38 30 11 140 14 140 3z"/>
<path d="M2201 3819 c-17 -16 -21 -32 -21 -79 0 -51 3 -61 26 -79 24 -19 28
-19 55 -5 27 14 29 18 29 79 0 52 -4 69 -20 82 -27 24 -45 24 -69 2z"/>
<path d="M2645 3770 c-11 -4 -49 -38 -84 -74 -55 -56 -65 -71 -64 -100 1 -45
18 -74 48 -82 44 -11 72 4 144 78 84 85 92 118 40 162 -32 27 -50 31 -84 16z"/>
<path d="M1698 3303 c-61 -9 -63 -74 -3 -99 74 -31 145 -5 145 53 0 22 -7 31
-30 42 -23 10 -34 10 -44 1 -10 -7 -16 -8 -21 0 -3 5 -9 9 -13 9 -4 -1 -19 -4
-34 -6z"/>
<path d="M2658 3294 c-36 -19 -37 -56 -2 -83 36 -28 116 -24 145 8 27 28 18
68 -17 81 -37 14 -95 12 -126 -6z"/>
<path d="M1865 2988 c-11 -6 -50 -43 -87 -82 -79 -83 -85 -108 -37 -155 17
-17 37 -31 45 -31 38 0 152 99 186 161 15 28 15 35 3 60 -27 51 -70 70 -110
47z"/>
<path d="M2207 2844 c-25 -14 -27 -19 -27 -78 0 -87 34 -118 88 -80 19 13 22
24 22 78 0 39 -5 67 -12 73 -25 19 -44 21 -71 7z"/>
<path d="M7075 3310 c-3 -5 -15 -10 -25 -10 -34 0 -107 -85 -124 -145 -21 -69
-20 -87 5 -154 37 -103 91 -144 196 -149 75 -4 152 19 153 45 0 6 9 14 19 18
19 6 52 61 60 100 11 55 4 134 -17 177 -22 49 -85 108 -114 108 -9 0 -20 5
-23 10 -3 6 -33 10 -65 10 -32 0 -62 -4 -65 -10z"/>
<path d="M6220 2881 c-8 -5 -31 -12 -50 -16 -84 -17 -130 -61 -130 -122 0 -33
37 -83 60 -83 10 0 22 -4 25 -10 3 -5 18 -10 32 -10 22 0 24 2 12 16 -11 14
-9 15 24 9 32 -6 43 -3 81 26 24 19 49 47 56 64 17 42 29 106 23 122 -6 15
-108 18 -133 4z"/>
<path d="M9382 3068 c-6 -6 -22 -13 -34 -15 -23 -4 -72 -43 -63 -51 2 -2 -2
-11 -10 -19 -50 -50 -42 -273 12 -312 4 -3 13 -15 19 -25 16 -30 74 -56 126
-56 58 0 78 7 78 29 0 13 2 14 9 2 15 -23 75 50 96 115 19 60 16 167 -4 187
-6 6 -11 21 -11 33 0 21 -60 94 -78 94 -5 0 -23 7 -38 15 -35 18 -86 19 -102
3z"/>
</g>
</svg>
