<?xml version="1.0" standalone="no"?>
<!DOCTYPE svg PUBLIC "-//W3C//DTD SVG 20010904//EN"
 "http://www.w3.org/TR/2001/REC-SVG-20010904/DTD/svg10.dtd">
<svg version="1.0" xmlns="http://www.w3.org/2000/svg"
 width="446.000000pt" height="117.000000pt" viewBox="0 0 446.000000 117.000000"
 preserveAspectRatio="xMidYMid meet">

<g transform="translate(0.000000,117.000000) scale(0.100000,-0.100000)"
fill="#000000" stroke="none">
<path d="M2248 1116 c-19 -40 -24 -44 -65 -49 -68 -7 -74 -20 -30 -65 37 -38
37 -40 31 -95 -8 -66 0 -71 66 -37 l39 20 46 -22 c58 -28 71 -18 57 45 -9 44
-8 47 24 78 50 48 45 67 -17 75 -48 6 -52 9 -72 50 -28 58 -51 58 -79 0z"/>
<path d="M220 824 c-26 -11 -40 -13 -52 -5 -28 17 -134 14 -152 -5 -14 -13
-16 -52 -16 -273 0 -299 -2 -291 91 -291 94 0 99 12 99 224 0 153 2 168 20
186 27 27 71 26 98 -3 21 -22 22 -32 22 -195 0 -205 3 -212 95 -212 92 0 95 6
95 215 0 162 2 177 20 195 11 11 33 20 50 20 17 0 39 -9 50 -20 18 -18 20 -33
20 -195 0 -210 2 -215 98 -215 95 0 94 -2 90 252 -3 203 -4 215 -26 251 -36
57 -95 87 -173 87 -67 0 -132 -23 -158 -54 -13 -16 -16 -15 -40 8 -14 14 -39
30 -54 35 -41 16 -136 13 -177 -5z"/>
<path d="M1064 821 c-163 -74 -216 -322 -101 -473 71 -93 199 -133 303 -93 41
16 47 16 63 1 27 -24 125 -22 151 4 19 19 20 33 20 273 0 304 2 297 -95 297
-41 0 -69 -5 -77 -14 -10 -11 -19 -10 -53 5 -54 25 -156 25 -211 0z m180 -165
c47 -19 66 -51 66 -109 0 -83 -37 -126 -107 -127 -63 0 -104 39 -110 106 -6
63 16 110 60 129 41 18 50 18 91 1z"/>
<path d="M1702 818 c-55 -26 -116 -96 -136 -155 -21 -61 -20 -167 1 -229 24
-70 103 -147 173 -168 66 -20 103 -20 163 -2 44 13 47 13 47 -4 0 -32 -12 -50
-41 -65 -40 -21 -108 -19 -147 5 -42 26 -162 29 -186 4 -26 -25 -18 -58 24
-106 61 -69 122 -92 245 -92 112 0 150 12 211 66 75 66 79 85 82 424 4 351 9
334 -92 334 -42 0 -67 -5 -75 -14 -10 -11 -17 -11 -48 5 -52 27 -163 25 -221
-3z m191 -162 c37 -9 67 -59 67 -114 0 -37 -6 -50 -34 -78 -38 -38 -85 -45
-134 -20 -56 29 -74 121 -35 174 19 26 76 53 98 47 5 -2 23 -6 38 -9z"/>
<path d="M2624 820 c-117 -47 -188 -149 -188 -274 -1 -87 14 -132 64 -195 101
-127 335 -150 458 -45 57 49 59 70 11 116 -54 51 -78 56 -126 24 -76 -52 -188
-26 -213 49 -42 127 98 218 216 140 34 -22 74 -18 119 13 72 50 51 107 -59
165 -60 31 -212 35 -282 7z"/>
<path d="M3273 821 c-36 -17 -43 -17 -54 -5 -8 9 -32 14 -75 14 -99 0 -95 17
-92 -395 3 -398 -3 -375 98 -375 80 0 90 13 90 123 0 48 2 87 4 87 2 0 21 -7
42 -16 60 -25 161 -15 221 22 199 123 186 451 -21 545 -55 25 -157 25 -213 0z
m122 -165 c42 -18 65 -61 65 -122 0 -39 -5 -51 -34 -80 -28 -28 -41 -34 -77
-34 -72 1 -109 43 -109 127 0 57 19 89 64 109 40 17 49 17 91 0z"/>
<path d="M4158 822 c-32 -17 -39 -17 -49 -6 -8 9 -33 14 -75 14 -96 0 -94 6
-94 -292 0 -235 1 -249 20 -268 25 -25 114 -28 148 -4 21 15 22 21 22 188 0
160 2 175 21 200 25 32 70 35 99 6 18 -18 20 -33 20 -186 0 -160 6 -198 34
-216 20 -14 111 -8 134 8 21 15 22 20 22 218 0 195 -1 204 -25 252 -36 71 -80
98 -169 102 -55 3 -79 -1 -108 -16z"/>
<path d="M2205 806 c-14 -21 -16 -60 -13 -276 3 -236 4 -253 22 -266 27 -19
116 -18 144 2 22 15 22 18 22 274 0 302 4 290 -95 290 -57 0 -66 -3 -80 -24z"/>
<path d="M3716 814 c-14 -13 -16 -52 -16 -273 0 -299 -3 -291 92 -291 90 0 88
-7 88 298 0 299 6 282 -94 282 -36 0 -60 -5 -70 -16z"/>
</g>
</svg>
