<?xml version="1.0" encoding="utf-8"?>
<!-- Generator: Adobe Illustrator 23.0.2, SVG Export Plug-In . SVG Version: 6.00 Build 0)  -->
<svg version="1.1" id="Layer_1" xmlns="http://www.w3.org/2000/svg" xmlns:xlink="http://www.w3.org/1999/xlink" x="0px" y="0px"
	 viewBox="0 0 95 34" style="enable-background:new 0 0 95 34;" xml:space="preserve">
<style type="text/css">
	.st0{fill:#FFFFFF;stroke:#D8D8D8;stroke-miterlimit:10;}
	.st1{fill:#FF4612;}
	.st2{fill:#131718;}
	.st3{fill:#EA5753;}
</style>
<g>
	<rect x="-146" y="-64.3" class="st0" width="95" height="34"/>
	<g>
		<path class="st1" d="M-136.2-47.6c0,2.7-2.3,3.3-5.5,3.2c0.1,1.3,0.7,2.3,2.3,2.3c0.8,0,1.7-0.3,2.4-0.8l0.7,1.6
			c-1,0.6-2.1,1-3.3,1c-3.2,0-4.4-2.1-4.4-4.7c0-2.9,1.6-5.2,4.6-5.2C-137.4-50.2-136.2-49.4-136.2-47.6 M-139.4-48.6
			c-1.5,0-2.1,1.4-2.3,2.6c0.3,0,0.5,0,0.8,0c1.6,0,2.7-0.4,2.7-1.5C-138.2-48.3-138.7-48.6-139.4-48.6"/>
		<path class="st1" d="M-126.6-42.4c0,0.4,0.1,0.5,0.4,0.5l0.5,0v1.4h-2.8l-0.1-1h-0.1c-0.6,0.8-1.6,1.3-2.6,1.3
			c-2.8,0-3.7-2-3.7-4.6c0-3.3,1.6-5.4,4.9-5.4c1.1,0,2.2,0.3,3.3,0.7V-42.4z M-128.8-48.3c-0.4-0.2-0.9-0.3-1.4-0.2
			c-1.9,0-2.4,1.7-2.4,3.6c0,1.5,0.4,2.9,1.9,2.9c1,0.1,1.8-0.6,1.9-1.6c0-0.1,0-0.1,0-0.2L-128.8-48.3z"/>
		<path class="st1" d="M-116.9-50v1.3l-5,6.6h3.5c0.4,0,0.6-0.5,0.6-0.5l0.9-0.7l-0.4,2.8h-7.3v-1.4l5-6.5h-2.5
			c-0.4,0-0.5,0.1-0.5,0.5v0.9l-1.8-0.1V-50H-116.9z"/>
		<path class="st1" d="M-97.5-42.5c0,0.4,0,0.5,0.4,0.6l0.6,0.1v1.4h-2.8l-0.1-1h-0.1c-0.6,0.8-1.6,1.3-2.6,1.3
			c-2.9,0-3.7-2.2-3.7-4.7c0-3.1,1.6-5.3,4.4-5.3c0.6,0,1.1,0.1,1.6,0.3v-1.9c0-0.4-0.1-0.5-0.5-0.5l-0.6-0.1v-1.4h3.2L-97.5-42.5z
			 M-99.7-43.6v-4.5c-0.5-0.2-1-0.3-1.5-0.3c-1.7,0-2.3,1.5-2.3,3.4c0,1.7,0.4,3.2,1.9,3.2C-100.4-42-99.7-42.7-99.7-43.6"/>
		<path class="st1" d="M-92.1-42l1,0.1v1.4h-4.2v-1.4l0.6-0.1c0.4-0.1,0.4-0.2,0.4-0.6v-5.4c0-0.4-0.1-0.5-0.5-0.6l-0.6,0V-50h3.3
			V-42z M-93.3-53.9c0.7-0.1,1.3,0.5,1.4,1.2c0,0,0,0.1,0,0.1c0,0.7-0.6,1.3-1.3,1.3c0,0-0.1,0-0.1,0c-0.7,0.1-1.4-0.4-1.5-1.1
			c-0.1-0.7,0.4-1.4,1.1-1.5C-93.6-54-93.4-54-93.3-53.9"/>
		<path class="st1" d="M-89-47.9c0-0.4-0.1-0.5-0.5-0.6l-0.6,0V-50h3.1v1.3l0,0c0.6-1,1.7-1.6,2.9-1.5c1.9,0,2.9,1,2.9,3.2v5l1,0.1
			v1.4h-4.1v-1.3l0.6-0.1c0.3-0.1,0.4-0.2,0.4-0.5v-4c0-1.1-0.3-1.9-1.5-1.9c-1.1,0-1.9,0.8-2,1.9c0,0,0,0.1,0,0.1v4.4l0.9,0.1v1.4
			H-90v-1.4l0.6-0.1c0.4,0,0.4-0.2,0.4-0.5L-89-47.9z"/>
		<path class="st1" d="M-71.3-47.6c0,2.7-2.3,3.3-5.5,3.2c0.1,1.3,0.7,2.3,2.3,2.3c0.8,0,1.7-0.3,2.4-0.8l0.7,1.6
			c-1,0.6-2.1,1-3.3,1c-3.2,0-4.3-2.1-4.3-4.7c0-2.9,1.6-5.2,4.6-5.2C-72.4-50.2-71.3-49.4-71.3-47.6 M-74.4-48.6
			c-1.5,0-2.2,1.4-2.3,2.6c0.3,0,0.5,0,0.8,0c1.6,0,2.7-0.4,2.7-1.5C-73.3-48.3-73.7-48.6-74.4-48.6"/>
		<path class="st1" d="M-66.8-46.4v4.4l1.5,0.1v1.4H-70v-1.4l0.6-0.1C-69-42-69-42.1-69-42.5V-48c0-0.4-0.1-0.5-0.4-0.5l-0.6,0V-50
			h3.1v1.4l0,0c0.4-1.1,1.5-1.7,2.7-1.7c0.6,0,1.2,0.1,1.7,0.4v3.1l-1.9,0.1v-1.2c0-0.3,0-0.4-0.2-0.5c-0.2-0.1-0.3-0.1-0.5-0.1
			C-66.2-48.4-66.8-47.5-66.8-46.4"/>
		<path class="st1" d="M-110.1-50v1.4l0.8,0.1l-1.8,5.4h-0.1l-1.6-5c-0.1-0.3,0-0.5,0.3-0.5l0.5,0V-50h-4v1.4l0.8,0.1l3,8.2
			l-0.3,0.8c-0.4,0.9-0.9,1.1-1.7,1.2c-0.6,0-1.2-0.1-1.7-0.4c-1.2-0.6-1.5-2.6-0.2-3.1c0.4-0.2,0.9,0.5,1.4-0.2
			c0.3-0.4,0.1-1-0.3-1.2c0,0,0,0-0.1,0c-1.4-1-3.4,0.2-3.6,1.8c-0.3,1.7,0.3,3.5,1.7,4.3c0.8,0.5,1.8,0.8,2.8,0.7
			c1.8-0.1,3-1.5,3.9-4l2.8-7.6c0.2-0.4,0.2-0.5,0.6-0.5l0.4,0V-50H-110.1z"/>
		<path class="st2" d="M-57.4-58c-0.1-0.2-0.2-0.3-0.4-0.3l0,0c-0.2,0-0.3,0.1-0.4,0.3c-0.2,0.4-0.3,0.9-0.2,1.4
			c0.1,0.1,0.2,0.3,0.3,0.3c0,0,0.2,0,0.2,0.2l-0.1,1.9h0.4l-0.1-1.9c0-0.1,0.2-0.2,0.2-0.2c0.2,0,0.3-0.2,0.3-0.3
			C-57.1-57-57.2-57.5-57.4-58"/>
		<path class="st1" d="M-54.5-56.4c0.1-0.2,0-0.4-0.1-0.5l0,0C-54.7-57-54.9-57-55-57c-0.5,0.1-0.9,0.4-1.1,0.9
			c-0.1,0.1-0.1,0.3,0,0.4c0.1,0.1,0.1,0.2,0,0.2l-1.4,1.2l0.1,0.1l0,0l0.1,0.1l1.2-1.4c0.1-0.1,0.2-0.1,0.2,0
			c0.1,0.1,0.3,0.1,0.4,0C-54.9-55.5-54.6-55.9-54.5-56.4"/>
		<path class="st2" d="M-53.5-53.2c0.2-0.1,0.3-0.2,0.3-0.4l0,0c0-0.2-0.1-0.3-0.3-0.4c-0.4-0.2-0.9-0.3-1.4-0.2
			c-0.1,0.1-0.3,0.2-0.3,0.3c0,0,0,0.2-0.2,0.2l-1.9-0.1v0.2l0,0v0.2l1.9-0.1c0.1,0,0.2,0.2,0.2,0.2c0,0.2,0.2,0.3,0.3,0.3
			C-54.4-52.9-53.9-53-53.5-53.2"/>
		<path class="st2" d="M-55-50.2c0.2,0.1,0.4,0,0.5-0.1l0,0c0.1-0.1,0.1-0.3,0.1-0.5c-0.1-0.5-0.4-0.9-0.9-1.1
			c-0.1-0.1-0.3-0.1-0.4,0c-0.1,0.1-0.2,0.1-0.2,0l-1.2-1.4l-0.1,0.1l0,0l-0.2,0.2l1.4,1.2c0.1,0.1,0.1,0.2,0,0.2
			c-0.1,0.1-0.1,0.3,0,0.4C-55.9-50.7-55.5-50.4-55-50.2"/>
		<path class="st2" d="M-58.2-49.2c0.1,0.2,0.2,0.3,0.4,0.3l0,0c0.2,0,0.3-0.1,0.4-0.3c0.2-0.4,0.3-0.9,0.2-1.4
			c-0.1-0.1-0.2-0.3-0.3-0.3c0,0-0.2,0-0.2-0.2l0.1-1.9h-0.4l0.1,1.9c0,0.1-0.2,0.2-0.2,0.2c-0.2,0-0.3,0.2-0.3,0.3
			C-58.6-50.2-58.5-49.7-58.2-49.2"/>
		<path class="st2" d="M-61.2-50.8c-0.1,0.2,0,0.4,0.1,0.5l0,0c0.1,0.1,0.3,0.1,0.5,0.1c0.5-0.1,0.9-0.4,1.1-0.9
			c0.1-0.1,0.1-0.3,0-0.4c-0.1-0.1-0.1-0.2,0-0.2l1.4-1.2l-0.1-0.1l0,0l-0.2-0.2l-1.2,1.4c-0.1,0.1-0.2,0.1-0.2,0
			c-0.1-0.1-0.3-0.1-0.4,0C-60.8-51.7-61.1-51.3-61.2-50.8"/>
		<path class="st2" d="M-62.2-54c-0.2,0.1-0.3,0.2-0.3,0.4l0,0c0,0.2,0.1,0.3,0.3,0.4c0.4,0.2,0.9,0.3,1.4,0.2
			c0.1-0.1,0.3-0.2,0.3-0.3c0,0,0-0.2,0.2-0.2l1.9,0.1v-0.2l0,0v-0.2l-1.9,0.1c-0.1,0-0.2-0.2-0.2-0.2c0-0.2-0.2-0.3-0.3-0.3
			C-61.3-54.3-61.8-54.3-62.2-54"/>
		<path class="st2" d="M-60.6-57c-0.2-0.1-0.4,0-0.5,0.1l0,0c-0.1,0.1-0.1,0.3-0.1,0.5c0.1,0.5,0.4,0.9,0.9,1.1
			c0.1,0.1,0.3,0.1,0.4,0c0.1-0.1,0.2-0.1,0.2,0l1.3,1.4l0.1-0.1l0,0l0.1-0.1l-1.4-1.2c-0.1-0.1-0.1-0.2,0-0.2
			c0.1-0.1,0.1-0.3,0-0.4C-59.8-56.5-60.2-56.8-60.6-57"/>
	</g>
</g>
<g>
	<g>
		<rect class="st0" width="95" height="34"/>
	</g>
	<g id="Page-1_1_">
		<g id="nearbuy_red_1_">
			<path id="Shape_1_" class="st3" d="M43.4,11.7c0,0.3,0.1,8.4,0,11.1c0,0.1,0,0.1,0,0.2c-0.1,0-0.1,0-0.2,0c-0.9,0-1.9,0-2.8,0
				c0,0-0.1,0-0.1,0c0-0.1,0-0.1,0-0.2c0-0.3,0-0.5,0-0.8v-0.3c0,0-0.1,0-0.1,0.1c-0.3,0.3-0.7,0.5-1.1,0.7c-0.5,0.2-1,0.4-1.5,0.5
				c-0.5,0.1-0.9,0-1.4,0c-0.6-0.1-1.2-0.2-1.7-0.4c-0.6-0.2-1.2-0.6-1.7-1c-0.4-0.4-0.8-0.8-1.1-1.3c-0.7-1.1-1.1-2.3-1.1-3.6
				c0-1.5,0.4-2.9,1.4-4.1c0.8-1,1.8-1.7,3-2.1c0.4-0.1,0.7-0.2,1.1-0.2c0.2,0,0.5,0,0.7-0.1c0.1,0,0.2,0,0.2,0c0.1,0,0.1,0,0.2,0
				c0.5,0,1,0.1,1.5,0.3c0.6,0.2,1.1,0.5,1.6,1c0.4,0.3,0.9,0.6,1.4,0.6c0.1,0,0.3,0,0.5,0c0.4-0.1,0.9-0.1,1.2-0.4
				C43.4,11.8,43.4,11.8,43.4,11.7L43.4,11.7z M33.8,16.7c0,0.2,0,0.3,0,0.5c0.1,0.4,0.2,0.7,0.4,1.1c0.2,0.3,0.4,0.6,0.6,0.8
				c0.3,0.3,0.7,0.5,1,0.7c0.4,0.2,0.8,0.2,1.2,0.2c0.2,0,0.4,0,0.6,0c0.6-0.1,1.2-0.3,1.7-0.8c0.4-0.3,0.7-0.8,0.9-1.2
				c0.1-0.3,0.2-0.7,0.2-1c0-0.2,0-0.5,0-0.7c-0.1-0.6-0.4-1.2-0.8-1.6c-0.3-0.3-0.6-0.6-1-0.7c-0.5-0.2-1-0.4-1.5-0.4
				c-0.3,0-0.5,0-0.8,0.1c-0.8,0.2-1.5,0.7-1.9,1.3C33.9,15.4,33.7,16.1,33.8,16.7z"/>
			<path class="st3" d="M28.9,17.5c0,0-0.1,0-0.1,0c-0.1,0-0.2,0-0.3,0h-9c-0.1,0-0.2,0-0.3,0c0,0.1,0,0.3,0.1,0.4
				c0.5,1.2,1.4,1.9,2.6,2.3c0.3,0.1,0.5,0.1,0.8,0.1c0.1,0,0.2,0,0.3,0c0.4,0,0.8-0.1,1.2-0.2c0.2-0.1,0.4-0.1,0.6-0.2
				c0.3-0.1,0.6-0.1,1,0c0.4,0.1,0.7,0.3,1,0.5c0.1,0.1,0.2,0.2,0.2,0.3c0.1,0.2,0.3,0.4,0.4,0.5c0,0,0,0.1,0,0.1
				c-0.1,0.1-0.3,0.3-0.5,0.4c-0.7,0.5-1.5,0.8-2.3,1c-0.3,0.1-0.6,0.1-0.9,0.2c-0.4,0-0.8,0.1-1.2,0c0,0-0.1,0-0.1,0
				c-0.4,0-0.7-0.1-1.1-0.1c-0.4-0.1-0.9-0.2-1.3-0.4c-0.7-0.3-1.4-0.7-2-1.2c-0.7-0.6-1.2-1.3-1.6-2c-0.2-0.5-0.4-1-0.5-1.6
				c-0.2-1.2-0.1-2.5,0.4-3.6c0.2-0.5,0.5-0.9,0.8-1.3c0.3-0.4,0.6-0.7,0.9-1c0.4-0.3,0.8-0.6,1.3-0.8c0.5-0.2,1-0.4,1.6-0.5
				c0.2-0.1,0.5-0.1,0.7-0.1c0.5-0.1,0.9-0.1,1.4,0c1.2,0.1,2.4,0.5,3.4,1.2c0.7,0.5,1.2,1.2,1.6,1.9c0.3,0.6,0.5,1.2,0.6,1.8
				c0,0.2,0,0.4,0.1,0.6c0.1,0.5,0,1,0,1.5C28.9,17.4,28.9,17.4,28.9,17.5L28.9,17.5z M19.4,14.9c0.1,0,0.1,0,0.2,0
				c1.7,0,5.7,0,5.9,0c0-0.1,0-0.1-0.1-0.2c-0.2-0.4-0.5-0.8-0.8-1.1c-0.2-0.2-0.5-0.3-0.8-0.5c-0.4-0.2-0.8-0.2-1.2-0.3
				c-0.1,0-0.2,0-0.2,0c-0.1,0-0.1,0-0.2,0c-0.5,0-0.9,0.2-1.3,0.4c-0.5,0.3-1,0.7-1.3,1.3C19.5,14.7,19.5,14.8,19.4,14.9z"/>
			<path id="Path_1_" class="st3" d="M2.6,22.9c0-0.1,0-0.2,0-0.3v-7c0-0.1,0-0.3,0-0.4c0,0,0-0.1,0-0.1c0-0.9,0.5-2,1-2.7
				c0.6-0.7,1.3-1.3,2.1-1.7c0.5-0.2,1-0.4,1.5-0.5c0.4-0.1,0.9-0.1,1.3-0.1c0.1,0,0.1,0,0.2,0c0.6,0,1.1,0.1,1.7,0.2
				c0.8,0.2,1.5,0.6,2.1,1.1c1,0.7,1.6,1.8,1.9,3c0.1,0.3,0.1,0.7,0.1,1c0,1.7,0,3.4,0,5.2c0,0.5-0.2,1-0.5,1.4
				c-0.3,0.4-0.7,0.7-1.2,0.8c-0.2,0.1-0.4,0.1-0.6,0.1c-0.2,0-0.4,0-0.6,0c-0.1,0-0.1,0-0.2,0c0-0.1,0-0.1,0-0.2c0-0.1,0-0.2,0-0.2
				c0-2.2,0-4.4,0-6.6c0-0.8-0.3-1.5-0.7-2.1c-0.2-0.3-0.5-0.5-0.8-0.6C9.3,13.1,9,13,8.6,13c-0.3,0-0.6,0-0.8,0.1
				c-0.4,0.1-0.8,0.4-1.1,0.7c-0.4,0.4-0.6,0.9-0.7,1.4c-0.1,0.4-0.1,0.8-0.1,1.2c0,1.5,0,2.9,0,4.4c0,0.5-0.2,0.9-0.4,1.2
				c-0.3,0.4-0.7,0.7-1.2,0.8c-0.2,0.1-0.4,0.1-0.6,0.1c-0.2,0-0.5,0-0.7,0C2.8,22.9,2.7,22.9,2.6,22.9z"/>
			<path class="st3" d="M45.2,23v-0.4c0-2.2,0-4.3,0-6.5c0-0.1,0-0.3,0-0.4c0-0.1,0-0.1,0-0.2c0.1-0.3,0.1-0.7,0.1-1.1
				c0.2-0.7,0.5-1.4,0.9-2c0.4-0.5,0.8-0.9,1.3-1.2c0.6-0.4,1.3-0.7,2-0.8c0.3-0.1,0.5-0.1,0.8-0.1h0h0.8c0,0,0,0.1,0,0.2
				c0,0.9,0,1.7,0,2.6c0,0.1,0,0.1,0,0.2c-0.1,0-0.1,0-0.2,0c-0.5,0-1,0.1-1.4,0.4c-0.5,0.3-0.8,0.8-1,1.4c-0.1,0.2-0.1,0.4-0.1,0.6
				c0,0.2,0,0.5,0,0.7c0,1.4,0,2.8,0,4.2c0,0.4-0.1,0.8-0.3,1.2c-0.3,0.5-0.8,0.9-1.4,1C46.6,23,46.4,23,46.2,23c-0.2,0-0.5,0-0.7,0
				C45.4,23,45.3,23,45.2,23z"/>
			<path class="st3" d="M52.8,5.3c0.1,0,0.2,0,0.2,0c0.4,0,0.8,0,1.2,0c0.3,0,0.7,0.2,0.9,0.4c0.5,0.3,0.8,0.8,0.9,1.4
				c0,0.1,0,0.3,0,0.5c0,1.2,0,2.4,0,3.6v0.3c0,0,0.1,0,0.1,0c0.6-0.5,1.3-0.9,2.1-1.1c0.3-0.1,0.7-0.1,1.1-0.1c0.1,0,0.2,0,0.3,0
				c1.3,0,2.6,0.5,3.6,1.3c0.2,0.2,0.5,0.4,0.7,0.6c0.3,0.3,0.5,0.7,0.7,1c0.4,0.6,0.6,1.3,0.8,1.9c0.1,0.3,0.1,0.6,0.1,0.8
				c0,0.1,0,0.1,0,0.2c0,0.2,0,0.4,0,0.6c0,0.6-0.1,1.2-0.3,1.7c-0.2,0.8-0.6,1.5-1.1,2.1c-0.2,0.3-0.5,0.6-0.8,0.9
				c-0.4,0.3-0.8,0.6-1.3,0.8c-0.6,0.3-1.2,0.5-1.8,0.6c-0.5,0.1-1.1,0.1-1.6,0.1c-0.7,0-1.4-0.2-2-0.5c-0.4-0.2-0.9-0.5-1.3-0.8
				c-0.4-0.3-0.7-0.6-1.1-1c-0.3-0.4-0.6-0.9-0.9-1.3c-0.3-0.5-0.4-1-0.5-1.6c0-0.3-0.1-0.5-0.1-0.8c-0.1-0.5,0-1,0-1.4
				c0-3.3,0-6.6,0-9.9C52.8,5.5,52.8,5.4,52.8,5.3z M59.2,20c1,0,1.8-0.4,2.3-0.9c0.6-0.6,1-1.4,1-2.3c0-1.5-1-2.8-2.4-3.2
				c-1.4-0.4-2.9,0.2-3.7,1.5s-0.5,2.9,0.5,4C57.5,19.7,58.3,20.1,59.2,20L59.2,20z"/>
			<path class="st3" d="M80.6,10.2h0.3c0.3,0,0.5,0,0.8,0c0.7,0,1.3,0.3,1.7,0.9c0.2,0.3,0.4,0.6,0.4,1c0,0.1,0,0.2,0,0.2
				c0,1.5,0,3,0,4.5c0,0.2,0,0.4,0,0.5c0,0.2,0,0.4,0.1,0.5c0.1,0.5,0.3,1,0.6,1.4c0.3,0.4,0.8,0.7,1.4,0.8c0.5,0.1,1.1,0.1,1.6-0.1
				c0.4-0.1,0.7-0.3,1-0.6c0.3-0.3,0.5-0.7,0.7-1.2c0.1-0.4,0.2-0.7,0.2-1.1c0-2.2,0-4.4,0-6.6c0-0.1,0-0.2,0-0.3c0.1,0,0.1,0,0.2,0
				c0.2,0,0.5,0,0.8,0c0.4,0,0.8,0.1,1.2,0.3c0.5,0.4,0.9,0.9,1,1.6c0,0.2,0,0.3,0,0.5c0,3.2,0,6.4,0,9.6c0,0.9-0.2,1.8-0.5,2.6
				c-0.2,0.6-0.5,1.1-0.9,1.6c-0.6,0.7-1.2,1.2-2,1.6c-0.6,0.3-1.2,0.5-1.9,0.6c-0.4,0.1-0.9,0.1-1.3,0.1c-0.1,0-0.1,0-0.2,0
				c0-0.1,0-0.1,0-0.2c0-0.4,0-0.8,0-1.2c0-0.4,0.2-0.8,0.5-1.1c0.2-0.3,0.5-0.4,0.8-0.6c0.3-0.1,0.7-0.3,1-0.5
				c0.7-0.5,1.1-1.2,1.3-2c0.1-0.4,0.1-0.7,0.1-1.1c0,0,0-0.1,0-0.1c0,0-0.1,0-0.1,0c-0.4,0.4-0.8,0.7-1.3,0.8
				c-0.3,0.1-0.6,0.2-0.9,0.2c-0.1,0-0.3,0-0.4,0c-1,0-1.9-0.2-2.8-0.6C83,22,82.4,21.6,81.9,21c-0.6-0.7-1-1.5-1.2-2.3
				c-0.1-0.3-0.1-0.5-0.1-0.8c-0.1-0.5,0-0.9,0-1.4c0-2,0-3.9,0-5.9C80.6,10.5,80.6,10.4,80.6,10.2L80.6,10.2z"/>
			<path class="st3" d="M75.9,10.2h1c0.6,0,1.1,0.2,1.5,0.6c0.4,0.3,0.6,0.8,0.7,1.3c0,0.1,0,0.1,0,0.2v5.5c0,0.4-0.1,0.7-0.2,1.1
				c-0.2,0.7-0.5,1.3-0.9,1.9c-0.4,0.5-0.8,0.9-1.3,1.2c-0.7,0.4-1.5,0.7-2.3,0.9c-0.6,0.1-1.2,0.1-1.8,0.1
				c-0.9-0.1-1.7-0.3-2.5-0.7c-0.6-0.3-1.1-0.7-1.5-1.2c-0.5-0.5-0.9-1.2-1.1-1.9c-0.1-0.3-0.2-0.6-0.2-0.9c0-0.3-0.1-0.5-0.1-0.8
				c0-2.3,0-4.6,0-6.9v-0.3c0.1,0,0.1,0,0.2,0c0.4,0,0.7,0,1.1,0c0.1,0,0.3,0,0.4,0.1c0.3,0.1,0.6,0.3,0.9,0.5
				c0.3,0.3,0.6,0.7,0.7,1.2c0,0.1,0,0.2,0,0.3c0,1.6,0,3.1,0,4.7c0,0.2,0,0.3,0,0.5c0,0.2,0,0.4,0.1,0.6c0.1,0.5,0.3,0.9,0.6,1.3
				c0.4,0.5,0.9,0.8,1.5,0.9c0.5,0.1,1.1,0.1,1.6-0.1c0.5-0.2,0.9-0.5,1.2-1c0.2-0.4,0.4-0.8,0.4-1.3c0-0.2,0-0.4,0-0.6
				c0-2.2,0-4.4,0-6.5C75.8,10.5,75.8,10.4,75.9,10.2z"/>
			<polygon points="3.6,26 2.6,26 2.6,25.3 5.4,25.3 5.4,26 4.3,26 4.3,28.7 3.6,28.7 			"/>
			<polygon points="7.8,25.3 8.6,25.3 8.6,26.7 9.9,26.7 9.9,25.3 10.7,25.3 10.7,28.7 9.9,28.7 9.9,27.3 8.6,27.3 8.6,28.7 
				7.8,28.7 			"/>
			<polygon points="13.4,25.3 15.9,25.3 15.9,26 14.1,26 14.1,26.7 15.7,26.7 15.7,27.3 14.1,27.3 14.1,28 15.9,28 15.9,28.7 
				13.4,28.7 			"/>
			<polygon points="21.8,25.3 22.6,25.3 22.6,28 24.3,28 24.3,28.7 21.8,28.7 			"/>
			<polygon points="26.8,25.3 27.5,25.3 27.5,28.7 26.8,28.7 			"/>
			<polygon points="30.2,25.3 32.8,25.3 32.8,26 31,26 31,26.7 32.6,26.7 32.6,27.4 31,27.4 31,28.7 30.2,28.7 			"/>
			<polygon points="35.3,25.3 37.8,25.3 37.8,26 36,26 36,26.7 37.6,26.7 37.6,27.3 36,27.3 36,28 37.8,28 37.8,28.7 35.3,28.7 			
				"/>
			<path d="M41.6,28.7c-0.3,0-0.5,0-0.8-0.1c-0.2-0.1-0.5-0.2-0.7-0.4l0.4-0.5c0.1,0.1,0.3,0.2,0.5,0.3c0.2,0.1,0.3,0.1,0.5,0.1
				c0.1,0,0.2,0,0.4-0.1c0.1,0,0.1-0.1,0.1-0.2v0c0,0,0-0.1,0-0.1c0,0-0.1-0.1-0.1-0.1c-0.1,0-0.1-0.1-0.2-0.1
				c-0.1,0-0.2-0.1-0.3-0.1c-0.2,0-0.3-0.1-0.5-0.1c-0.1,0-0.2-0.1-0.3-0.2c-0.1-0.1-0.2-0.2-0.2-0.3c-0.1-0.1-0.1-0.3-0.1-0.4v0
				c0-0.1,0-0.3,0.1-0.4c0.1-0.1,0.1-0.2,0.2-0.3c0.1-0.1,0.2-0.2,0.4-0.2c0.2,0,0.3-0.1,0.5-0.1c0.2,0,0.5,0,0.7,0.1
				c0.2,0.1,0.4,0.2,0.6,0.3l-0.4,0.6c-0.1-0.1-0.3-0.2-0.4-0.2c-0.1-0.1-0.3-0.1-0.4-0.1c-0.1,0-0.2,0-0.3,0.1
				c-0.1,0-0.1,0.1-0.1,0.2v0c0,0,0,0.1,0,0.1c0,0,0.1,0.1,0.1,0.1c0.1,0,0.1,0.1,0.2,0.1c0.1,0,0.2,0.1,0.4,0.1
				c0.2,0,0.3,0.1,0.5,0.2c0.1,0,0.2,0.1,0.3,0.2c0.1,0.1,0.2,0.2,0.2,0.3c0,0.1,0.1,0.2,0.1,0.4v0c0,0.2,0,0.3-0.1,0.4
				c-0.1,0.1-0.1,0.2-0.3,0.3c-0.1,0.1-0.2,0.2-0.4,0.2C41.9,28.7,41.8,28.7,41.6,28.7z"/>
			<polygon points="46.2,26 45.1,26 45.1,25.3 47.9,25.3 47.9,26 46.9,26 46.9,28.7 46.2,28.7 			"/>
			<polygon points="51.3,27.4 50,25.3 50.9,25.3 51.7,26.7 52.5,25.3 53.4,25.3 52.1,27.4 52.1,28.7 51.3,28.7 			"/>
			<polygon points="55.7,25.3 56.5,25.3 56.5,28 58.1,28 58.1,28.7 55.7,28.7 			"/>
			<polygon points="60.6,25.3 63.1,25.3 63.1,26 61.3,26 61.3,26.7 62.9,26.7 62.9,27.3 61.3,27.3 61.3,28 63.1,28 63.1,28.7 
				60.6,28.7 			"/>
			<path d="M70.2,25.3h0.7l1.4,3.4h-0.8l-0.3-0.8h-1.4l-0.3,0.8h-0.8L70.2,25.3z M71,27.3l-0.4-1.1l-0.4,1.1H71z"/>
			<path d="M74.8,25.3h1.4c0.2,0,0.4,0,0.5,0.1c0.1,0.1,0.3,0.1,0.4,0.2c0.1,0.1,0.2,0.2,0.3,0.4c0.1,0.1,0.1,0.3,0.1,0.5v0
				c0,0.2,0,0.4-0.1,0.5c-0.1,0.1-0.2,0.3-0.3,0.4c-0.1,0.1-0.3,0.2-0.4,0.2c-0.2,0.1-0.3,0.1-0.5,0.1h-0.6v1h-0.7V25.3z M76.1,27
				c0.2,0,0.3,0,0.4-0.1c0.1-0.1,0.2-0.2,0.2-0.4v0c0-0.1,0-0.3-0.2-0.4C76.4,26,76.2,26,76.1,26h-0.6v1L76.1,27z"/>
			<path d="M79.9,25.3h1.4c0.2,0,0.4,0,0.5,0.1c0.1,0.1,0.3,0.1,0.4,0.2c0.1,0.1,0.2,0.2,0.3,0.4c0.1,0.1,0.1,0.3,0.1,0.5v0
				c0,0.2,0,0.4-0.1,0.5c-0.1,0.1-0.2,0.3-0.3,0.4c-0.1,0.1-0.3,0.2-0.4,0.2c-0.2,0.1-0.3,0.1-0.5,0.1h-0.6v1h-0.7L79.9,25.3z
				 M81.2,27c0.2,0,0.3,0,0.4-0.1c0.1-0.1,0.2-0.2,0.2-0.4v0c0-0.1-0.1-0.3-0.2-0.4C81.5,26,81.3,26,81.2,26h-0.6v1H81.2z"/>
		</g>
	</g>
</g>
<g>
	<g>
		<rect x="-7.7" y="-64.3" class="st0" width="95" height="34"/>
	</g>
	
		<image style="overflow:visible;" width="168" height="56" xlink:href="20FCC921.png"  transform="matrix(0.508 0 0 0.508 -2.8349 -61.5655)">
	</image>
</g>
</svg>
