<svg xmlns="http://www.w3.org/2000/svg" width="47" height="48" viewBox="0 0 47 48">
  <g id="Group_733" data-name="Group 733" transform="translate(0.284 0.438)">
    <g id="Ellipse_25" data-name="Ellipse 25" transform="translate(-0.284 -0.438)" fill="rgba(249,163,26,0)" stroke="#f9a31a" stroke-width="2">
      <ellipse cx="23.5" cy="24" rx="23.5" ry="24" stroke="none"/>
      <ellipse cx="23.5" cy="24" rx="22.5" ry="23" fill="none"/>
    </g>
    <g id="back" transform="translate(18.706 14.527)">
      <path id="Path_8807" data-name="Path 8807" d="M113.716,8.786l7.94-7.94a.5.5,0,1,0-.7-.7l-8.294,8.294a.493.493,0,0,0,0,.7l8.294,8.294a.5.5,0,0,0,.35.147.485.485,0,0,0,.35-.147.493.493,0,0,0,0-.7Z" transform="translate(-112.511 0.003)" fill="#f9a31a" stroke="#f9a31a" stroke-width="1"/>
      <path id="Path_8808" data-name="Path 8808" d="M113.716,8.786l7.94-7.94a.5.5,0,1,0-.7-.7l-8.294,8.294a.493.493,0,0,0,0,.7l8.294,8.294a.5.5,0,0,0,.35.147.485.485,0,0,0,.35-.147.493.493,0,0,0,0-.7Z" transform="translate(-112.511 0.003)" fill="#f9a31a" stroke="#f9a31a" stroke-width="1"/>
      <path id="Path_8809" data-name="Path 8809" d="M113.716,8.786l7.94-7.94a.5.5,0,1,0-.7-.7l-8.294,8.294a.493.493,0,0,0,0,.7l8.294,8.294a.5.5,0,0,0,.35.147.485.485,0,0,0,.35-.147.493.493,0,0,0,0-.7Z" transform="translate(-112.511 0.003)" fill="#f9a31a" stroke="#f9a31a" stroke-width="1"/>
    </g>
  </g>
</svg>
