<svg xmlns="http://www.w3.org/2000/svg" width="156" height="82.999" viewBox="0 0 156 82.999">
  <g id="Group_86" data-name="Group 86" transform="translate(-272 -697.001)">
    <path id="home-run" d="M43.76,20.007l0,0L25.621,1.24a4,4,0,0,0-5.788,0L1.707,19.994l-.018.019a4.345,4.345,0,0,0,.008,5.98,4.007,4.007,0,0,0,2.716,1.235c.042,0,.084.006.127.006h.722V41.043A4.881,4.881,0,0,0,10.051,46h7.1a1.326,1.326,0,0,0,1.3-1.348V33.825a2.227,2.227,0,0,1,2.186-2.261h4.185A2.227,2.227,0,0,1,27,33.825V44.651A1.326,1.326,0,0,0,28.307,46h7.1a4.881,4.881,0,0,0,4.79-4.956V27.234h.67a4,4,0,0,0,2.894-1.241,4.346,4.346,0,0,0,0-5.986Zm-1.845,4.081a1.454,1.454,0,0,1-1.052.451H38.89a1.326,1.326,0,0,0-1.3,1.348V41.043A2.227,2.227,0,0,1,35.4,43.3H29.61V33.825a4.881,4.881,0,0,0-4.79-4.956H20.634a4.881,4.881,0,0,0-4.791,4.956V43.3H10.051a2.227,2.227,0,0,1-2.185-2.261V25.887a1.326,1.326,0,0,0-1.3-1.348H4.624l-.061,0a1.453,1.453,0,0,1-1.025-.449,1.58,1.58,0,0,1,0-2.177h0L21.675,3.146a1.452,1.452,0,0,1,2.1,0L41.909,21.9l.008.008a1.581,1.581,0,0,1,0,2.175Zm0,0" transform="translate(327.5 697.001)" fill="#fff"/>
    <text id="Choose_Location_" data-name="Choose Location
" transform="translate(350 769)" fill="#fff" font-size="29" font-family="Mistral" letter-spacing="0.022em"><tspan x="-77.844" y="0">Choose Location</tspan><tspan x="0" y="2"></tspan></text>
  </g>
</svg>
