<?xml version="1.0" encoding="utf-8"?>
<!-- Generator: Adobe Illustrator 24.1.1, SVG Export Plug-In . SVG Version: 6.00 Build 0)  -->
<svg version="1.1" id="Layer_1" xmlns="http://www.w3.org/2000/svg" xmlns:xlink="http://www.w3.org/1999/xlink" x="0px" y="0px"
	 viewBox="0 0 112 92" style="enable-background:new 0 0 112 92;" xml:space="preserve">
<style type="text/css">
	.st0{fill:#FFFFFF;}
	.st1{font-family:'Mistral';}
	.st2{font-size:25px;}
</style>
<g id="Group_87" transform="translate(-635 -688)">
	<g id="Cooking-kitchen-utensil" transform="translate(659 679)">
		<circle id="Ellipse_2" class="st0" cx="39.8" cy="21.5" r="3"/>
		<path id="Path_4" class="st0" d="M11.8,52.5c0,0.6,0.4,1,1,1h54c0.6,0,1-0.4,1-1v-1h-56V52.5z"/>
		<path id="Path_5" class="st0" d="M64.8,49.5c-0.6-13.8-12.2-24.5-26-24c-13,0.5-23.5,11-24,24h3c0.1-3.3,1-6.5,2.6-9.4l1.8,1
			c-1.4,2.5-2.2,5.4-2.4,8.4H64.8z M59.8,46.5h2v2h-2V46.5z M49.8,46.5h8v2h-8V46.5z M22,37.6c0.3-0.5,0.7-0.9,1.1-1.4l1.5,1.3
			c-0.3,0.4-0.7,0.8-1,1.2L22,37.6z"/>
		<path id="Path_6" class="st0" d="M21.6,16.2c1.6-1.8,3.3-3.8,3.3-7.7h-2c0,3.1-1.3,4.6-2.8,6.3c-1.6,1.8-3.3,3.8-3.3,7.7h2
			C18.7,19.4,20,17.9,21.6,16.2z"/>
		<path id="Path_7" class="st0" d="M26.7,22.5c0-3.1,1.3-4.6,2.8-6.3c1.6-1.8,3.3-3.8,3.3-7.7h-2c0,3.1-1.3,4.6-2.8,6.3
			c-1.6,1.8-3.3,3.8-3.3,7.7H26.7z"/>
		<path id="Path_8" class="st0" d="M52.6,16.2c1.6-1.8,3.3-3.8,3.3-7.7h-2c0,3.1-1.3,4.6-2.8,6.3c-1.6,1.8-3.3,3.8-3.3,7.7h2
			C49.7,19.4,51,17.9,52.6,16.2z"/>
		<path id="Path_9" class="st0" d="M57.7,22.5c0-3.1,1.3-4.6,2.8-6.3c1.6-1.8,3.3-3.8,3.3-7.7h-2c0,3.1-1.3,4.6-2.8,6.3
			c-1.6,1.8-3.3,3.8-3.3,7.7H57.7z"/>
	</g>
	<text transform="matrix(1 0 0 1 636.8431 768.5)" class="st0 st1 st2">Compare offer</text>
</g>
</svg>
