<?xml version="1.0" encoding="utf-8"?>
<!-- Generator: Adobe Illustrator 23.0.2, SVG Export Plug-In . SVG Version: 6.00 Build 0)  -->
<svg version="1.1" id="Layer_1" xmlns="http://www.w3.org/2000/svg" xmlns:xlink="http://www.w3.org/1999/xlink" x="0px" y="0px"
	 viewBox="0 0 95 34" style="enable-background:new 0 0 95 34;" xml:space="preserve">
<style type="text/css">
	.st0{fill:#FFFFFF;stroke:#D8D8D8;stroke-miterlimit:10;}
	.st1{fill:#CC212D;}
	.st2{fill:#FE5D0B;}
	.st3{fill:#FE5D0C;}
	.st4{fill:#FE5E0D;}
	.st5{fill:#FE6214;}
	.st6{fill:#FE5000;}
	.st7{fill:#FFFFFF;}
	.st8{fill:#F7F3F3;}
	.st9{fill:#F7D7D8;}
	.st10{fill:#CA232F;}
	.st11{fill:#CC212D;stroke:#FFFFFF;stroke-width:1.1;stroke-miterlimit:10;}
</style>
<rect x="-0.18" class="st0" width="95" height="34"/>
<rect x="2.1" y="2.02" class="st1" width="89.99" height="29.96"/>
<g>
	<path class="st2" d="M23.79,65.15c0.4,0.17,0.84,0.15,1.25,0.25c3.6,0.84,6.27,3.7,6.83,7.32c0.09,0.6,0.04,0.72-0.54,0.94
		c-0.77,0.29-1.58,0.37-2.39,0.46c-1.01,0.11-2.02,0.12-3.03,0.09c-0.3-0.01-0.6-0.05-0.9-0.09c-0.26-0.03-0.33-0.21-0.33-0.45
		c0.01-0.91,0-1.81,0-2.72c0-0.12,0.01-0.25-0.02-0.36c-0.08-0.25-0.24-0.42-0.53-0.4c-0.28,0.03-0.44,0.21-0.44,0.48
		c-0.01,1.39-0.01,2.78,0,4.17c0,0.33,0.22,0.42,0.52,0.41c1.06-0.01,2.11-0.03,3.17,0c0.78,0.02,1.57,0.01,2.35,0.13
		c1.47,0.22,1.94,0.91,1.62,2.35c-0.54,2.39-1.64,4.54-2.9,6.61c-1.49,2.43-3.23,4.69-5.1,6.85c-0.22,0.26-0.35,0.32-0.59,0
		c-1.68-2.24-3.41-4.45-4.71-6.94c-0.42-0.81-0.34-0.98,0.53-1.15c1.16-0.22,2.33-0.29,3.5-0.1c0.66,0.11,0.79,0.25,0.79,0.9
		c0,0.47,0,0.94-0.01,1.4c0,0.3,0.11,0.5,0.44,0.52c0.34,0.02,0.52-0.18,0.52-0.49c0.01-1.06-0.01-2.11-0.02-3.17
		c0-0.32-0.24-0.41-0.49-0.41c-1.54,0-3.08-0.06-4.62,0.04c-0.53,0.03-1.06,0-1.58-0.07c-0.35-0.05-0.58-0.3-0.77-0.58
		c-0.78-1.13-1.22-2.41-1.62-3.7c-0.27-0.86-0.48-1.73-0.56-2.64c0-0.05-0.05-0.1-0.08-0.14c0-0.45,0-0.91,0-1.36
		c0.15-0.17,0.06-0.38,0.1-0.56c0.73-3.71,2.89-6.14,6.51-7.24c0.5-0.15,1.03-0.23,1.54-0.35C22.76,65.15,23.27,65.15,23.79,65.15z"
		/>
	<path class="st3" d="M53.98,78.25c-0.87,1.8-1.71,3.54-2.55,5.29c-0.1,0.2-0.21,0.28-0.44,0.28c-0.23,0-0.31-0.1-0.38-0.29
		c-1.21-3.31-2.42-6.61-3.63-9.92c-0.02-0.07-0.04-0.14-0.06-0.24c0.84,0,1.65,0.01,2.47,0c0.25,0,0.28,0.16,0.34,0.33
		c0.55,1.51,1.09,3.02,1.65,4.54c0.38-0.82,0.76-1.64,1.14-2.46c0.34-0.74,0.7-1.47,1.03-2.2c0.09-0.2,0.19-0.3,0.43-0.3
		c0.25,0,0.33,0.11,0.42,0.3c0.73,1.54,1.46,3.08,2.21,4.65c0.54-1.5,1.08-2.97,1.59-4.46c0.12-0.34,0.27-0.42,0.61-0.41
		c0.67,0.03,1.35,0.01,2.08,0.01c-0.39,1.09-0.76,2.11-1.13,3.14c-0.84,2.32-1.68,4.63-2.51,6.95c-0.07,0.19-0.1,0.35-0.38,0.35
		c-0.26,0-0.37-0.11-0.47-0.32C55.61,81.76,54.8,80.03,53.98,78.25z"/>
	<path class="st3" d="M90.29,77.73c0.68,0,1.36,0.01,2.04-0.01c0.25-0.01,0.34,0.06,0.33,0.33c-0.01,1.34-0.02,2.69,0,4.03
		c0,0.31-0.18,0.43-0.38,0.55c-1.45,0.88-3.02,1.17-4.68,0.94c-1.6-0.22-2.93-0.93-3.8-2.32c-1.71-2.72-0.81-7.23,3.31-8.1
		c1.49-0.31,2.98-0.17,4.29,0.73c0.95,0.65,0.94,0.66,0.15,1.46c-0.29,0.29-0.59,0.57-0.86,0.87c-0.16,0.18-0.27,0.17-0.42-0.01
		c-0.77-0.93-2.33-1.01-3.28-0.48c-0.99,0.55-1.57,1.89-1.35,3.08c0.31,1.69,1.42,2.57,3.14,2.49c0.42-0.02,0.84-0.03,1.24-0.18
		c0.5-0.18,0.2-0.59,0.24-0.89c0.04-0.29-0.23-0.21-0.39-0.21c-0.54-0.01-1.09-0.01-1.63,0c-0.26,0.01-0.38-0.04-0.37-0.34
		c0.02-0.54,0.02-1.09,0-1.63c-0.01-0.27,0.1-0.33,0.34-0.32C88.9,77.74,89.59,77.73,90.29,77.73z"/>
	<path class="st3" d="M77.28,77.73c0.68,0,1.36,0.01,2.04-0.01c0.24-0.01,0.31,0.07,0.3,0.31c-0.01,1.36-0.01,2.72,0,4.08
		c0,0.2-0.06,0.33-0.23,0.45c-2.18,1.49-6.19,1.66-8.23-0.79c-0.74-0.9-1.11-1.93-1.17-3.1c-0.06-1.39,0.24-2.66,1.13-3.75
		c1.28-1.55,2.98-2.04,4.92-1.85c1.07,0.1,2.04,0.45,2.83,1.23c0.26,0.26,0.33,0.43,0,0.71c-0.42,0.35-0.79,0.75-1.16,1.15
		c-0.2,0.21-0.3,0.21-0.52,0c-1.2-1.15-3.09-1.01-4.05,0.28c-0.99,1.33-0.87,4.25,1.66,4.79c0.74,0.16,1.5,0.13,2.22-0.13
		c0.45-0.16,0.14-0.57,0.2-0.87c0.05-0.26-0.19-0.21-0.35-0.21c-0.57,0-1.15-0.01-1.72,0c-0.21,0-0.29-0.05-0.29-0.27
		c0.01-0.57,0.02-1.15,0-1.72c-0.01-0.25,0.09-0.3,0.32-0.3C75.89,77.74,76.59,77.73,77.28,77.73z"/>
	<path class="st3" d="M41.22,83.65c-1.65-0.04-3.01-0.61-3.87-2.12c-0.14-0.25-0.11-0.36,0.14-0.5c0.48-0.25,0.95-0.51,1.4-0.81
		c0.3-0.2,0.45-0.19,0.65,0.14c0.45,0.76,1.14,1.08,2.03,0.92c0.32-0.06,0.62-0.17,0.7-0.54c0.09-0.4-0.1-0.67-0.45-0.84
		c-0.51-0.25-1.04-0.48-1.56-0.71c-1.01-0.46-1.91-1.05-2.25-2.2c-0.59-2,0.63-3.78,2.71-3.95c1.45-0.12,2.67,0.32,3.46,1.64
		c0.14,0.23,0.17,0.36-0.1,0.52c-0.51,0.29-1,0.62-1.48,0.95c-0.2,0.14-0.32,0.13-0.43-0.1c-0.2-0.4-0.49-0.69-0.96-0.72
		c-0.32-0.01-0.63,0.05-0.73,0.4c-0.1,0.33-0.01,0.65,0.31,0.82c0.44,0.23,0.89,0.44,1.34,0.63c0.61,0.27,1.2,0.56,1.7,1
		c1,0.88,1.23,2,0.91,3.24c-0.32,1.23-1.23,1.84-2.4,2.12C41.98,83.63,41.61,83.66,41.22,83.65z"/>
	<path class="st4" d="M94.56,73.13c0.91,0,1.75,0.01,2.59-0.01c0.22,0,0.32,0.1,0.41,0.28c0.71,1.36,1.53,2.65,2.14,4.07
		c0.02,0.04,0.05,0.06,0.1,0.12c0.62-1.41,1.38-2.72,2.06-4.07c0.15-0.3,0.32-0.41,0.65-0.4c0.72,0.03,1.44,0.01,2.22,0.01
		c-0.59,1.1-1.14,2.14-1.7,3.19c-0.61,1.14-1.22,2.28-1.83,3.42c-0.11,0.2-0.16,0.41-0.16,0.65c0.01,0.92,0,1.84,0.01,2.76
		c0,0.28-0.04,0.41-0.37,0.39c-0.63-0.03-1.27-0.02-1.9,0c-0.26,0.01-0.33-0.08-0.33-0.33c0.01-0.85-0.01-1.69,0.01-2.54
		c0.01-0.35-0.08-0.64-0.25-0.94c-1.17-2.1-2.34-4.2-3.5-6.3C94.68,73.36,94.64,73.28,94.56,73.13z"/>
	<path class="st5" d="M66.29,83.52c-0.69,0.01-1.39,0-2.08,0.03c-0.31,0.01-0.34-0.12-0.34-0.37c0.01-1.46,0-2.92,0-4.38
		c0-1.73,0.01-3.46-0.01-5.2c0-0.39,0.11-0.49,0.48-0.47c0.65,0.03,1.29,0.02,1.94,0.03c0,0.08,0.03,0.14,0.12,0.15
		c0.07,0.49,0.02,0.99,0.02,1.49c0,2.77,0,5.54,0,8.31c0,0.09-0.02,0.18-0.03,0.27C66.32,83.38,66.29,83.44,66.29,83.52z"/>
	<path class="st6" d="M66.41,73.3c-0.09-0.01-0.12-0.07-0.12-0.15C66.41,73.14,66.44,73.2,66.41,73.3z"/>
	<path class="st6" d="M66.29,83.52c0-0.08,0.03-0.14,0.12-0.15C66.44,83.48,66.41,83.53,66.29,83.52z"/>
</g>
<g>
	<path class="st7" d="M1.85,16.53C1.85,16.53,1.85,16.53,1.85,16.53c0.04-0.22,0.24-0.11,0.35-0.1c0.83,0.01,1.66,0.07,2.49,0.02
		c0.47-0.03,0.92-0.08,1.35-0.29c0.15-0.11,0.3-0.22,0.45-0.34c-0.02-0.05-0.06-0.12-0.04-0.13c0.46-0.39,0.39-1.25,1.19-1.34
		c0.09-0.01,0.18-0.16,0.26-0.25c0.06-0.06,0.08-0.17,0.14-0.21c0.26-0.17,0.58-0.19,0.81-0.46c0.26-0.31,0.69-0.19,1.04-0.24
		c0.06-0.09,0.12-0.17,0.17-0.26c-0.02-0.19,0.05-0.29,0.26-0.31c0.61-0.06,1.21,0,1.82,0c0.12,0,0.22,0.02,0.27,0.15
		c0.53-0.07,1.07-0.17,1.6,0.01c0.17,0,0.33,0,0.5-0.01c0.16,0,0.25,0.06,0.24,0.23c0.35,0.16,0.71,0.31,1.11,0.29
		c0.3-0.01,0.61,0.01,0.86,0.19c0.22,0.16,0.45,0.28,0.74,0.33c-0.11,0.14-0.24,0.11-0.36,0.12c0.35,0.15,0.71,0.26,1.05,0.43
		c0.25,0.12,0.44,0.32,0.71,0.42c0.25,0.09,0.04,0.33,0.01,0.55c0.33-0.1,0.51-0.06,0.32,0.33c-0.07,0.15,0.23,0.16,0.2,0.35
		c-0.02,0.14,0.02,0.29,0.03,0.43c0.2,0.79-0.02,1.46-0.57,2.04l0,0c-0.12,0.24-0.3,0.43-0.52,0.57l-0.01,0.01
		c-0.49,0.53-1.12,0.86-1.77,1.14c-1.77,0.76-3.61,1.1-5.54,0.91c-0.14,0.03-0.28,0.04-0.42,0.08c-0.2,0.06-0.46,0.24-0.58-0.14
		c-0.03-0.11-0.16-0.08-0.26-0.09l-0.02,0.02c-0.09,0.17-0.25,0.16-0.37,0.08c-0.25-0.18-0.58-0.32-0.52-0.73l-0.05-0.08l-0.03-0.01
		c-0.23-0.01-0.45-0.03-0.77-0.05c0.29-0.11,0.27-0.24,0.13-0.38c-0.01-0.02-0.02-0.03-0.04-0.03c-0.14,0.05-0.27,0.12-0.41,0.14
		c-0.21,0.04-0.45,0.11-0.43-0.27c0.01-0.14-0.13-0.22-0.22-0.32c-0.22-0.24-0.22-0.24-0.05-0.52c-0.2-0.02-0.39-0.02-0.48-0.25
		c-0.04-0.11-0.16-0.08-0.26-0.11c-0.2-0.05-0.42-0.13-0.52-0.31c-0.2-0.36-0.53-0.45-0.88-0.48c-0.52-0.03-1.05-0.04-1.57-0.05
		c-0.38-0.01-0.76,0.15-1.15,0.05c-0.1-0.03-0.24,0.03-0.29-0.11l0,9.39c0.01-0.02,0.03-0.05,0.05-0.08c0.48,0.56,1.12,0.6,1.8,0.6
		c5.78-0.01,11.57-0.01,17.35-0.01c0.21,0,0.42,0,0.61-0.11c0.05-0.07,0.12-0.1,0.21-0.08c0,0,0,0,0,0
		c0.06-0.29,0.27-0.54,0.24-0.86c-0.12-0.07-0.17-0.17-0.17-0.31c0-5.7,0-11.41,0-17.11c0-0.21-0.1-0.51,0.29-0.5
		c0.36,0.02,0.28-0.25,0.3-0.46c0-0.71-0.73-1.41-1.51-1.44c-0.27-0.01-0.54,0-0.81,0c-5.62,0-11.23,0-16.85,0
		c-0.34,0-0.63,0.07-0.87,0.35C2.39,7.11,2.16,7.12,1.96,7.07c0,0-0.01,0.02-0.01,0.02c0.02,0.04,0.02,0.09-0.03,0.1
		C1.86,7.21,1.85,7.16,1.86,7.11"/>
	<path class="st8" d="M89.89,19.95c-0.16-0.1-0.19,0.07-0.25,0.14c-2.38,2.63-6.75,1.8-7.9-1.56c-1.08-3.13,1.18-6.16,4.31-6.2
		c1.43-0.02,2.62,0.48,3.6,1.51c0.1,0.11,0.1,0.11,0.25,0.09C89.89,15.94,89.89,17.95,89.89,19.95z M83.52,14.87
		c-0.82,1.03-0.91,2.79-0.14,3.99c0.6,0.94,1.45,1.53,2.62,1.53c0.57,0.06,1.12-0.04,1.62-0.32c1.34-0.74,1.91-1.92,1.8-3.4
		c-0.07-0.96-0.43-1.82-1.29-2.39c-0.01-0.02-0.01-0.05-0.02-0.07c-1.22-1.16-3.63-0.84-4.55,0.6
		C83.54,14.82,83.52,14.84,83.52,14.87z"/>
	<path class="st7" d="M50.4,14.62c-0.02,0.04-0.05,0.08-0.07,0.11c-0.14,0.13-0.32,0.22-0.35,0.44c-0.11,0.62-0.17,1.25-0.16,1.88
		c0.02,1.45,0.01,2.9,0.01,4.34c-0.39,0-0.78,0-1.17,0c0-2.73,0-5.46,0-8.2c0-0.07,0-0.15,0-0.22c0-0.25,0.11-0.39,0.38-0.37
		c0.28,0.01,0.56,0.01,0.84,0.01c0,0.05,0.01,0.1,0.01,0.14c-0.08,0.1-0.08,0.19,0,0.29c0,0.05,0,0.1,0,0.15
		c-0.1,0.19-0.09,0.39,0,0.58c0.02,0.04,0.04,0.09,0.06,0.13c0.11,0.01,0.16-0.04,0.16-0.15c1.07-1.8,4.01-2,5.31-0.09
		c0.22,0.33,0.33,0.34,0.52,0.01c0.6-0.67,1.3-1.15,2.22-1.31c2.23-0.38,3.97,1.03,3.98,3.29c0.01,1.8-0.01,3.59,0.01,5.39
		c0,0.3-0.09,0.37-0.37,0.37c-1,0-1,0.01-1-0.98c0-1.28,0-2.57,0.01-3.85c0.01-0.61-0.01-1.22-0.24-1.8
		c0.01-0.14-0.06-0.26-0.14-0.37c-0.48-0.74-1.22-0.94-2.03-0.9c-0.4,0.02-0.84,0.01-1.14,0.37c-0.01,0.02-0.03,0.03-0.05,0.02
		c-0.53,0.16-0.82,0.53-0.92,1.06c0,0.02,0,0.03-0.02,0.04c-0.25,0.27-0.26,0.63-0.26,0.96c-0.01,1.8,0,3.61,0,5.41
		c-0.39,0-0.78,0.01-1.17,0.01c-0.09-0.16-0.06-0.33-0.06-0.5c0-1.56,0-3.12-0.01-4.69c0-0.54-0.08-1.05-0.3-1.56
		c-0.47-1.1-2.44-1.55-3.31-0.75c0,0.02-0.01,0.02-0.03,0.02c-0.03,0-0.07,0.01-0.1,0.01c-0.08,0.02-0.13,0.07-0.15,0.14
		c-0.01,0.02-0.01,0.03-0.01,0.05c0,0-0.02,0.02-0.02,0.02c-0.02,0.02-0.03,0.03-0.05,0.05c0,0.02-0.01,0.03-0.03,0.03
		c-0.03,0-0.04,0.01-0.04,0.04c0,0.02-0.02,0.04-0.04,0.04c0,0-0.02,0.01-0.02,0.01l0,0.03c0,0.02-0.01,0.02-0.03,0.02
		c-0.02-0.01-0.04-0.01-0.05,0c-0.07,0.02-0.17-0.01-0.21,0.07c-0.03,0.05,0.03,0.07,0.06,0.09C50.4,14.56,50.4,14.59,50.4,14.62z"
		/>
	<path class="st7" d="M37.65,14.33c0.6-0.9,1.42-1.48,2.45-1.8c2.52-0.79,5.27,0.68,5.92,3.18c0.7,2.67-0.92,5.3-3.6,5.83
		c-3.49,0.69-6.4-2.47-5.41-5.9c0.01-0.03,0.03-0.06,0.05-0.1c0.15-0.1,0.16-0.25,0.16-0.41c0,0,0.01-0.02,0.01-0.02
		c0.37,0.17,0.44,0.12,0.4-0.29C37.61,14.66,37.63,14.5,37.65,14.33z M44.17,19.06c0.02-0.03,0.04-0.06,0.07-0.09
		c0.03-0.04,0.05-0.08,0.08-0.12c0.1-0.05,0.15-0.12,0.13-0.23c0.09-0.04,0.11-0.12,0.09-0.2c0.02-0.05,0.04-0.1,0.05-0.15
		c0.02-0.02,0.03-0.04,0.02-0.06l0-0.01c0.07-0.06,0.09-0.14,0.07-0.23c-0.01-0.02,0-0.04,0.02-0.06c0.24-0.54,0.21-1.08,0.03-1.62
		c-0.01-0.07-0.02-0.15-0.04-0.22c0-0.13,0.03-0.28-0.12-0.36c-0.24-0.57-0.58-1.06-1.07-1.46c-1.48-1.21-3.84-0.84-4.71,0.75
		c-0.15,0.15-0.25,0.34-0.28,0.55l0,0c-0.58,1.32-0.35,2.54,0.44,3.69c0.01,0.28,0.16,0.43,0.44,0.43c0.1,0.07,0.2,0.14,0.3,0.2
		c1.18,0.76,2.38,0.7,3.57,0.04c0.33-0.19,0.58-0.48,0.83-0.76C44.13,19.12,44.15,19.09,44.17,19.06
		C44.17,19.07,44.17,19.06,44.17,19.06z"/>
	<path class="st7" d="M71.91,21.41c-0.22,0-0.44,0-0.66,0c-0.34-0.16-0.35-0.43-0.21-0.73c0.11-0.23-0.03-0.42-0.15-0.52
		c-0.14-0.11-0.27,0.08-0.37,0.2c-0.16,0.2-0.39,0.33-0.58,0.49c-0.25,0.21-0.62,0.23-0.81,0.54c-0.03,0.01-0.06,0.01-0.09,0.02
		c-0.23-0.02-0.44,0.02-0.64,0.13c-0.05,0.01-0.11,0.01-0.16,0.02c-0.61,0.05-1.2-0.14-1.81-0.15c0,0-0.01,0-0.01,0
		c-0.06-0.13-0.28-0.13-0.29-0.3c-0.02-0.29-0.21-0.28-0.41-0.26c-0.16,0.01-0.41,0.12-0.24-0.23c0.05-0.1-0.06-0.18-0.17-0.16
		c-0.09,0.01-0.18,0.06-0.27,0.09c0,0,0,0,0,0c-0.02-0.02-0.04-0.05-0.07-0.07c0,0,0,0,0,0c-0.15-0.34-0.38-0.67-0.42-1.02
		c-0.08-0.76-0.14-1.54,0.39-2.2c0.05-0.07,0.1-0.14,0.1-0.23c0,0,0,0,0,0c0.03-0.03,0.05-0.05,0.08-0.08
		c0.02-0.02,0.04-0.04,0.07-0.07c0.26-0.05,0.44-0.25,0.66-0.37c1.24-0.68,2.57-0.51,3.89-0.4c0.33,0.03,0.67,0.13,0.99,0.24
		c0.14,0.05,0.19,0.01,0.27-0.09c0.18-0.24,0.07-0.97-0.21-1.28c0,0,0-0.01,0-0.01c0.01-0.02,0-0.04-0.02-0.05
		c-0.02-0.04-0.04-0.09-0.06-0.13c-0.02-0.03-0.03-0.06-0.05-0.1c0,0-0.01-0.02-0.01-0.02c0-0.02-0.01-0.04-0.03-0.04
		c-0.02-0.01-0.03-0.03-0.03-0.05c-0.01-0.12-0.06-0.2-0.18-0.23c0,0,0.01,0.01,0.01,0.01c-0.03-0.03-0.06-0.06-0.09-0.09
		c-0.02,0-0.03-0.01-0.04-0.03c-0.02-0.11-0.09-0.14-0.19-0.14c-0.02,0.01-0.03,0-0.04-0.02c-0.11-0.34-0.38-0.37-0.69-0.41
		c-0.95-0.13-1.89-0.12-2.82,0.17c-0.22,0.07-0.47,0.2-0.67-0.06c-0.03-0.04-0.08-0.05-0.13-0.01c-0.06,0.06-0.1,0.23-0.19,0.04
		c-0.09-0.17-0.26-0.32-0.18-0.53c0.06-0.16,0.18-0.1,0.31-0.07c0.07,0.02,0.29,0.03,0.21-0.07c-0.14-0.17-0.01-0.15,0.06-0.17
		c0.36-0.11,0.72-0.22,1.09-0.31c0.51-0.13,1.04,0.01,1.53-0.06c0.58-0.08,1.07,0.08,1.59,0.21c0.15,0.04,0.29,0.08,0.36,0.23
		c0.08,0.16-0.2,0.16-0.17,0.32c0.23,0.08,0.35,0.01,0.35-0.25l0.01-0.01c0.15,0.02,0.26,0.18,0.43,0.15c0,0,0.01,0.01,0.01,0.01
		c0.11,0.18,0.1,0.48,0.43,0.44c0,0,0,0.01,0,0.01c-0.01,0.1,0.05,0.19,0.07,0.28c0.06,0.27,0.32,0.44,0.36,0.7
		c0.08,0.53,0.16,1.05,0.18,1.59c0.04,1.06-0.15,2.11-0.02,3.16c0.02,0.12,0,0.24-0.07,0.35c-0.06,0.1-0.1,0.22-0.05,0.31
		C72.28,20.53,72.08,20.96,71.91,21.41z M66.34,17.47L66.34,17.47c-0.37-0.12-0.35,0.14-0.36,0.37l0,0
		c-0.03,0.03-0.05,0.06-0.08,0.09c0,0.04,0,0.08,0,0.12c-0.45,0.81-0.08,1.77,0.86,2.22c0.02,0.02,0.04,0.04,0.07,0.05l0,0
		c0.09,0.06,0.06,0.21,0.24,0.22c0.53,0.05,1.06,0.07,1.59-0.01c0.1-0.01,0.19-0.03,0.24-0.13c0.02,0,0.05-0.01,0.07-0.01
		c0.63,0.05,1-0.41,1.47-0.7c0.27-0.16,0.3-0.36,0.28-0.62l0,0c0.14-0.11,0.22-0.25,0.22-0.43c0.02-0.4,0.04-0.79,0.08-1.19
		c0.01-0.14-0.07-0.13-0.15-0.14c-0.02-0.01-0.05-0.02-0.07-0.03c-0.44-0.26-0.93-0.33-1.44-0.35c-0.01,0-0.03,0.04-0.04,0.06
		c-0.05,0-0.09-0.01-0.14-0.01c-0.09-0.15-0.23-0.11-0.36-0.11c-0.4,0-0.81,0.01-1.21,0c-0.38-0.01-0.7,0.15-1.04,0.28
		c-0.12,0.05-0.18,0.12-0.17,0.25l0,0C66.4,17.42,66.37,17.45,66.34,17.47z"/>
	<path class="st8" d="M31.18,17.9c-0.72,0.72-1.33,1.53-2.01,2.3c0.15,0.12,0.29,0.07,0.42,0.07c1.69,0,3.37,0.01,5.06,0
		c0.31,0,0.39,0.09,0.39,0.39c-0.01,0.76,0,0.76-0.77,0.76c-2.15,0-4.3,0-6.45-0.01c-0.18,0-0.49,0.15-0.54-0.12
		c-0.06-0.3-0.14-0.67,0.15-0.93c0.13-0.12,0.28-0.22,0.35-0.4c0.47,0.1,0.83-0.29,0.69-0.76l0.02,0.01l-0.02-0.01
		c0.07-0.01,0.09-0.06,0.1-0.12c0.07-0.08,0.14-0.17,0.21-0.25c0.03,0.08,0.05,0.17,0.08,0.25c-0.12,0.05-0.12,0.1,0,0.15
		c0.03,0.07-0.03,0.17,0.09,0.22c0.08-0.12,0-0.17-0.08-0.22c0-0.05,0-0.1,0-0.14c0.1-0.04,0.13-0.13,0.14-0.23
		c0.01-0.09,0.03-0.18,0.15-0.13c0.11,0.04,0.22,0.09,0.26-0.07c0.04-0.15,0.06-0.32-0.15-0.38c1.22-1.43,2.45-2.86,3.66-4.29
		c0.06-0.08,0.2-0.14,0.13-0.27c-0.05-0.09-0.18-0.04-0.27-0.04c-1.65,0-3.3-0.01-4.95,0c-0.24,0-0.35-0.05-0.35-0.32
		c-0.02-0.81-0.03-0.81,0.78-0.81c0.13,0,0.27,0,0.4,0c1.99,0,3.99,0.01,5.98-0.01c0.31,0,0.38,0.11,0.4,0.4
		c0.02,0.35-0.14,0.6-0.32,0.86c0,0,0,0,0,0c-0.16,0.08-0.24,0.23-0.35,0.36c-0.63,0.73-1.27,1.44-1.88,2.18
		C32.05,16.85,31.55,17.32,31.18,17.9z"/>
	<path class="st8" d="M76.97,21.44c-0.15-0.06-0.3-0.13-0.45-0.19c-0.71-0.5-1.01-1.2-1.01-2.06c0-1.54,0-3.08,0-4.61
		c0-0.88,0-0.89-0.88-0.87c-0.28,0.01-0.39-0.07-0.38-0.37c0.03-0.94-0.13-0.79,0.79-0.8c0.51-0.01,0.52,0,0.45-0.51
		c0.04-0.39,0.04-0.77,0-1.16c0.01-0.09,0.02-0.17,0.02-0.26c0.02-0.89-0.11-0.74,0.7-0.76c0.1,0,0.2,0.01,0.29,0
		c0.31-0.05,0.37,0.11,0.36,0.38c-0.01,0.67,0.01,1.34-0.01,2.01c-0.01,0.23,0.08,0.3,0.3,0.29c0.57-0.01,1.15,0,1.72,0
		c0.83,0,0.82,0,0.82,0.84c0,0.26-0.09,0.34-0.34,0.33c-0.68-0.01-1.37,0.01-2.05-0.01c-0.33-0.01-0.45,0.07-0.44,0.42
		c0.01,1.51,0.02,3.03-0.01,4.54c-0.02,1.36,0.59,1.75,1.84,1.66c0.13-0.01,0.27-0.04,0.4-0.07c0.57-0.12,0.54-0.12,0.58,0.49
		c0.03,0.42-0.17,0.58-0.53,0.68C78.42,21.62,77.7,21.6,76.97,21.44z"/>
	<path class="st7" d="M22.54,8.05c0-0.71-0.73-1.41-1.51-1.44c-0.27-0.01-0.54,0-0.81,0c-5.62,0-11.23,0-16.85,0
		c-0.34,0-0.63,0.07-0.87,0.35C2.39,7.11,2.16,7.12,1.96,7.07c0.33-0.42,0.78-0.56,1.29-0.56c2.68,0,5.36,0,8.03,0
		c3.23,0,6.46,0,9.68,0c1.11,0,1.8,0.66,1.8,1.77c0.01,5.82,0.01,11.64,0,17.46c0,0.68-0.25,1.23-0.9,1.54
		c0.06-0.29,0.27-0.54,0.24-0.86c0.36-0.1,0.56-0.37,0.56-0.75c0-2.48,0-4.96,0-7.44c0-3.24,0-6.48-0.01-9.72
		C22.67,8.36,22.74,8.16,22.54,8.05z"/>
	<path class="st7" d="M70.66,13.06c0,0.25-0.12,0.33-0.35,0.25c-0.03-0.16,0.25-0.16,0.17-0.32c-0.07-0.14-0.21-0.19-0.36-0.23
		c-0.52-0.13-1.02-0.29-1.59-0.21c-0.49,0.07-1.02-0.07-1.53,0.06c-0.36,0.1-0.73,0.2-1.09,0.31c-0.08,0.02-0.2,0.01-0.06,0.17
		c0.09,0.1-0.13,0.09-0.21,0.07c-0.12-0.03-0.24-0.09-0.31,0.07c-0.08,0.22,0.09,0.37,0.18,0.53c0.1,0.19,0.14,0.02,0.19-0.04
		c0.04-0.05,0.1-0.03,0.13,0.01c0.2,0.27,0.44,0.14,0.67,0.06c0.93-0.3,1.86-0.3,2.82-0.17c0.3,0.04,0.58,0.07,0.69,0.41
		c-1.31-0.66-2.62-0.49-3.93,0.01c-0.54,0.21-0.55,0.21-0.74-0.34c-0.23-0.67-0.28-0.55,0.37-0.82c1.25-0.53,2.55-0.64,3.87-0.41
		c0.57,0.1,1.11,0.29,1.53,0.72C70.93,13.23,70.82,13.07,70.66,13.06c0.01-0.01-0.01-0.02-0.01-0.02L70.66,13.06z"/>
	<path class="st7" d="M71.91,21.41c0.16-0.44,0.36-0.88,0.1-1.36c-0.05-0.1-0.02-0.22,0.05-0.31c0.07-0.11,0.08-0.23,0.07-0.35
		c-0.13-1.05,0.05-2.11,0.02-3.16c-0.02-0.54-0.11-1.06-0.18-1.59c-0.04-0.27-0.29-0.44-0.36-0.7c-0.02-0.09-0.07-0.18-0.07-0.28
		c0.51,0.59,0.69,1.31,0.7,2.06c0.02,1.8,0.01,3.6,0.02,5.41C72.26,21.39,72.16,21.47,71.91,21.41z"/>
	<path class="st7" d="M51.14,13.9c0.87-0.79,2.84-0.34,3.31,0.75c0.22,0.51,0.3,1.03,0.3,1.56c0.01,1.56,0.01,3.12,0.01,4.69
		c0,0.17-0.02,0.34,0.06,0.5c-0.24-0.04-0.13-0.23-0.13-0.35c-0.01-1.6-0.01-3.2-0.01-4.8c0-0.67-0.1-1.32-0.53-1.86
		c-0.62-0.78-1.68-1.03-2.61-0.65C51.41,13.8,51.27,13.85,51.14,13.9z"/>
	<path class="st7" d="M70.75,14.96c0.28,0.31,0.39,1.04,0.21,1.28c-0.07,0.1-0.12,0.14-0.27,0.09c-0.32-0.11-0.65-0.21-0.99-0.24
		c-1.32-0.11-2.65-0.27-3.89,0.4c-0.22,0.12-0.39,0.33-0.66,0.37c0.5-0.52,1.15-0.76,1.84-0.88c1.18-0.2,2.36-0.13,3.52,0.17
		c0.36,0.09,0.41-0.03,0.37-0.32C70.84,15.54,70.79,15.25,70.75,14.96z"/>
	<path class="st7" d="M49.82,21.4c0-1.45,0.01-2.9-0.01-4.34c-0.01-0.64,0.06-1.26,0.16-1.88c0.04-0.22,0.21-0.31,0.35-0.44
		c-0.38,0.71-0.41,1.49-0.4,2.27c0.02,1.34,0.01,2.68,0,4.02C49.93,21.16,50.02,21.33,49.82,21.4z"/>
	<path class="st7" d="M48.59,21.42c-0.01-0.1-0.02-0.19-0.02-0.29c0-2.71,0-5.41,0-8.12c0-0.48,0.01-0.5,0.48-0.47
		c0.28,0.01,0.58-0.12,0.83,0.09c-0.28,0-0.56,0-0.84-0.01c-0.27-0.01-0.38,0.12-0.38,0.37c0,0.07,0,0.15,0,0.22
		c0,2.73,0,5.46,0,8.2C48.63,21.42,48.61,21.42,48.59,21.42z"/>
	<path class="st7" d="M69.12,21.39c0.19-0.3,0.55-0.33,0.81-0.54c0.2-0.16,0.42-0.29,0.58-0.49c0.1-0.12,0.23-0.31,0.37-0.2
		c0.12,0.1,0.26,0.29,0.15,0.52c-0.14,0.3-0.13,0.57,0.21,0.73c-0.3,0.08-0.38-0.05-0.37-0.34c0.01-0.22,0.12-0.55-0.07-0.65
		c-0.21-0.11-0.35,0.23-0.54,0.35C69.91,21.02,69.57,21.29,69.12,21.39z"/>
	<path class="st7" d="M65.01,17.01c0,0.09-0.05,0.16-0.1,0.23c-0.52,0.66-0.47,1.44-0.39,2.2c0.04,0.35,0.27,0.68,0.42,1.02
		C64.09,19.56,64.13,17.82,65.01,17.01z"/>
	<path class="st7" d="M57.24,13.9c0.3-0.36,0.74-0.35,1.14-0.37c0.81-0.04,1.55,0.16,2.03,0.9c0.07,0.11,0.15,0.23,0.14,0.37
		c-0.7-1.25-1.9-1.36-2.77-1.11C57.59,13.75,57.42,13.83,57.24,13.9z"/>
	<path class="st7" d="M55.99,21.4c0-1.8-0.01-3.61,0-5.41c0-0.33,0.01-0.68,0.26-0.96c0.01,0.24-0.2,0.45-0.12,0.71
		c-0.14,0.18-0.09,0.4-0.09,0.6c-0.01,1.69-0.01,3.39-0.01,5.08C56.02,21.41,56,21.4,55.99,21.4z"/>
	<path class="st7" d="M65.02,20.54c0.09-0.03,0.18-0.07,0.27-0.09c0.12-0.02,0.22,0.06,0.17,0.16c-0.17,0.36,0.09,0.24,0.24,0.23
		c0.2-0.01,0.4-0.03,0.41,0.26c0.01,0.17,0.23,0.17,0.29,0.3C65.85,21.28,65.37,21.01,65.02,20.54z"/>
	<path class="st9" d="M28.11,19.51c0.11-0.1,0.23-0.21,0.34-0.31c0.14,0.47-0.22,0.87-0.69,0.76
		C27.88,19.81,27.99,19.66,28.11,19.51z"/>
	<path class="st7" d="M37.65,14.33c-0.02,0.17-0.04,0.33-0.02,0.5c0.04,0.41-0.03,0.45-0.4,0.29
		C37.28,14.81,37.46,14.57,37.65,14.33z"/>
	<path class="st7" d="M56.27,14.98c0.1-0.53,0.39-0.9,0.92-1.06C56.81,14.21,56.52,14.59,56.27,14.98z"/>
	<path class="st7" d="M66.42,21.42c0.61,0.01,1.2,0.2,1.81,0.15C67.62,21.65,67.01,21.63,66.42,21.42z"/>
	<path class="st7" d="M71.54,13.65c-0.34,0.04-0.32-0.26-0.43-0.44C71.32,13.29,71.42,13.47,71.54,13.65z"/>
	<path class="st7" d="M68.39,21.55c0.2-0.11,0.41-0.15,0.64-0.13C68.82,21.49,68.62,21.58,68.39,21.55z"/>
	<path class="st7" d="M37.22,15.14c0,0.16,0,0.31-0.16,0.41C37.07,15.4,37.1,15.25,37.22,15.14z"/>
	<path class="st7" d="M50.4,14.53c-0.04-0.02-0.09-0.05-0.06-0.09c0.05-0.07,0.14-0.05,0.21-0.07c0,0.02,0,0.04,0,0.06
		c-0.02,0.03-0.05,0.06-0.07,0.09C50.46,14.52,50.43,14.53,50.4,14.53z"/>
	<path class="st7" d="M70.35,14.32c0.13,0.03,0.18,0.11,0.18,0.23C70.44,14.5,70.37,14.43,70.35,14.32z"/>
	<path class="st7" d="M51,13.93c0.03,0,0.07-0.01,0.1-0.01c-0.03,0.09-0.1,0.13-0.18,0.16l0-0.01C50.95,14.02,50.97,13.98,51,13.93z
		"/>
	<path class="st7" d="M70.04,14.07c0.1,0,0.17,0.03,0.19,0.14C70.14,14.2,70.08,14.15,70.04,14.07z"/>
	<path class="st7" d="M1.95,7.09c0.02,0.04,0.02,0.09-0.03,0.1C1.86,7.21,1.85,7.16,1.86,7.11C1.89,7.1,1.92,7.1,1.95,7.09z"/>
	<path class="st7" d="M50.4,14.53c0.03,0,0.05,0,0.08-0.01c0,0.05-0.03,0.09-0.08,0.1C50.4,14.59,50.4,14.56,50.4,14.53z"/>
	<path class="st7" d="M21.8,27.37c-0.05,0-0.09,0-0.14,0c0.05-0.07,0.12-0.1,0.21-0.08C21.85,27.32,21.82,27.34,21.8,27.37z"/>
	<path class="st7" d="M50.84,14.13c-0.01-0.02,0-0.04,0.01-0.05c0.02,0,0.05,0,0.07-0.01l0,0.01C50.9,14.1,50.87,14.11,50.84,14.13z
		"/>
	<path class="st7" d="M64.95,20.47c0.02,0.02,0.04,0.05,0.07,0.07C64.99,20.51,64.97,20.49,64.95,20.47z"/>
	<path class="st7" d="M50.77,14.2c0.02-0.02,0.03-0.03,0.05-0.05C50.8,14.16,50.79,14.18,50.77,14.2z"/>
	<path class="st7" d="M50.7,14.26c0-0.03,0.02-0.04,0.04-0.04C50.73,14.24,50.71,14.25,50.7,14.26z"/>
	<path class="st7" d="M65.08,16.93c-0.03,0.03-0.05,0.05-0.08,0.08C65.03,16.99,65.06,16.96,65.08,16.93z"/>
	<path class="st7" d="M70.72,14.9c0.02,0.01,0.03,0.03,0.02,0.05c-0.01-0.01-0.02-0.02-0.03-0.03C70.7,14.92,70.71,14.91,70.72,14.9
		z"/>
	<path class="st7" d="M70.26,14.25c0.03,0.03,0.06,0.06,0.09,0.09C70.32,14.3,70.29,14.27,70.26,14.25z"/>
	<polygon class="st7" points="50.63,14.34 50.64,14.32 50.66,14.31 50.66,14.34 	"/>
	<path class="st7" d="M50.55,14.43c0-0.02,0-0.04,0-0.06c0.02-0.01,0.04-0.01,0.05,0C50.59,14.39,50.57,14.41,50.55,14.43z"/>
	<path class="st7" d="M70.61,14.67c0.02,0.03,0.03,0.06,0.05,0.1C70.64,14.73,70.62,14.7,70.61,14.67z"/>
	<path class="st7" d="M70.56,14.61c0.02,0,0.03,0.02,0.03,0.04c0,0-0.03-0.01-0.03-0.01L70.56,14.61z"/>
	<path class="st7" d="M22.54,8.05c0.19,0.11,0.13,0.3,0.13,0.46c0,3.24,0,6.48,0.01,9.72c0,2.48,0,4.96,0,7.44
		c0,0.39-0.2,0.66-0.56,0.75c-0.12-0.07-0.17-0.17-0.17-0.31c0.39,0.01,0.29-0.29,0.29-0.5c0-5.7,0-11.41,0-17.11
		C22.6,8.53,22.52,8.25,22.54,8.05z"/>
	<path class="st7" d="M22.24,8.51c0,5.7,0,11.41,0,17.11c0,0.21,0.1,0.5-0.29,0.5c0-5.7,0-11.41,0-17.11
		C21.95,8.8,21.85,8.5,22.24,8.51z"/>
	<path class="st7" d="M14.69,13.22c-1.29-0.31-2.58-0.47-3.9-0.22c-0.25,0.05-0.49,0.14-0.73,0.21c-0.05,0-0.09,0-0.14,0
		c-0.01-0.01-0.02-0.02-0.03-0.03c0.06-0.09,0.12-0.17,0.17-0.26c0.12,0,0.24-0.01,0.36-0.01c0.08-0.01,0.14-0.07,0.17-0.14
		c0.61,0,1.21,0,1.82-0.01c0.53-0.07,1.07-0.17,1.6,0.01c0.05,0.14,0.17,0.14,0.29,0.14c0.06,0.13,0.11,0.13,0.17,0
		c0.09,0.03,0.18,0.05,0.27,0.08c0.35,0.16,0.71,0.31,1.11,0.29c0.05,0.08,0.09,0.18,0.2,0.19c0.39,0.06,0.69,0.32,1.05,0.46
		c0.35,0.15,0.71,0.26,1.05,0.43c0.25,0.12,0.44,0.32,0.71,0.42c0.25,0.09,0.04,0.33,0.01,0.55c0.33-0.1,0.51-0.06,0.32,0.33
		c-0.07,0.15,0.23,0.16,0.2,0.35c-0.02,0.14,0.02,0.29,0.03,0.43c-0.12-0.11-0.11-0.31-0.25-0.4c-0.43-0.87-1.17-1.42-1.98-1.89
		c-0.38-0.22-0.77-0.41-1.2-0.53C15.59,13.43,15.15,13.3,14.69,13.22z"/>
	<path class="st7" d="M1.84,17.54c0.37,0.1,0.75-0.01,1.13,0c0.53,0.01,1.05,0.02,1.58,0c0.94-0.04,1.71,0.33,2.37,0.98
		c0.41,0.41,0.8,0.85,1.2,1.28c-0.14,0.05-0.27,0.12-0.41,0.14c-0.21,0.04-0.45,0.11-0.43-0.27c0.01-0.14-0.13-0.22-0.22-0.32
		c-0.22-0.24-0.22-0.24-0.05-0.52c-0.2-0.02-0.39-0.02-0.48-0.25c-0.04-0.11-0.16-0.08-0.26-0.11c-0.2-0.05-0.42-0.13-0.52-0.31
		c-0.2-0.36-0.53-0.45-0.88-0.48c-0.52-0.03-1.05-0.04-1.57-0.05c-0.38-0.01-0.76,0.15-1.15,0.05C2.02,17.65,1.88,17.72,1.84,17.54z
		"/>
	<path class="st7" d="M8.65,13.9c-0.03,0-0.04,0.01-0.05,0.04C8.44,14,8.3,14.08,8.21,14.22c0,0,0,0,0,0
		c-0.06,0.04-0.12,0.07-0.18,0.12c-0.56,0.43-0.92,1.06-1.49,1.48c-0.02,0-0.03,0-0.05,0c-0.02-0.05-0.06-0.12-0.04-0.13
		c0.46-0.39,0.39-1.25,1.19-1.34c0.09-0.01,0.18-0.16,0.26-0.25c0.06-0.06,0.08-0.17,0.14-0.21c0.26-0.17,0.58-0.19,0.81-0.46
		c0.26-0.31,0.69-0.19,1.04-0.24c0.01,0.01,0.02,0.02,0.03,0.03C9.5,13.46,9.03,13.59,8.65,13.9z"/>
	<path class="st7" d="M10.65,20.98c0.13,0.05,0.26,0.09,0.39,0.14c-0.14,0.03-0.28,0.04-0.42,0.08c-0.2,0.06-0.46,0.24-0.58-0.14
		c-0.03-0.11-0.16-0.08-0.26-0.09c-0.02-0.04-0.02-0.09-0.08-0.09c-0.01,0-0.02,0.01-0.02,0.02c0,0.06,0.05,0.07,0.09,0.08
		c-0.09,0.17-0.25,0.16-0.37,0.08c-0.25-0.18-0.58-0.32-0.52-0.73c0.01-0.01,0.02-0.02,0.03-0.03c0.44,0.19,0.85,0.47,1.34,0.54
		c0.07,0.06,0.16,0.08,0.25,0.07C10.54,20.94,10.59,20.96,10.65,20.98z"/>
	<path class="st7" d="M10.43,12.91c-0.12,0-0.24,0.01-0.36,0.01c-0.02-0.19,0.05-0.29,0.26-0.31c0.61-0.06,1.21,0,1.82,0
		c0.11,0,0.22,0.02,0.27,0.15c-0.61,0-1.21,0-1.82,0.01C10.5,12.78,10.45,12.83,10.43,12.91z"/>
	<path class="st7" d="M17.1,13.94c-0.35-0.14-0.66-0.4-1.05-0.46c-0.11-0.02-0.15-0.12-0.2-0.19c0.3-0.01,0.61,0.01,0.86,0.19
		c0.22,0.16,0.45,0.28,0.74,0.33C17.35,13.96,17.22,13.93,17.1,13.94z"/>
	<path class="st7" d="M8.15,19.83c0.24,0.1,0.44,0.27,0.64,0.43c-0.23-0.01-0.45-0.03-0.77-0.05C8.31,20.1,8.29,19.97,8.15,19.83z"
		/>
	<path class="st7" d="M14.74,13c-0.09-0.03-0.18-0.05-0.27-0.08c-0.06,0-0.12,0-0.17,0c-0.12,0-0.24,0-0.29-0.14
		c0.17,0,0.33,0,0.5-0.01C14.66,12.76,14.76,12.83,14.74,13z"/>
	<path class="st7" d="M8.82,20.26c0.02-0.01,0.04-0.02,0.06-0.01c0.01,0.02,0.01,0.04,0.02,0.06c-0.01,0.01-0.02,0.02-0.03,0.03
		C8.85,20.31,8.83,20.29,8.82,20.26z"/>
	<path class="st7" d="M49.89,13.2c0.05,0.19,0.05,0.39,0,0.58C49.79,13.59,49.79,13.4,49.89,13.2z"/>
	<path class="st7" d="M49.89,12.77c0.04,0.1,0.04,0.19,0,0.29C49.81,12.96,49.81,12.86,49.89,12.77z"/>
	<path class="st7" d="M50.92,14.07c-0.02,0-0.05,0.01-0.07,0.01c0.02-0.08,0.08-0.12,0.15-0.14C50.97,13.98,50.95,14.02,50.92,14.07
		z"/>
	<path class="st7" d="M50.04,13.79c0.02-0.01,0.05-0.01,0.07-0.02c0,0.1-0.05,0.16-0.16,0.15C49.98,13.87,50.01,13.83,50.04,13.79z"
		/>
	<path class="st7" d="M44.7,17.9c0.08-0.54,0.11-1.08,0.03-1.62C44.91,16.82,44.94,17.37,44.7,17.9z"/>
	<path class="st7" d="M38.96,19.23c0.17,0.09,0.25,0.3,0.44,0.37c0,0.02,0.01,0.04,0,0.05C39.12,19.66,38.98,19.52,38.96,19.23z"/>
	<path class="st7" d="M44.69,16.06c-0.04-0.12-0.08-0.24-0.12-0.36C44.73,15.78,44.7,15.92,44.69,16.06z"/>
	<path class="st7" d="M44.32,18.85c0-0.1,0.04-0.18,0.13-0.23C44.47,18.73,44.42,18.8,44.32,18.85z"/>
	<path class="st7" d="M44.62,18.19c-0.01-0.09,0.02-0.16,0.07-0.23C44.71,18.05,44.69,18.13,44.62,18.19z"/>
	<path class="st7" d="M44.45,18.62c-0.02-0.09,0.04-0.15,0.09-0.2C44.55,18.5,44.54,18.58,44.45,18.62z"/>
	<path class="st7" d="M44.11,19.15c0-0.04,0.01-0.07,0.06-0.08C44.15,19.09,44.13,19.12,44.11,19.15z"/>
	<path class="st7" d="M44.6,18.26c0.01-0.02,0.01-0.04,0.02-0.06C44.62,18.22,44.62,18.24,44.6,18.26z"/>
	<path class="st7" d="M44.17,19.06c0.02-0.03,0.04-0.06,0.07-0.09C44.22,19,44.19,19.03,44.17,19.06z"/>
	<path class="st7" d="M69.2,16.99c-0.43,0-0.85-0.02-1.28-0.01c-0.53,0.01-1.02,0.19-1.5,0.43c-0.01-0.13,0.05-0.2,0.17-0.25
		c0.34-0.14,0.66-0.29,1.04-0.28c0.4,0.01,0.81,0,1.21,0C68.97,16.88,69.11,16.84,69.2,16.99z"/>
	<path class="st7" d="M68.98,20.39c0.73-0.25,1.34-0.66,1.76-1.32c0.02,0.26-0.02,0.46-0.28,0.62
		C69.98,19.98,69.6,20.44,68.98,20.39z"/>
	<path class="st7" d="M66.85,20.33c0.05,0,0.1-0.01,0.15-0.01c0.63,0.26,1.27,0.18,1.91,0.09c-0.04,0.11-0.14,0.12-0.24,0.13
		c-0.53,0.08-1.06,0.05-1.59,0.01C66.91,20.53,66.94,20.39,66.85,20.33z"/>
	<path class="st7" d="M70.74,19.07c0.19-0.57,0.19-1.16,0.15-1.76c0.08,0.01,0.16,0,0.15,0.14c-0.04,0.39-0.06,0.79-0.08,1.19
		C70.95,18.82,70.88,18.96,70.74,19.07z"/>
	<path class="st7" d="M70.82,17.29c-0.49-0.1-0.98-0.19-1.47-0.29c0.01-0.02,0.03-0.06,0.04-0.06
		C69.88,16.96,70.37,17.03,70.82,17.29z"/>
	<path class="st7" d="M66.34,17.47c-0.12,0.12-0.24,0.25-0.36,0.37C66,17.61,65.97,17.35,66.34,17.47z"/>
	<path class="st7" d="M66.43,17.4c-0.03,0.02-0.06,0.05-0.08,0.07C66.37,17.45,66.4,17.42,66.43,17.4z"/>
	<path class="st7" d="M66.78,20.27c0.02,0.02,0.04,0.04,0.07,0.05C66.82,20.31,66.8,20.29,66.78,20.27z"/>
	<path class="st7" d="M65.99,17.84c-0.03,0.03-0.05,0.06-0.08,0.09C65.94,17.9,65.96,17.87,65.99,17.84z"/>
	<path class="st9" d="M28.76,18.82c0.13-0.22,0.3-0.4,0.49-0.56c0.21,0.07,0.19,0.23,0.15,0.38c-0.04,0.15-0.15,0.11-0.26,0.07
		c-0.13-0.05-0.14,0.05-0.15,0.13c-0.01,0.1-0.04,0.19-0.14,0.23c0,0,0,0,0,0C28.81,18.99,28.79,18.91,28.76,18.82z"/>
	<path class="st9" d="M28.84,19.22c0.09,0.05,0.17,0.1,0.08,0.22C28.82,19.39,28.87,19.29,28.84,19.22L28.84,19.22z"/>
	<path class="st9" d="M28.84,19.22c-0.12-0.05-0.12-0.1,0-0.15c0,0,0,0,0,0C28.84,19.12,28.84,19.17,28.84,19.22L28.84,19.22z"/>
	<path class="st9" d="M28.45,19.2c0.01-0.06,0.04-0.11,0.1-0.12C28.54,19.14,28.51,19.19,28.45,19.2z"/>
	<polygon class="st1" points="75.44,20.25 75.45,20.26 75.43,20.25 	"/>
	<path class="st7" d="M50.04,13.39c-0.02,0.05-0.03,0.1-0.05,0.15C50.01,13.5,50.03,13.45,50.04,13.39z"/>
	<polygon class="st7" points="70.66,13.06 70.65,13.04 70.67,13.05 	"/>
	<path class="st7" d="M10.23,20.86c0.08,0,0.17-0.01,0.25-0.01c0,0.03,0,0.06,0,0.08C10.39,20.94,10.3,20.92,10.23,20.86z"/>
	<path class="st7" d="M14.31,12.91c0.06,0,0.11,0,0.17,0C14.42,13.04,14.36,13.04,14.31,12.91z"/>
	<path class="st7" d="M10.43,12.91c0.02-0.09,0.08-0.14,0.17-0.14C10.56,12.85,10.51,12.9,10.43,12.91z"/>
	<path class="st7" d="M9.76,20.99c-0.04-0.01-0.09-0.02-0.09-0.08c0-0.01,0.01-0.02,0.02-0.02c0.06,0,0.07,0.05,0.08,0.09
		C9.77,20.97,9.76,20.99,9.76,20.99z"/>
	<path class="st7" d="M19.3,16.72c0.02-0.03,0.03-0.05,0.05-0.08c0.01,0.01,0.03,0.02,0.04,0.04C19.36,16.7,19.33,16.71,19.3,16.72
		C19.31,16.73,19.3,16.72,19.3,16.72z"/>
	<polygon class="st10" points="83.21,17.83 83.2,17.84 83.21,17.83 	"/>
</g>
<circle class="st11" cx="86.14" cy="16.83" r="4.32"/>
</svg>
