<?xml version="1.0" standalone="no"?>
<!DOCTYPE svg PUBLIC "-//W3C//DTD SVG 20010904//EN"
 "http://www.w3.org/TR/2001/REC-SVG-20010904/DTD/svg10.dtd">
<svg version="1.0" xmlns="http://www.w3.org/2000/svg"
 width="1128.000000pt" height="240.000000pt" viewBox="0 0 1128.000000 240.000000"
 preserveAspectRatio="xMidYMid meet">

<g transform="translate(0.000000,240.000000) scale(0.100000,-0.100000)"
fill="#000000" stroke="none">
<path d="M8903 2289 c-155 -58 -286 -108 -290 -113 -4 -4 -26 -80 -48 -169
l-40 -162 -95 -3 c-52 -2 -99 -7 -103 -11 -8 -8 -57 -377 -57 -428 0 -22 3
-23 90 -23 l90 0 0 -27 c0 -16 -9 -89 -20 -163 -84 -580 -84 -583 -84 -745 0
-178 13 -233 74 -307 78 -95 260 -136 472 -106 123 18 272 62 353 106 l50 27
26 160 c14 88 29 181 33 207 l7 47 -63 -26 c-175 -71 -282 -78 -323 -20 -24
34 -18 123 33 497 l47 345 197 3 c195 2 198 3 202 25 6 28 66 419 66 430 0 4
-87 7 -194 7 -107 0 -197 4 -200 8 -3 5 11 121 30 258 19 137 33 258 32 269
-3 18 -26 11 -285 -86z"/>
<path d="M7231 1915 c-190 -28 -383 -85 -530 -160 -39 -19 -71 -41 -71 -47 0
-30 116 -358 125 -354 211 95 320 129 466 145 135 15 237 -5 292 -57 51 -48
62 -79 61 -179 0 -51 -2 -94 -5 -98 -3 -3 -28 -1 -55 5 -27 6 -114 13 -194 16
-243 11 -421 -21 -598 -107 -180 -87 -286 -214 -333 -397 -42 -166 -12 -347
79 -467 89 -119 228 -173 416 -162 200 11 339 71 478 205 l89 86 -7 -54 c-7
-64 -30 -177 -39 -202 -7 -17 11 -18 282 -18 l290 0 6 142 c7 158 40 456 88
793 62 433 36 612 -110 755 -66 64 -156 112 -268 141 -105 27 -320 34 -462 14z
m236 -1026 c70 -12 69 -11 52 -91 -32 -154 -150 -318 -274 -379 -241 -119
-485 64 -381 286 39 84 126 149 239 180 64 17 275 19 364 4z"/>
<path d="M10365 1894 c-290 -47 -525 -206 -689 -467 -144 -230 -204 -526 -161
-792 50 -312 224 -514 512 -597 111 -32 350 -32 468 0 468 129 779 597 752
1131 -18 368 -206 618 -526 703 -75 19 -288 32 -356 22z m126 -517 c82 -55
104 -124 103 -322 0 -120 -4 -168 -22 -238 -51 -207 -153 -331 -268 -329 -73
1 -119 34 -154 114 -72 163 -31 510 80 676 36 53 89 101 130 115 38 13 98 6
131 -16z"/>
<path d="M2562 1869 c-91 -11 -237 -59 -319 -105 -243 -135 -422 -376 -500
-672 -21 -81 -26 -126 -30 -267 -4 -158 -3 -177 21 -269 43 -167 119 -292 236
-390 59 -49 187 -111 275 -133 96 -23 323 -24 418 0 329 82 598 342 710 687
45 139 60 256 54 418 -6 167 -24 246 -85 371 -52 107 -178 234 -282 285 -139
67 -330 96 -498 75z m146 -497 c153 -110 119 -620 -55 -813 -48 -52 -86 -71
-144 -71 -71 0 -111 29 -151 110 l-33 67 1 165 c1 135 5 179 22 243 41 150
112 265 191 307 47 26 125 22 169 -8z"/>
<path d="M4855 1867 c-124 -32 -247 -110 -361 -228 -83 -87 -104 -114 -179
-234 -49 -76 -56 -85 -51 -55 23 133 33 389 19 473 l-6 39 -41 -6 c-157 -24
-281 -36 -408 -42 l-148 -7 0 -81 c0 -174 -23 -394 -80 -789 -87 -591 -90
-611 -111 -727 -10 -58 -19 -111 -19 -117 0 -10 69 -13 314 -13 l313 0 7 69
c12 134 87 637 106 716 53 219 227 451 352 471 30 5 41 2 62 -19 21 -21 26
-36 26 -76 0 -54 -118 -869 -150 -1041 -11 -58 -20 -108 -20 -112 0 -5 143 -8
319 -8 l318 0 7 88 c4 48 27 222 51 387 48 330 68 404 145 539 80 139 200 246
277 246 40 0 73 -42 73 -93 0 -36 -133 -1004 -155 -1135 l-6 -32 293 0 293 0
110 653 c98 587 109 664 108 772 -1 188 -43 281 -155 338 -65 34 -171 45 -263
28 -83 -15 -227 -89 -307 -158 -83 -72 -165 -166 -226 -260 -26 -39 -52 -79
-59 -90 -10 -14 -11 2 -6 83 17 285 -80 421 -307 430 -48 2 -106 -2 -135 -9z"/>
<path d="M274 1815 c-1 -5 -12 -82 -24 -170 -12 -88 -28 -194 -36 -235 -8 -41
-14 -81 -14 -87 0 -10 75 -13 324 -15 l325 -3 -418 -453 -418 -453 -7 -76 c-3
-42 -6 -115 -6 -162 l0 -86 734 0 733 0 12 80 c7 44 28 158 47 253 19 96 34
177 34 180 0 4 -158 6 -351 4 l-351 -3 389 422 c213 232 405 441 426 465 l37
42 0 154 0 153 -716 0 c-469 0 -718 -3 -720 -10z"/>
</g>
</svg>
